<?xml version="1.0" encoding="utf-8"?>
<!-- Generator: Adobe Illustrator 26.0.0, SVG Export Plug-In . SVG Version: 6.00 Build 0)  -->
<!DOCTYPE svg PUBLIC "-//W3C//DTD SVG 1.1//EN" "http://www.w3.org/Graphics/SVG/1.1/DTD/svg11.dtd" [
	<!ENTITY st0 "fill:#141414;">
	<!ENTITY st1 "fill:#F4D3AB;">
	<!ENTITY st2 "fill:#FFCE85;">
	<!ENTITY st3 "fill:#684D1C;">
	<!ENTITY st4 "fill:#00F1B7;">
	<!ENTITY st5 "fill:#00E8AB;">
	<!ENTITY st6 "fill:#00756E;">
	<!ENTITY st7 "fill:#00E9C2;">
	<!ENTITY st8 "fill:#FFFFFF;">
]>
<svg version="1.1" xmlns="http://www.w3.org/2000/svg" xmlns:xlink="http://www.w3.org/1999/xlink" x="0px" y="0px"
	 viewBox="0 0 1920 500" style="enable-background:new 0 0 1920 500;" xml:space="preserve">
<g id="Capa_1">
	<g id="Capa_3">
		<g>
			<rect x="0.5" y="0.5" style="&st0;" width="1919" height="499"/>
			<path style="&st0;" d="M1919,1v498H1V1H1919 M1920,0H0v500h1920V0L1920,0z"/>
		</g>
	</g>
	<g id="Capa_1_00000030473847187328671720000007098665602714387112_">
	</g>
	<g id="Capa_2_00000065774643762669088320000008126840712418867640_">
	</g>
</g>
<g id="Capa_2">
	<circle style="&st0;" cx="1854.2" cy="418.1" r="49.5"/>
	<g>
		<path style="&st1;" d="M1855.2,459.1c0,0,17.8-14.1,6.9-29.6c-9.9-12.5-22.9-15.7-16-27.1c3.1-4.5,7.2-9.2,7.2-9.2
			s-35.9,7.7-14,29.6c1,1,12.6,12.5,16.7,19.2C1859.9,449.4,1855.2,459.1,1855.2,459.1z"/>
		<path style="&st2;" d="M1876.3,410.9"/>
		<path style="&st2;" d="M1848.3,399.1"/>
		<path style="&st2;" d="M1837.5,413.2"/>
		<path style="&st2;" d="M1844.9,404.7"/>
		<path style="&st2;" d="M1845.9,407.5"/>
		<path style="&st3;" d="M1860.6,422.5c0,0-5.4-6.6-2.6-15c1.1-3.3,4.7-7.4,8.6-10.7c14.4-12.5-1.8-19.7-1.8-19.7s2.7,4.2-0.5,10.2
			c-5.6,7.4-5.9,7-11.2,12.5C1841.6,411.9,1860.6,422.5,1860.6,422.5z"/>
	</g>
	<g>
		<g>
			<path style="&st4;" d="M48.5,222c0-28.1,22.8-49.8,52.4-49.8c12.3,0.2,25.4,5.5,35.2,14.4l-14.5,18.6c-5.8-5.3-13.6-8.8-20.6-8.8
				c-14.6,0-26.8,11.2-26.8,25.7c0,14.8,12.7,25.6,26.3,25.6c8,0,15.1-3.8,21.2-9.3l14.4,19.2c-9.1,8.3-21.2,14-35.6,14
				C73.6,271.7,48.5,251.9,48.5,222z"/>
			<path style="&st4;" d="M128.4,222.1c0-28.6,22.7-50.2,52.2-50.2c29.6,0,52.2,21.7,52.2,50.2c0,28.3-22.7,49.9-52.3,49.9
				C151,272,128.4,250.4,128.4,222.1z M207.3,221.9c0-14.7-11.6-26-26.7-26s-26.7,11.3-26.7,26c0,14.6,11.6,25.9,26.7,25.9
				S207.3,236.6,207.3,221.9z"/>
			<path style="&st4;" d="M337.1,173.6v96h-25.3v-37.7L286.2,268H286l-25.7-36.1v37.7h-25.3v-96h10.1l40.8,55.9l40.8-55.9H337.1z"/>
			<path style="&st4;" d="M342.6,235v-60.5H368v60.5c0,7.9,6.8,13.2,14,13.2c7.1,0,14.1-5.4,14.1-13.2v-60.5h25.4V235
				c0,21.8-17.7,37.2-39.5,37.2S342.6,256.8,342.6,235z"/>
			<path style="&st4;" d="M509.3,174.3v96.2h-8l-48.9-47.4v46.5h-25.3v-96.1h8.1l48.7,47.2v-46.4H509.3z"/>
			<path style="&st4;" d="M540.6,197.9v13.3h30.2v21.1h-30.2v13.6h36.7v23.7h-61.7v-95.1h61.7v23.5H540.6z"/>
			<path style="&st4;" d="M576.2,253.4l15.3-15c4,5.8,11.3,9.4,19.3,9.4c5.4,0,10.6-1.9,10.6-5.8c0-4.9-9.7-9.2-19.1-13.3
				c-12-5.2-22.4-13.1-22.4-27.4c0-16.5,15.6-28.2,33.7-28.2c14.5,0,25.8,6.8,29.6,16.2l-14.6,14c-2.8-5-10.1-7.2-14.7-7.2
				c-5.2,0-8.9,2.7-8.9,5.9c0,4.4,6.7,5.8,17,10.1c14.9,6.3,24.7,15.3,24.7,29.4c0,18.1-16.9,29.4-35.9,29.4
				C595.2,270.9,581,263.9,576.2,253.4z"/>
		</g>
		<g>
			<path style="&st5;" d="M48.5,222c0-28.1,22.8-49.8,52.4-49.8c12.3,0.2,25.4,5.5,35.2,14.4l-14.5,18.6c-5.8-5.3-13.6-8.8-20.6-8.8
				c-14.6,0-26.8,11.2-26.8,25.7c0,14.8,12.7,25.6,26.3,25.6c8,0,15.1-3.8,21.2-9.3l14.4,19.2c-9.1,8.3-21.2,14-35.6,14
				C73.6,271.7,48.5,251.9,48.5,222z"/>
			<path style="&st5;" d="M128.4,222.1c0-28.6,22.7-50.2,52.2-50.2c29.6,0,52.2,21.7,52.2,50.2c0,28.3-22.7,49.9-52.3,49.9
				C151,272,128.4,250.4,128.4,222.1z M207.3,221.9c0-14.7-11.6-26-26.7-26s-26.7,11.3-26.7,26c0,14.6,11.6,25.9,26.7,25.9
				S207.3,236.6,207.3,221.9z"/>
			<path style="&st5;" d="M337.1,173.6v96h-25.3v-37.7L286.2,268H286l-25.7-36.1v37.7h-25.3v-96h10.1l40.8,55.9l40.8-55.9H337.1z"/>
			<path style="&st5;" d="M342.6,235v-60.5H368v60.5c0,7.9,6.8,13.2,14,13.2c7.1,0,14.1-5.4,14.1-13.2v-60.5h25.4V235
				c0,21.8-17.7,37.2-39.5,37.2S342.6,256.8,342.6,235z"/>
			<path style="&st5;" d="M509.3,174.3v96.2h-8l-48.9-47.4v46.5h-25.3v-96.1h8.1l48.7,47.2v-46.4H509.3z"/>
			<path style="&st5;" d="M540.6,197.9v13.3h30.2v21.1h-30.2v13.6h36.7v23.7h-61.7v-95.1h61.7v23.5H540.6z"/>
			<path style="&st5;" d="M576.2,253.4l15.3-15c4,5.8,11.3,9.4,19.3,9.4c5.4,0,10.6-1.9,10.6-5.8c0-4.9-9.7-9.2-19.1-13.3
				c-12-5.2-22.4-13.1-22.4-27.4c0-16.5,15.6-28.2,33.7-28.2c14.5,0,25.8,6.8,29.6,16.2l-14.6,14c-2.8-5-10.1-7.2-14.7-7.2
				c-5.2,0-8.9,2.7-8.9,5.9c0,4.4,6.7,5.8,17,10.1c14.9,6.3,24.7,15.3,24.7,29.4c0,18.1-16.9,29.4-35.9,29.4
				C595.2,270.9,581,263.9,576.2,253.4z"/>
		</g>
	</g>
	<rect y="1" style="&st4;" width="1920" height="21"/>
	<rect y="479" style="&st4;" width="1920" height="21"/>
	<g>
		<path style="&st6;" d="M971.4,130.5h0.4c5.2,0,9.8,2.1,14,6.3c1.8,2.2,3,3.9,3.4,5c-2.4,1.3-3.7,1.9-3.8,1.9
			c-0.5-1-1.2-2.1-2.1-3.2c-3.4-3.8-7.3-5.8-11.7-5.8h-0.2c-4.6,0-8.6,2.1-12,6.2c-2.6,3.6-4,7.5-4,11.7v0.3c0,5,1.7,9.3,5.1,13.1
			c3.2,3.2,6.8,4.8,10.9,4.8c4.5,0,8.4-2,11.9-5.9c0.8-1.1,1.5-2.2,2-3.1l3.7,2c-0.5,1.2-1.7,3-3.7,5.3c-4.1,4-8.8,6.1-14,6.1
			c-5.6,0-10.5-2.3-14.8-7c-3.6-4.5-5.5-9.6-5.5-15.1v-0.3c0-6.1,2.1-11.5,6.4-16.1C961.7,132.5,966.3,130.5,971.4,130.5z"/>
		<path style="&st6;" d="M1006.9,133.2h4.2v0l-15.6,43.4h-4.3L1006.9,133.2L1006.9,133.2z"/>
		<path style="&st6;" d="M1017.1,130.5h4.1l0.1,0.1v28.5c0,4.8,1.7,8.3,5.1,10.5c1.5,0.8,3,1.2,4.4,1.2h4.2c3.1,0,5.6-1.4,7.6-4.3
			c1.3-2.1,2-4.7,2-7.9v-28.1l0.1-0.1h4.1l0.1,0.1v28.1c0,6.6-2.3,11.4-7,14.5c-2.2,1.3-4.4,1.9-6.7,1.9h-4.4
			c-3.4,0-6.5-1.3-9.2-3.9c-3-3.2-4.5-7.2-4.5-12L1017.1,130.5L1017.1,130.5z"/>
		<path style="&st6;" d="M1062.8,146.1c0.9,0,1.6,0.3,2.3,1c0.5,0.6,0.8,1.2,0.8,1.9v0.2c0,0.8-0.3,1.5-1,2.2
			c-0.6,0.5-1.3,0.8-2,0.8h0c-1,0-1.9-0.5-2.6-1.4c-0.3-0.5-0.5-1.1-0.5-1.5v-0.2c0-0.8,0.3-1.5,1-2.2
			C1061.4,146.4,1062,146.1,1062.8,146.1z M1062.8,169L1062.8,169c0.9,0,1.7,0.4,2.3,1.1c0.5,0.6,0.7,1.2,0.7,1.9v0.2
			c0,0.9-0.4,1.6-1.1,2.3c-0.6,0.5-1.2,0.7-2,0.7c-0.8,0-1.5-0.3-2.1-0.9c-0.6-0.6-0.9-1.3-0.9-2.1v-0.2c0-0.8,0.3-1.5,1-2.1
			C1061.3,169.3,1062,169,1062.8,169z"/>
		<path style="&st4;" d="M926.3,213.3h6.4l0,0v4.5c2,0.2,3.7,0.7,5.3,1.3c2.1,0.8,4.1,2.1,6,3.8c1.1,1.1,1.8,1.9,2.1,2.3
			c0.8,1.1,1.4,1.9,1.6,2.4c-2.8,1.4-4.7,2.4-5.7,2.9l-0.6-1c-0.4-0.5-0.8-1-1.4-1.6c-2.7-2.6-5.9-3.9-9.5-3.9h-0.3
			c-3,0-5.6,0.7-7.9,2.2c-1.9,1.2-3.2,3-3.9,5.2c-0.3,0.9-0.4,1.8-0.4,2.7v0c0,2.1,0.7,3.8,2.2,4.9c1,0.8,2,1.4,3,1.8
			c2.6,1.2,6.9,2.5,13,3.7c1.6,0.4,3,0.9,4.1,1.4c1,0.5,2.1,1.1,3.2,1.9c0.5,0.4,1,0.9,1.7,1.6c1,1.1,1.6,2,2,2.7
			c1.4,2.3,2.1,4.9,2.1,7.7c0,4-1.3,7.6-3.9,10.8c-0.9,0.9-1.6,1.6-2.1,2.1c-1.1,0.9-2.1,1.5-2.9,1.9c-0.8,0.4-1.9,0.9-3.2,1.3
			c-0.9,0.3-2,0.6-3.6,0.9l-0.8,0.1v4.5l0,0h-6.4l0,0V277c-1.2-0.2-2.3-0.5-3.2-0.7c-1.5-0.5-2.8-1.1-3.9-1.7
			c-1-0.6-2.2-1.4-3.4-2.3c-1.1-1-2-1.9-2.6-2.7c-1.3-1.6-2.2-3-2.7-4c-0.3-0.6-0.5-1-0.5-1.1l5.8-2.7c0.5,1.2,1.2,2.4,2.1,3.6
			c1,1.2,1.9,2,2.5,2.5c1.2,0.9,2.2,1.5,3.1,1.8c2,0.9,4,1.3,6,1.3h0.4c3,0,5.7-0.8,8.3-2.5c0.5-0.3,1.1-0.8,1.8-1.5
			c0.9-1.1,1.4-1.9,1.7-2.6c0.6-1.4,1-2.9,1-4.3c0-2.9-1.2-5.2-3.6-7c-0.7-0.5-1.3-0.8-1.8-1.1c-0.7-0.3-1.5-0.6-2.4-0.9l-5.9-1.4
			c-3.8-0.9-6.8-2-9.2-3.1c-0.9-0.5-2-1.1-3.2-1.8c-0.6-0.5-1.3-1.1-2-1.8c-2.2-2.4-3.3-5.2-3.3-8.5v-0.6c0-2.6,0.7-5.2,2.2-7.8
			c0.4-0.8,1.1-1.6,2-2.7c1.1-1.1,1.9-1.8,2.4-2.1c0.9-0.6,1.8-1.2,2.8-1.7c0.6-0.3,1.4-0.6,2.5-1c1.6-0.5,2.6-0.7,2.9-0.7
			L926.3,213.3L926.3,213.3z"/>
		<path style="&st4;" d="M978.6,215.8h0.2c3.4,0,6.5,1,9.5,3c0.6,0.4,1.4,1.1,2.4,2.1c1.2,1.2,1.9,2.3,2.3,3
			c1.6,2.7,2.4,5.6,2.4,8.6c0,4-1.3,7.6-3.8,10.8c-1,1.1-1.8,1.9-2.4,2.3l-0.1,0.2c0.7,0.4,1.6,1,2.7,1.9c1.1,1,2,1.9,2.7,2.7
			c3,3.7,4.4,7.8,4.4,12.3c0,4.8-1.6,9-4.8,12.8c-1.1,1.2-1.9,1.9-2.2,2.1c-1.3,1-2.4,1.8-3.3,2.3c-3.1,1.6-6.3,2.5-9.5,2.5h-0.7
			c-2.9,0-5.9-0.7-8.9-2.1c-1.1-0.5-2.2-1.3-3.4-2.1c-0.6-0.5-1.3-1.1-2-1.8c-1.4-1.6-2.4-2.9-3.1-4.2c-0.4-0.7-0.8-1.5-1.1-2.3
			c-0.9-2.3-1.4-4.6-1.4-6.8v-0.7c0-3.1,0.8-6.1,2.5-9.2c1.8-3.1,4.2-5.6,7.3-7.4c-0.5-0.3-1.2-1-2.1-2c-0.8-1-1.5-1.9-1.9-2.7
			c-1.6-2.7-2.3-5.5-2.3-8.5c0-4,1.3-7.6,3.9-10.8c1.2-1.2,1.9-2,2.4-2.3c0.7-0.6,1.4-1,2-1.3C972.8,216.6,975.6,215.8,978.6,215.8z
			 M964.9,262.6L964.9,262.6c0,3,1,5.7,2.9,8.1c0.8,0.9,1.5,1.7,2.2,2.2c2.6,2,5.5,3,8.6,3h0.2c3.4,0,6.4-1.1,9.2-3.4
			c0.9-0.9,1.5-1.5,1.7-1.8c1.9-2.4,2.8-5.1,2.8-8c0-3.2-1.2-6.2-3.5-8.8c-1-1-1.7-1.7-2.2-2c-2.5-1.7-5.1-2.6-8-2.6h0
			c-3.4,0-6.5,1.2-9.3,3.5c-1,1-1.6,1.7-1.8,2c-0.6,0.8-1.2,1.6-1.6,2.6C965.2,259.1,964.9,260.8,964.9,262.6z M968.3,232.6
			c0,2.8,1,5.2,3.1,7.4c2.1,2,4.5,3,7.3,3c2.9,0,5.5-1.1,7.6-3.3c1.9-2.1,2.8-4.4,2.8-6.9v-0.2c0-2.5-0.9-4.8-2.8-6.9
			c-2.2-2.2-4.7-3.3-7.6-3.3c-2.7,0-5.2,1-7.3,3C969.3,227.3,968.3,229.8,968.3,232.6z"/>
		<path style="&st4;" d="M1027.5,215.9c4.2,0,8,1.4,11.3,4.3c1,0.9,1.7,1.6,2,2.1c0.9,1.2,1.6,2.2,2,3c1.3,2.5,1.9,5.1,1.9,7.9v0.2
			c0,4.1-1.4,7.8-4.1,11.2c-1,1.1-1.8,1.9-2.4,2.4c-0.4,0.3-0.6,0.4-0.6,0.5c0.6,0.4,1.4,1,2.6,2c0.9,0.9,1.7,1.7,2.1,2.3
			c2.7,3.5,4,7.4,4,11.7c0,4.4-1.4,8.5-4.3,12.2c-0.5,0.5-1.1,1.2-2,2c-1.2,1-2.2,1.8-3,2.2c-3.1,1.8-6.4,2.7-9.7,2.7h-0.6
			c-3,0-6-0.8-8.9-2.3c-1-0.6-2.1-1.3-3.3-2.3c-1.2-1.1-2-1.9-2.5-2.6c-0.7-0.9-1.2-1.7-1.6-2.4c-0.5-0.8-0.9-1.8-1.5-3.1
			c-0.8-2.2-1.1-4.3-1.1-6.3v-0.3l0,0h6.3l0,0v0c0,2.9,1,5.6,2.9,8c0.8,0.9,1.4,1.5,1.9,1.8c2.4,1.9,5.1,2.8,8.1,2.8h0
			c3,0,5.8-1,8.3-3c1-0.9,1.6-1.5,2-2c1.8-2.4,2.7-5,2.7-7.8c0-2.9-1-5.6-2.9-8c-0.8-0.9-1.5-1.6-2-2c-0.8-0.6-1.5-1-2.1-1.4
			c-1.9-0.9-3.8-1.4-5.8-1.4h-4.7l0,0v-6.3l0,0h5.7c1.1-0.1,2-0.3,2.8-0.5c1-0.3,1.9-0.8,2.8-1.4c0.5-0.3,1.1-0.8,1.8-1.6
			c0.9-1.1,1.4-1.9,1.7-2.6c0.7-1.5,1.1-3.1,1.1-4.8c0-2.7-0.9-5.2-2.8-7.4c-0.9-0.9-1.5-1.4-1.8-1.6c-1.9-1.3-3.9-2-6.2-2h-0.1
			c-2.5,0-4.7,0.8-6.8,2.5c-2.6,2.3-3.9,5.2-3.9,8.6v0.1l0,0h-6.4v-0.5c0-3.7,1.1-7.1,3.3-10.2c0.4-0.5,1-1.3,2-2.3
			c0.9-0.8,1.6-1.4,2.2-1.8C1020.9,216.9,1024.1,215.9,1027.5,215.9z"/>
		<path style="&st4;" d="M1082.1,216.2h0.4c6.3,0,12,2.6,17.1,7.9c5.8,6.6,8.7,14.5,8.7,23.5c0,9.1-2.9,16.9-8.7,23.6
			c-5.1,5.3-10.9,7.9-17.3,7.9c-7.2,0-13.4-3.2-18.7-9.6c-4.8-6.3-7.3-13.5-7.3-21.6v-0.6c0-8.2,2.5-15.5,7.5-21.9
			C1069.2,219.2,1075.3,216.2,1082.1,216.2z M1062.7,247.4v0.5c0,6.5,1.9,12.4,5.9,17.6c4,4.8,8.6,7.2,13.8,7.2
			c5.5,0,10.3-2.8,14.5-8.3c3.4-5.1,5.1-10.7,5.1-16.9c0-6.3-1.8-12-5.3-17.1c-4.1-5.4-8.9-8-14.4-8h0c-5.5,0-10.3,2.7-14.4,8.2
			C1064.4,235.8,1062.7,241.3,1062.7,247.4z"/>
	</g>
	<g>
		<path style="&st6;" d="M1271.7,132.6c2.8,0,5.3,0.9,7.6,2.8c0.7,0.6,1.1,1.1,1.3,1.4c0.6,0.8,1.1,1.5,1.3,2
			c0.9,1.7,1.3,3.4,1.3,5.2v0.1c0,2.7-0.9,5.2-2.7,7.4c-0.7,0.7-1.2,1.3-1.6,1.6c-0.2,0.2-0.4,0.3-0.4,0.3c0.4,0.2,1,0.7,1.7,1.3
			c0.6,0.6,1.1,1.1,1.4,1.6c1.8,2.4,2.7,4.9,2.7,7.8c0,3-1,5.7-2.9,8.1c-0.3,0.3-0.8,0.8-1.3,1.3c-0.8,0.7-1.5,1.2-2,1.5
			c-2.1,1.2-4.2,1.8-6.5,1.8h-0.4c-2,0-4-0.5-5.9-1.5c-0.7-0.4-1.4-0.9-2.2-1.5c-0.8-0.7-1.4-1.3-1.7-1.7c-0.5-0.6-0.8-1.1-1.1-1.6
			c-0.3-0.5-0.6-1.2-1-2c-0.5-1.5-0.8-2.9-0.8-4.2v-0.2l0,0h4.2l0,0v0c0,1.9,0.7,3.7,2,5.3c0.5,0.6,0.9,1,1.2,1.2
			c1.6,1.3,3.4,1.9,5.4,1.9h0c2,0,3.9-0.7,5.5-2c0.6-0.6,1.1-1,1.3-1.3c1.2-1.6,1.8-3.3,1.8-5.2c0-1.9-0.6-3.7-1.9-5.3
			c-0.5-0.6-1-1-1.3-1.3c-0.5-0.4-1-0.7-1.4-0.9c-1.3-0.6-2.6-0.9-3.8-0.9h-3.1l0,0v-4.2l0,0h3.8c0.7-0.1,1.3-0.2,1.9-0.4
			c0.7-0.2,1.3-0.5,1.9-0.9c0.3-0.2,0.7-0.5,1.2-1c0.6-0.7,0.9-1.3,1.1-1.7c0.5-1,0.7-2.1,0.7-3.2c0-1.8-0.6-3.4-1.9-4.9
			c-0.6-0.6-1-0.9-1.2-1c-1.3-0.9-2.6-1.3-4.1-1.3h-0.1c-1.6,0-3.1,0.6-4.5,1.7c-1.7,1.5-2.6,3.4-2.6,5.8v0.1l0,0h-4.2v-0.3
			c0-2.4,0.7-4.7,2.2-6.8c0.2-0.3,0.7-0.9,1.3-1.5c0.6-0.5,1.1-0.9,1.5-1.2C1267.3,133.3,1269.4,132.6,1271.7,132.6z"/>
		<path style="&st6;" d="M1303.4,132.9h4.2v0l-15.6,43.4h-4.3L1303.4,132.9L1303.4,132.9z"/>
		<path style="&st6;" d="M1313.6,130.1h4.1l0.1,0.1v28.5c0,4.8,1.7,8.3,5.1,10.5c1.5,0.8,3,1.2,4.4,1.2h4.2c3.1,0,5.6-1.4,7.6-4.3
			c1.3-2.1,2-4.7,2-7.9v-28.1l0.1-0.1h4.1l0.1,0.1v28.1c0,6.6-2.3,11.4-7,14.5c-2.2,1.3-4.4,1.9-6.7,1.9h-4.4
			c-3.4,0-6.5-1.3-9.2-3.9c-3-3.2-4.5-7.2-4.5-12L1313.6,130.1L1313.6,130.1z"/>
		<path style="&st6;" d="M1359.3,145.8c0.9,0,1.6,0.3,2.3,1c0.5,0.6,0.8,1.2,0.8,1.9v0.2c0,0.8-0.3,1.5-1,2.2
			c-0.6,0.5-1.3,0.8-2,0.8h0c-1,0-1.9-0.5-2.6-1.4c-0.3-0.5-0.5-1.1-0.5-1.5v-0.2c0-0.8,0.3-1.5,1-2.2
			C1357.9,146.1,1358.6,145.8,1359.3,145.8z M1359.3,168.7L1359.3,168.7c0.9,0,1.7,0.4,2.3,1.1c0.5,0.6,0.7,1.2,0.7,1.9v0.2
			c0,0.9-0.4,1.6-1.1,2.3c-0.6,0.5-1.2,0.7-2,0.7c-0.8,0-1.5-0.3-2.1-0.9c-0.6-0.6-0.9-1.3-0.9-2.1v-0.2c0-0.8,0.3-1.5,1-2.1
			C1357.9,168.9,1358.5,168.7,1359.3,168.7z"/>
		<path style="&st4;" d="M1204.8,212.9h6.4l0,0v4.5c2,0.2,3.7,0.7,5.3,1.3c2.1,0.8,4.1,2.1,6,3.8c1.1,1.1,1.8,1.9,2.1,2.3
			c0.8,1.1,1.4,1.9,1.6,2.4c-2.8,1.4-4.7,2.4-5.7,2.9l-0.6-1c-0.4-0.5-0.8-1-1.4-1.6c-2.7-2.6-5.9-3.9-9.5-3.9h-0.3
			c-3,0-5.6,0.7-7.9,2.2c-1.9,1.2-3.2,3-3.9,5.2c-0.3,0.9-0.4,1.8-0.4,2.7v0c0,2.1,0.7,3.8,2.2,4.9c1,0.8,2,1.4,3,1.8
			c2.6,1.2,6.9,2.5,13,3.7c1.6,0.4,3,0.9,4.1,1.4c1,0.5,2.1,1.1,3.2,1.9c0.5,0.4,1,0.9,1.7,1.6c1,1.1,1.6,2,2,2.7
			c1.4,2.3,2.1,4.9,2.1,7.7c0,4-1.3,7.6-3.9,10.8c-0.9,0.9-1.6,1.6-2.1,2.1c-1.1,0.9-2.1,1.5-2.9,1.9c-0.8,0.4-1.9,0.9-3.2,1.3
			c-0.9,0.3-2,0.6-3.6,0.9l-0.8,0.1v4.5l0,0h-6.4l0,0v-4.6c-1.2-0.2-2.3-0.5-3.2-0.7c-1.5-0.5-2.8-1.1-3.9-1.7
			c-1-0.6-2.2-1.4-3.4-2.3c-1.1-1-2-1.9-2.6-2.7c-1.3-1.6-2.2-3-2.7-4c-0.3-0.6-0.5-1-0.5-1.1l5.8-2.7c0.5,1.2,1.2,2.4,2.1,3.6
			c1,1.2,1.9,2,2.5,2.5c1.2,0.9,2.2,1.5,3.1,1.8c2,0.9,4,1.3,6,1.3h0.4c3,0,5.7-0.8,8.3-2.5c0.5-0.3,1.1-0.8,1.8-1.5
			c0.9-1.1,1.4-1.9,1.7-2.6c0.6-1.4,1-2.9,1-4.3c0-2.9-1.2-5.2-3.6-7c-0.7-0.5-1.3-0.8-1.8-1.1c-0.7-0.3-1.5-0.6-2.4-0.9l-5.9-1.4
			c-3.8-0.9-6.8-2-9.2-3.1c-0.9-0.5-2-1.1-3.2-1.8c-0.6-0.5-1.3-1.1-2-1.8c-2.2-2.4-3.3-5.2-3.3-8.5v-0.6c0-2.6,0.7-5.2,2.2-7.8
			c0.4-0.8,1.1-1.6,2-2.7c1.1-1.1,1.9-1.8,2.4-2.1c0.9-0.6,1.8-1.2,2.8-1.7c0.6-0.3,1.4-0.6,2.5-1c1.6-0.5,2.6-0.7,2.9-0.7
			L1204.8,212.9L1204.8,212.9z"/>
		<path style="&st4;" d="M1255.3,215.6c6.2,0,11,2.5,14.5,7.5c1.1,1.6,2,3.4,2.6,5.4c0.7,2.1,1.1,4.2,1.1,6.4c0,3.2-0.7,6.1-2.2,8.7
			l-11.3,13.1l-12.1,13.9l-2,2.4h27.6v6.4h-35.7l0,0v-6.7c0-0.1,0.2-0.2,0.5-0.5l11.5-13.3l10.9-12.6l5.5-6.4c0.7-1.5,1.1-3.2,1.1-5
			c0-3-0.9-5.8-2.7-8.4c-2.2-3-5.2-4.5-8.9-4.5h-0.4c-5.2,0-8.8,2.5-10.7,7.4c-0.3,0.9-0.6,2-0.9,3.5c-0.2,1-0.2,1.7-0.2,2.2h-6.4
			v-0.2c0-2,0.4-4.4,1.3-7.1c0.6-1.7,1.3-3.2,2.1-4.4c0.5-0.8,1.1-1.6,2-2.5C1245.6,217.3,1249.9,215.6,1255.3,215.6z"/>
		<path style="&st4;" d="M1315.1,216.7L1315.1,216.7l0,45.4h5.1v6.4l0,0h-5v10.6l0,0h-6.3l0,0v-10.6h-29.7l9.8-17.3l11-19.4
			l7.2-12.8l1.3-2.3H1315.1z M1308.8,229l-9.1,16.1l-9.6,17h18.7V229z"/>
		<path style="&st4;" d="M1350.7,215.7l5.5,3.2l-11.2,19.3c1.9-0.5,3.7-0.7,5.5-0.7h0.3c4.3,0,8.4,1.3,12.2,3.8
			c0.9,0.6,1.9,1.4,3,2.4c1,1,1.8,1.9,2.4,2.7c0.9,1.2,1.5,2.3,1.9,3.1c1.6,3.3,2.5,6.7,2.5,10v0.6c0,3.7-1,7.3-2.9,10.8
			c-0.5,1-1.3,2-2.2,3.2c-0.4,0.5-1.1,1.3-2.1,2.3c-2.1,1.8-4.3,3.2-6.7,4.2c-2.6,1-5.3,1.6-8.2,1.6c-4.8,0-9.2-1.5-13.3-4.4
			c-0.7-0.5-1.5-1.3-2.6-2.3c-1.3-1.4-2.2-2.6-2.8-3.6c-0.9-1.4-1.6-2.9-2.1-4.3c-0.9-2.5-1.3-4.9-1.3-7.3v-0.7
			c0-3.2,0.8-6.5,2.4-9.7c0.4-0.8,1.9-3.3,4.4-7.7l11.8-20.2L1350.7,215.7z M1335,259.7v0.2c0,3.4,1.1,6.6,3.2,9.5
			c0.4,0.5,1,1.2,1.9,2.1c3.1,2.8,6.7,4.2,10.6,4.2c3.9,0,7.4-1.3,10.5-4c1.1-1.1,1.7-1.8,1.9-2.1c2.2-2.9,3.3-6.2,3.3-9.8
			c0-4.3-1.5-8-4.6-11.2c-0.9-0.9-1.6-1.5-2.1-1.8c-2.7-1.9-5.7-2.9-9-2.9c-3.9,0-7.3,1.3-10.4,4c-0.9,0.9-1.6,1.5-1.8,1.9
			C1336.1,252.8,1335,256.1,1335,259.7z"/>
		<path style="&st4;" d="M1407.5,215.8h0.4c6.3,0,12,2.6,17.1,7.9c5.8,6.6,8.7,14.5,8.7,23.5c0,9.1-2.9,16.9-8.7,23.6
			c-5.1,5.3-10.9,7.9-17.3,7.9c-7.2,0-13.4-3.2-18.7-9.6c-4.8-6.3-7.3-13.5-7.3-21.6V247c0-8.2,2.5-15.5,7.5-21.9
			C1394.6,218.9,1400.7,215.8,1407.5,215.8z M1388.1,247.1v0.5c0,6.5,1.9,12.4,5.8,17.6c4,4.8,8.6,7.2,13.8,7.2
			c5.5,0,10.3-2.8,14.5-8.3c3.4-5.1,5.1-10.7,5.1-16.9c0-6.3-1.8-12-5.3-17.1c-4.1-5.4-8.9-8-14.4-8h0c-5.5,0-10.3,2.7-14.4,8.2
			C1389.8,235.4,1388.1,241,1388.1,247.1z"/>
	</g>
	<g>
		<path style="&st6;" d="M1591.1,133l3.7,2.1l-7.5,12.9c1.2-0.3,2.5-0.5,3.7-0.5h0.2c2.9,0,5.6,0.8,8.1,2.5c0.6,0.4,1.2,0.9,2,1.6
			c0.7,0.7,1.2,1.3,1.6,1.8c0.6,0.8,1,1.5,1.3,2.1c1.1,2.2,1.6,4.4,1.6,6.7v0.4c0,2.5-0.6,4.9-1.9,7.2c-0.4,0.6-0.9,1.4-1.5,2.1
			c-0.3,0.3-0.7,0.9-1.4,1.5c-1.4,1.2-2.9,2.1-4.4,2.8c-1.7,0.7-3.6,1-5.5,1c-3.2,0-6.1-1-8.8-3c-0.4-0.3-1-0.9-1.7-1.6
			c-0.9-1-1.5-1.7-1.9-2.4c-0.6-1-1.1-1.9-1.4-2.9c-0.6-1.7-0.9-3.3-0.9-4.9v-0.5c0-2.2,0.5-4.3,1.6-6.5c0.3-0.5,1.2-2.2,3-5.1
			l7.9-13.5L1591.1,133z M1580.7,162.4v0.1c0,2.3,0.7,4.4,2.1,6.3c0.2,0.3,0.7,0.8,1.3,1.4c2.1,1.8,4.4,2.8,7,2.8
			c2.6,0,4.9-0.9,7-2.7c0.7-0.7,1.1-1.2,1.3-1.4c1.5-2,2.2-4.1,2.2-6.5c0-2.8-1-5.3-3-7.5c-0.6-0.6-1-1-1.4-1.2
			c-1.8-1.3-3.8-1.9-6-1.9c-2.6,0-4.9,0.9-6.9,2.7c-0.6,0.6-1,1-1.2,1.3C1581.4,157.7,1580.7,159.9,1580.7,162.4z"/>
		<path style="&st6;" d="M1624.4,133.2h4.2v0l-15.6,43.4h-4.3L1624.4,133.2L1624.4,133.2z"/>
		<path style="&st6;" d="M1634.5,130.4h4.1l0.1,0.1v28.5c0,4.8,1.7,8.3,5.1,10.5c1.5,0.8,3,1.2,4.4,1.2h4.2c3.1,0,5.6-1.4,7.6-4.3
			c1.3-2.1,2-4.7,2-7.9v-28.1l0.1-0.1h4.1l0.1,0.1v28.1c0,6.6-2.3,11.4-7,14.5c-2.2,1.3-4.4,1.9-6.7,1.9h-4.4
			c-3.4,0-6.5-1.3-9.2-3.9c-3-3.2-4.5-7.2-4.5-12L1634.5,130.4L1634.5,130.4z"/>
		<path style="&st6;" d="M1680.3,146.1c0.9,0,1.6,0.3,2.3,1c0.5,0.6,0.8,1.2,0.8,1.9v0.2c0,0.8-0.3,1.5-1,2.2
			c-0.6,0.5-1.3,0.8-2,0.8h0c-1,0-1.9-0.5-2.6-1.4c-0.3-0.5-0.5-1.1-0.5-1.5V149c0-0.8,0.3-1.5,1-2.2
			C1678.8,146.3,1679.5,146.1,1680.3,146.1z M1680.2,168.9L1680.2,168.9c0.9,0,1.7,0.4,2.3,1.1c0.5,0.6,0.7,1.2,0.7,1.9v0.2
			c0,0.9-0.4,1.6-1.1,2.3c-0.6,0.5-1.2,0.7-2,0.7c-0.8,0-1.5-0.3-2.1-0.9c-0.6-0.6-0.9-1.3-0.9-2.1v-0.2c0-0.8,0.3-1.5,1-2.1
			C1678.8,169.2,1679.5,168.9,1680.2,168.9z"/>
		<path style="&st7;" d="M1522.2,213.2h6.4l0,0v4.5c2,0.2,3.7,0.7,5.3,1.3c2.1,0.8,4.1,2.1,6,3.8c1.1,1.1,1.8,1.9,2.1,2.3
			c0.8,1.1,1.4,1.9,1.6,2.4c-2.8,1.4-4.7,2.4-5.7,2.9l-0.6-1c-0.4-0.5-0.8-1-1.4-1.6c-2.7-2.6-5.9-3.9-9.5-3.9h-0.3
			c-3,0-5.6,0.7-7.9,2.2c-1.9,1.2-3.2,3-3.9,5.2c-0.3,0.9-0.4,1.8-0.4,2.7v0c0,2.1,0.7,3.8,2.2,4.9c1,0.8,2,1.4,3,1.8
			c2.6,1.2,6.9,2.5,13,3.7c1.6,0.4,3,0.9,4.1,1.4c1,0.5,2.1,1.1,3.2,1.9c0.5,0.4,1,0.9,1.7,1.6c1,1.1,1.6,2,2,2.7
			c1.4,2.3,2.1,4.9,2.1,7.7c0,4-1.3,7.6-3.9,10.8c-0.9,0.9-1.6,1.6-2.1,2.1c-1.1,0.9-2.1,1.5-2.9,1.9c-0.8,0.4-1.9,0.9-3.2,1.3
			c-0.9,0.3-2,0.6-3.6,0.9l-0.8,0.1v4.5l0,0h-6.4l0,0V277c-1.2-0.2-2.3-0.5-3.2-0.7c-1.5-0.5-2.8-1.1-3.9-1.7
			c-1-0.6-2.2-1.4-3.4-2.3c-1.1-1-2-1.9-2.6-2.7c-1.3-1.6-2.2-3-2.7-4c-0.3-0.6-0.5-1-0.5-1.1l5.8-2.7c0.5,1.2,1.2,2.4,2.1,3.6
			c1,1.2,1.9,2,2.5,2.5c1.2,0.9,2.2,1.5,3.1,1.8c2,0.9,4,1.3,6,1.3h0.4c3,0,5.7-0.8,8.3-2.5c0.5-0.3,1.1-0.8,1.8-1.5
			c0.9-1.1,1.4-1.9,1.7-2.6c0.6-1.4,1-2.9,1-4.3c0-2.9-1.2-5.2-3.6-7c-0.7-0.5-1.3-0.8-1.8-1.1c-0.7-0.3-1.5-0.6-2.4-0.9l-5.9-1.4
			c-3.8-0.9-6.8-2-9.2-3.1c-0.9-0.5-2-1.1-3.2-1.8c-0.6-0.5-1.3-1.1-2-1.8c-2.2-2.4-3.3-5.2-3.3-8.5v-0.6c0-2.6,0.7-5.2,2.2-7.8
			c0.4-0.8,1.1-1.6,2-2.7c1.1-1.1,1.9-1.8,2.4-2.1c0.9-0.6,1.8-1.2,2.8-1.7c0.6-0.3,1.4-0.6,2.5-1c1.6-0.5,2.6-0.7,2.9-0.7
			L1522.2,213.2L1522.2,213.2z"/>
		<path style="&st7;" d="M1587,217L1587,217l0,45.4h5.1v6.4l0,0h-5v10.6l0,0h-6.3l0,0v-10.6h-29.7l9.8-17.3l11-19.4l7.2-12.8
			l1.3-2.3H1587z M1580.6,229.3l-9.1,16.1l-9.6,17h18.7V229.3z"/>
		<path style="&st7;" d="M1620.7,215.7h0.2c3.4,0,6.5,1,9.5,3c0.6,0.4,1.4,1.1,2.4,2.1c1.2,1.2,1.9,2.3,2.3,3
			c1.6,2.7,2.4,5.6,2.4,8.6c0,4-1.3,7.6-3.8,10.8c-1,1.1-1.8,1.9-2.4,2.3l-0.1,0.2c0.7,0.4,1.6,1,2.7,1.9c1.1,1,2,1.9,2.7,2.7
			c3,3.7,4.4,7.8,4.4,12.3c0,4.8-1.6,9-4.8,12.8c-1.1,1.2-1.9,1.9-2.2,2.1c-1.3,1-2.4,1.8-3.3,2.3c-3.1,1.6-6.3,2.5-9.5,2.5h-0.7
			c-2.9,0-5.9-0.7-8.9-2.1c-1.1-0.5-2.2-1.3-3.4-2.1c-0.6-0.5-1.3-1.1-2-1.8c-1.4-1.6-2.4-2.9-3.1-4.2c-0.4-0.7-0.8-1.5-1.1-2.3
			c-0.9-2.3-1.4-4.6-1.4-6.8v-0.7c0-3.1,0.8-6.1,2.5-9.2c1.8-3.1,4.2-5.6,7.3-7.4c-0.5-0.3-1.2-1-2.1-2c-0.8-1-1.5-1.9-1.9-2.7
			c-1.6-2.7-2.3-5.5-2.3-8.5c0-4,1.3-7.6,3.9-10.8c1.2-1.2,1.9-2,2.4-2.3c0.7-0.6,1.4-1,2-1.3
			C1614.9,216.5,1617.7,215.7,1620.7,215.7z M1607,262.6L1607,262.6c0,3,1,5.7,2.9,8.1c0.8,0.9,1.5,1.7,2.2,2.2c2.6,2,5.5,3,8.6,3
			h0.2c3.4,0,6.4-1.1,9.2-3.4c0.9-0.9,1.5-1.5,1.7-1.8c1.9-2.4,2.8-5.1,2.8-8c0-3.2-1.2-6.2-3.5-8.8c-1-1-1.7-1.7-2.2-2
			c-2.5-1.7-5.1-2.6-8-2.6h0c-3.4,0-6.5,1.2-9.3,3.5c-1,1-1.6,1.7-1.8,2c-0.6,0.8-1.2,1.6-1.6,2.6
			C1607.3,259.1,1607,260.8,1607,262.6z M1610.4,232.5c0,2.8,1,5.2,3.1,7.4c2.1,2,4.5,3,7.3,3c2.9,0,5.5-1.1,7.6-3.3
			c1.9-2.1,2.8-4.4,2.8-6.9v-0.2c0-2.5-0.9-4.8-2.8-6.9c-2.2-2.2-4.7-3.3-7.6-3.3c-2.7,0-5.2,1-7.3,3
			C1611.4,227.3,1610.4,229.7,1610.4,232.5z"/>
		<path style="&st7;" d="M1672,216l5.5,3.2l-11.2,19.3c1.9-0.5,3.7-0.7,5.5-0.7h0.3c4.3,0,8.4,1.3,12.2,3.8c0.9,0.6,1.9,1.4,3,2.4
			c1,1,1.8,1.9,2.4,2.7c0.9,1.2,1.5,2.3,1.9,3.1c1.6,3.3,2.5,6.7,2.5,10v0.6c0,3.7-1,7.3-2.9,10.8c-0.5,1-1.3,2-2.2,3.2
			c-0.4,0.5-1.1,1.3-2.1,2.3c-2.1,1.8-4.3,3.2-6.7,4.2c-2.6,1-5.3,1.6-8.2,1.6c-4.8,0-9.2-1.5-13.3-4.4c-0.7-0.5-1.5-1.3-2.6-2.3
			c-1.3-1.4-2.2-2.6-2.8-3.6c-0.9-1.4-1.6-2.9-2.1-4.3c-0.9-2.5-1.3-4.9-1.3-7.3v-0.7c0-3.2,0.8-6.5,2.4-9.7
			c0.4-0.8,1.9-3.3,4.4-7.7l11.8-20.2L1672,216z M1656.3,260v0.2c0,3.4,1.1,6.6,3.2,9.5c0.4,0.5,1,1.2,1.9,2.1
			c3.1,2.8,6.7,4.2,10.6,4.2c3.9,0,7.4-1.3,10.5-4c1.1-1.1,1.7-1.8,1.9-2.1c2.2-2.9,3.3-6.2,3.3-9.8c0-4.3-1.5-8-4.6-11.2
			c-0.9-0.9-1.6-1.5-2.1-1.8c-2.7-1.9-5.7-2.9-9-2.9c-3.9,0-7.3,1.3-10.4,4c-0.9,0.9-1.6,1.5-1.8,1.9
			C1657.5,253.1,1656.3,256.4,1656.3,260z"/>
		<path style="&st7;" d="M1728.8,216.1h0.4c6.3,0,12,2.6,17.1,7.9c5.8,6.6,8.7,14.5,8.7,23.5c0,9.1-2.9,16.9-8.7,23.6
			c-5.1,5.3-10.9,7.9-17.3,7.9c-7.2,0-13.4-3.2-18.7-9.6c-4.8-6.3-7.3-13.5-7.3-21.6v-0.6c0-8.2,2.5-15.5,7.5-21.9
			C1716,219.2,1722.1,216.1,1728.8,216.1z M1709.5,247.4v0.5c0,6.5,1.9,12.4,5.8,17.6c4,4.8,8.6,7.2,13.8,7.2
			c5.5,0,10.3-2.8,14.5-8.3c3.4-5.1,5.1-10.7,5.1-16.9c0-6.3-1.8-12-5.3-17.1c-4.1-5.4-8.9-8-14.4-8h0c-5.5,0-10.3,2.7-14.4,8.2
			C1711.2,235.7,1709.5,241.3,1709.5,247.4z"/>
	</g>
	<g>
		<path style="&st8;" d="M1266.2,298.9h0.7l0.1,0.1v1.6l-0.1,0h-0.5c-2.2,0-4,2.1-5.5,6.2c-1.1,3.1-1.6,6.5-1.6,10.2
			c0,6,1,10.8,2.9,14.4c1,1.6,2,2.7,3.1,3.1c0.3,0.1,0.9,0.2,1.6,0.2h0.1l0.1,0.1v1.6l-0.1,0.1h-0.4c-3.5,0-6.1-3.1-7.9-9.4
			c-0.7-2.8-1-5.7-1-8.7v-1.5c0-5.6,1.1-10.3,3.3-14.2C1262.4,300.1,1264.2,298.9,1266.2,298.9z"/>
		<path style="&st8;" d="M1281.7,301.2v2.4c0.6,0,1.3,0.1,2.2,0.4c1.1,0.3,2.1,0.9,3,1.7c0.5,0.5,0.9,0.8,1,1
			c0.4,0.5,0.6,0.8,0.8,1.1c0.1,0.1,0.1,0.2,0.1,0.2l-1.6,0.7c-0.2-0.3-0.5-0.7-0.9-1.3c-1.4-1.5-3.1-2.2-5.1-2.2
			c-1.6,0-3,0.4-4.2,1.2c-0.2,0.1-0.5,0.4-0.9,0.8c-0.5,0.6-0.8,1.1-1,1.5c-0.3,0.7-0.4,1.3-0.4,2c0,1.3,0.5,2.3,1.5,3.1
			c0.5,0.4,1.3,0.8,2.5,1.3c1.2,0.4,2.9,0.9,5.1,1.4c0.8,0.2,1.4,0.4,1.9,0.7c0.4,0.2,0.8,0.4,1.2,0.8c0.5,0.4,0.9,0.8,1.2,1.2
			c0.9,1.2,1.3,2.5,1.3,4c0,1.5-0.4,2.9-1.3,4.2c-0.2,0.3-0.5,0.6-0.9,1l-0.3,0.3c-0.5,0.4-0.9,0.7-1.2,0.9c-0.4,0.2-1,0.5-1.6,0.7
			c-0.5,0.2-1.1,0.3-1.6,0.4c-0.2,0-0.5,0.1-0.9,0.1v2.4l0,0h-1.7l0,0v-2.4c0,0-0.1,0-0.4,0c-0.6-0.1-1.1-0.2-1.5-0.3
			c-0.5-0.1-0.9-0.3-1.4-0.6c-0.5-0.2-1-0.6-1.5-1c-0.2-0.2-0.6-0.5-1-0.9c-0.5-0.6-0.9-1.1-1.3-1.7c-0.2-0.4-0.4-0.8-0.6-1.1
			c0.9-0.4,1.4-0.7,1.6-0.7c0.2,0.4,0.4,0.9,0.8,1.4c0.2,0.3,0.5,0.7,0.9,1.1c0.5,0.5,0.9,0.8,1.2,1c1.3,0.8,2.7,1.2,4.2,1.2h0.1
			c1.5,0,2.8-0.4,4.1-1.2c0.3-0.2,0.6-0.4,1-0.8c0.3-0.4,0.6-0.8,0.8-1.1c0.5-0.9,0.8-1.8,0.8-2.8v-0.2c0-1.1-0.4-2.1-1.1-3.1
			c-0.4-0.4-0.6-0.6-0.8-0.7c-0.4-0.3-0.7-0.5-1-0.6c-0.5-0.2-1.1-0.4-1.7-0.5c-2.6-0.6-4.5-1.1-5.7-1.7c-0.6-0.2-1.2-0.5-1.8-0.9
			c-1.1-0.7-1.8-1.6-2.2-2.6c-0.2-0.6-0.4-1.4-0.4-2.1c0-1.7,0.6-3.2,1.8-4.6c0.4-0.5,0.8-0.8,1-1c0.5-0.3,0.9-0.6,1.4-0.8
			c0.4-0.2,0.8-0.3,1.4-0.5c0.4-0.1,0.8-0.2,1.3-0.2l0.1,0v-2.4H1281.7z"/>
		<path style="&st8;" d="M1302.9,302.5c1.8,0,3.5,0.6,5,1.9c0.5,0.5,0.8,0.9,1,1.1c0.9,1.3,1.4,2.8,1.4,4.3c0,1.7-0.6,3.2-1.7,4.6
			c-0.4,0.5-0.8,0.8-1,1c-0.3,0.3-0.7,0.5-1,0.7v0c0.4,0.2,0.8,0.4,1.3,0.7c0.4,0.2,0.8,0.5,1.3,1c0.5,0.5,0.9,1,1.1,1.3
			c1.1,1.5,1.6,3.2,1.6,5v0c0,1.9-0.6,3.6-1.7,5.1c-0.2,0.3-0.5,0.6-0.9,1c-0.5,0.5-0.9,0.8-1.4,1.1c-1.5,1-3.2,1.5-5,1.5
			c-2.1,0-4.1-0.7-5.8-2.1c-0.6-0.5-1-1-1.3-1.3c-0.4-0.6-0.8-1-0.9-1.4c-0.6-1.3-1-2.5-1-3.8v-0.2c0-1.3,0.3-2.6,1-3.9
			c0.2-0.5,0.6-0.9,1-1.4c0.5-0.6,0.9-1,1.3-1.3c0.6-0.4,1-0.7,1.4-0.9c0.2-0.1,0.4-0.2,0.7-0.3l-0.4-0.3c-0.3-0.2-0.7-0.5-1.2-1
			c-0.3-0.4-0.6-0.7-0.9-1.1c-0.8-1.2-1.2-2.6-1.2-4c0-1.8,0.6-3.4,1.8-4.8c0.4-0.4,0.6-0.7,0.9-0.9
			C1299.6,303,1301.2,302.5,1302.9,302.5z M1295.6,324.2L1295.6,324.2c0,1.8,0.6,3.3,1.8,4.7c0.5,0.5,0.8,0.8,0.9,0.9
			c1.4,1,2.9,1.5,4.5,1.5c1.8,0,3.4-0.6,4.8-1.7c0.4-0.4,0.7-0.7,1-1c1-1.3,1.5-2.7,1.5-4.3c0-1.6-0.6-3.1-1.7-4.5
			c-0.4-0.5-0.8-0.8-0.9-0.9c-1.4-1.1-3-1.6-4.7-1.6c-1.5,0-2.9,0.4-4.2,1.3c-0.3,0.2-0.7,0.5-1.1,1c-0.6,0.6-1,1.3-1.3,2
			C1295.8,322.3,1295.6,323.2,1295.6,324.2z M1297.3,309.8c0,1.5,0.6,2.8,1.7,4c1.2,1.1,2.5,1.6,4,1.6c1.3,0,2.6-0.5,3.6-1.4
			c0.4-0.3,0.7-0.6,0.8-0.8c0.8-1,1.2-2.2,1.2-3.4v-0.2c0-1.1-0.3-2.1-1-3.1c-0.1-0.2-0.4-0.5-0.7-0.8c-0.5-0.5-0.9-0.8-1.4-1
			c-0.8-0.4-1.6-0.6-2.4-0.6h-0.2c-1.2,0-2.3,0.4-3.3,1.2c-0.4,0.4-0.8,0.7-1.1,1.1C1297.6,307.5,1297.3,308.6,1297.3,309.8z"/>
		<path style="&st8;" d="M1324.3,302.7c2.4,0,4.4,0.9,5.9,2.7c0.7,0.8,1.2,1.7,1.6,2.7c0.4,1.1,0.5,2.2,0.5,3.2
			c0,1.4-0.3,2.7-0.9,3.8l-7,8l-6.1,7h3.5h10.3v1.7l0,0h-15.6l0,0v-2.3c3.7-4.2,5.7-6.5,6-6.9l5.1-5.9c1.5-1.7,2.3-2.6,2.3-2.6
			c0.4-0.8,0.6-1.7,0.6-2.8c0-1.3-0.3-2.6-1-3.8c-1.2-2.1-2.9-3.1-5.2-3.1h-0.2c-1.9,0-3.4,0.6-4.5,1.9c-0.4,0.5-0.6,0.8-0.8,1.2
			c-0.2,0.4-0.4,1-0.6,1.7c-0.2,0.8-0.3,1.5-0.3,2.1h-1.7v0c0-0.9,0.2-2,0.6-3.3c0.3-0.8,0.7-1.6,1.1-2.2
			C1319.4,303.7,1321.5,302.7,1324.3,302.7z"/>
		<path style="&st8;" d="M1348.7,302.6c2.5,0,4.8,0.9,7,2.8c1.2,1.1,1.9,2.1,2.3,2.8c1.7,2.7,2.5,5.7,2.5,9c0,4.1-1.3,7.6-3.8,10.7
			c-2.4,2.6-5.1,3.9-8.1,3.9c-3.1,0-5.8-1.4-8.2-4.1c-2.4-3-3.6-6.5-3.6-10.4v-0.1c0-4.3,1.4-8,4.2-11.1
			C1343.3,303.7,1345.9,302.6,1348.7,302.6z M1338.5,317.2c0,3.4,1,6.4,3,9.1c1.1,1.3,2,2.1,2.7,2.4c1.4,0.9,2.9,1.3,4.3,1.3h0.3
			c2.2,0,4.3-1,6.2-2.9c1.2-1.3,2.1-2.7,2.7-4.3c0.7-1.9,1.1-3.8,1.1-5.7c0-3.8-1.2-7.1-3.7-9.9c-2-2-4.1-2.9-6.4-2.9
			c-2.8,0-5.2,1.3-7.3,3.9C1339.5,310.8,1338.5,313.8,1338.5,317.2z"/>
		<path style="&st8;" d="M1372.3,302.6c2.2,3.9,3.3,8.7,3.3,14.2v1.5c0,3-0.3,5.9-1,8.7c-1.8,6.2-4.5,9.4-7.9,9.4h-0.4l-0.1-0.1
			v-1.6l0.1-0.1h0.1c0.7,0,1.2-0.1,1.6-0.2c1.1-0.5,2.2-1.5,3.1-3.1c1.9-3.6,2.9-8.4,2.9-14.4c0-3.7-0.5-7.1-1.6-10.2
			c-1.5-4.1-3.4-6.2-5.5-6.2h-0.5l-0.1,0v-1.6l0.1-0.1h0.7C1368.9,298.9,1370.7,300.1,1372.3,302.6z"/>
	</g>
	<g>
		<path style="&st8;" d="M1583.7,298.7h0.7l0.1,0.1v1.6l-0.1,0h-0.5c-2.2,0-4,2.1-5.6,6.2c-1.1,3.1-1.6,6.5-1.6,10.2
			c0,6,1,10.8,2.9,14.4c1,1.6,2,2.7,3.1,3.1c0.3,0.1,0.9,0.2,1.6,0.2h0.1l0.1,0.1v1.6l-0.1,0.1h-0.4c-3.5,0-6.1-3.1-7.9-9.4
			c-0.7-2.8-1-5.7-1-8.7v-1.5c0-5.6,1.1-10.3,3.3-14.2C1580,300,1581.8,298.7,1583.7,298.7z"/>
		<path style="&st8;" d="M1599.2,301v2.4c0.6,0,1.3,0.1,2.2,0.4c1.1,0.3,2.1,0.9,3,1.7c0.5,0.5,0.9,0.8,1,1c0.4,0.5,0.6,0.8,0.8,1.1
			c0.1,0.1,0.1,0.2,0.1,0.2l-1.6,0.7c-0.2-0.3-0.5-0.7-0.9-1.3c-1.4-1.5-3.1-2.2-5.1-2.2c-1.6,0-3,0.4-4.2,1.2
			c-0.2,0.1-0.5,0.4-0.9,0.8c-0.5,0.6-0.8,1.1-1,1.5c-0.3,0.7-0.4,1.3-0.4,2c0,1.3,0.5,2.3,1.5,3.1c0.5,0.4,1.3,0.8,2.5,1.3
			c1.2,0.4,2.9,0.9,5.1,1.4c0.8,0.2,1.4,0.4,1.9,0.7c0.4,0.2,0.8,0.4,1.2,0.8c0.5,0.4,0.9,0.8,1.2,1.2c0.9,1.2,1.3,2.5,1.3,4
			s-0.4,2.9-1.3,4.2c-0.2,0.3-0.5,0.6-0.9,1l-0.3,0.3c-0.5,0.4-0.9,0.7-1.2,0.9c-0.4,0.2-1,0.5-1.6,0.7c-0.5,0.2-1.1,0.3-1.6,0.4
			c-0.2,0-0.5,0.1-0.9,0.1v2.4l0,0h-1.7l0,0v-2.4c0,0-0.1,0-0.4,0c-0.6-0.1-1.1-0.2-1.5-0.3c-0.5-0.1-0.9-0.3-1.4-0.6
			c-0.5-0.2-1-0.6-1.5-1c-0.2-0.2-0.6-0.5-1-0.9c-0.5-0.6-0.9-1.1-1.3-1.7c-0.2-0.4-0.4-0.8-0.6-1.1c0.9-0.4,1.4-0.7,1.6-0.7
			c0.2,0.4,0.4,0.9,0.8,1.4c0.2,0.3,0.5,0.7,0.9,1.1c0.5,0.5,0.9,0.8,1.2,1c1.3,0.8,2.7,1.2,4.2,1.2h0.1c1.5,0,2.8-0.4,4.1-1.2
			c0.3-0.2,0.6-0.4,1-0.8c0.3-0.4,0.6-0.8,0.8-1.1c0.5-0.9,0.8-1.8,0.8-2.8v-0.2c0-1.1-0.4-2.1-1.1-3.1c-0.4-0.4-0.6-0.6-0.8-0.7
			c-0.4-0.3-0.7-0.5-1-0.6c-0.5-0.2-1.1-0.4-1.7-0.5c-2.6-0.6-4.5-1.1-5.7-1.7c-0.6-0.2-1.2-0.5-1.8-0.9c-1.1-0.7-1.8-1.6-2.2-2.6
			c-0.2-0.6-0.4-1.4-0.4-2.1c0-1.7,0.6-3.2,1.8-4.6c0.4-0.5,0.8-0.8,1-1c0.5-0.3,0.9-0.6,1.4-0.8c0.4-0.2,0.8-0.3,1.4-0.5
			c0.4-0.1,0.8-0.2,1.3-0.2l0.1,0V301H1599.2z"/>
		<path style="&st8;" d="M1620.4,302.3c1.9,0,3.5,0.6,5,1.9c0.5,0.5,0.8,0.9,1,1.1c0.9,1.3,1.4,2.8,1.4,4.3c0,1.7-0.6,3.2-1.7,4.6
			c-0.4,0.5-0.8,0.8-1,1c-0.3,0.3-0.7,0.5-1,0.7v0c0.4,0.2,0.8,0.4,1.3,0.7c0.4,0.2,0.8,0.5,1.3,1c0.5,0.5,0.9,1,1.1,1.3
			c1.1,1.5,1.6,3.2,1.6,5v0c0,1.9-0.6,3.6-1.7,5.1c-0.2,0.3-0.5,0.6-0.9,1c-0.5,0.5-0.9,0.8-1.4,1.1c-1.5,1-3.2,1.5-5,1.5
			c-2.1,0-4.1-0.7-5.8-2.1c-0.6-0.5-1-1-1.3-1.3c-0.4-0.6-0.8-1-0.9-1.4c-0.6-1.3-1-2.5-1-3.8v-0.2c0-1.3,0.3-2.6,1-3.9
			c0.2-0.5,0.6-0.9,1-1.4c0.5-0.6,0.9-1,1.3-1.3c0.6-0.4,1-0.7,1.4-0.9c0.2-0.1,0.4-0.2,0.7-0.3l-0.4-0.3c-0.3-0.2-0.7-0.5-1.2-1
			c-0.3-0.4-0.6-0.7-0.9-1.1c-0.8-1.2-1.2-2.6-1.2-4c0-1.8,0.6-3.4,1.8-4.8c0.4-0.4,0.6-0.7,0.9-0.9
			C1617.1,302.9,1618.7,302.3,1620.4,302.3z M1613.2,324L1613.2,324c0,1.8,0.6,3.3,1.8,4.7c0.5,0.5,0.8,0.8,0.9,0.9
			c1.4,1,2.9,1.5,4.5,1.5c1.8,0,3.4-0.6,4.8-1.7c0.4-0.4,0.7-0.7,1-1c1-1.3,1.5-2.7,1.5-4.3c0-1.6-0.6-3.1-1.7-4.5
			c-0.4-0.5-0.8-0.8-0.9-0.9c-1.4-1.1-3-1.6-4.7-1.6c-1.5,0-2.9,0.4-4.2,1.3c-0.3,0.2-0.7,0.5-1.1,1c-0.6,0.6-1,1.3-1.3,2
			C1613.4,322.2,1613.2,323.1,1613.2,324z M1614.8,309.6c0,1.5,0.6,2.8,1.7,4c1.2,1.1,2.5,1.6,4,1.6c1.3,0,2.6-0.5,3.6-1.4
			c0.4-0.3,0.7-0.6,0.8-0.8c0.8-1,1.2-2.2,1.2-3.4v-0.2c0-1.1-0.3-2.1-1-3.1c-0.1-0.2-0.4-0.5-0.7-0.8c-0.5-0.5-0.9-0.8-1.4-1
			c-0.8-0.4-1.6-0.6-2.4-0.6h-0.2c-1.2,0-2.3,0.4-3.3,1.2c-0.4,0.4-0.8,0.7-1.1,1.1C1615.2,307.3,1614.8,308.4,1614.8,309.6z"/>
		<path style="&st8;" d="M1634.9,302.9h5.5l0,0V332l0,0h-1.7l0,0v-27.4h-3.7l0,0L1634.9,302.9L1634.9,302.9z"/>
		<path style="&st8;" d="M1659.4,302.4c2.5,0,4.8,0.9,7,2.8c1.2,1.1,1.9,2.1,2.3,2.8c1.7,2.7,2.5,5.7,2.5,9c0,4.1-1.3,7.6-3.8,10.7
			c-2.4,2.6-5.1,3.9-8.1,3.9c-3.1,0-5.8-1.4-8.2-4.1c-2.4-3-3.6-6.5-3.6-10.4v-0.1c0-4.3,1.4-8,4.2-11.1
			C1653.9,303.6,1656.5,302.4,1659.4,302.4z M1649.2,317c0,3.4,1,6.4,3,9.1c1.1,1.3,2,2.1,2.7,2.4c1.4,0.9,2.9,1.3,4.3,1.3h0.3
			c2.2,0,4.3-1,6.2-2.9c1.2-1.3,2.1-2.7,2.7-4.3c0.7-1.9,1.1-3.8,1.1-5.7c0-3.8-1.2-7.1-3.7-9.9c-2-2-4.1-2.9-6.4-2.9
			c-2.8,0-5.2,1.3-7.3,3.9C1650.2,310.6,1649.2,313.6,1649.2,317z"/>
		<path style="&st8;" d="M1683,302.5c2.2,3.9,3.3,8.7,3.3,14.2v1.5c0,3-0.3,5.9-1,8.7c-1.8,6.2-4.5,9.4-7.9,9.4h-0.4l-0.1-0.1v-1.6
			l0.1-0.1h0.1c0.7,0,1.2-0.1,1.6-0.2c1.1-0.5,2.2-1.5,3.1-3.1c1.9-3.6,2.9-8.4,2.9-14.4c0-3.7-0.5-7.1-1.6-10.2
			c-1.5-4.1-3.4-6.2-5.6-6.2h-0.5l-0.1,0v-1.6l0.1-0.1h0.7C1679.5,298.7,1681.3,300,1683,302.5z"/>
	</g>
</g>
</svg>
