<?xml version="1.0" encoding="utf-8"?>
<!-- Generator: Adobe Illustrator 26.0.0, SVG Export Plug-In . SVG Version: 6.00 Build 0)  -->
<!DOCTYPE svg PUBLIC "-//W3C//DTD SVG 1.1//EN" "http://www.w3.org/Graphics/SVG/1.1/DTD/svg11.dtd" [
	<!ENTITY st0 "fill:#141414;">
	<!ENTITY st1 "fill:#F4D3AB;">
	<!ENTITY st2 "fill:#FFCE85;">
	<!ENTITY st3 "fill:#684D1C;">
	<!ENTITY st4 "fill:#FD0060;">
	<!ENTITY st5 "fill:#770E38;">
	<!ENTITY st6 "fill:#FFFFFF;">
]>
<svg version="1.1" xmlns="http://www.w3.org/2000/svg" xmlns:xlink="http://www.w3.org/1999/xlink" x="0px" y="0px"
	 viewBox="0 0 1920 500" style="enable-background:new 0 0 1920 500;" xml:space="preserve">
<g id="Capa_1">
	<g id="Capa_3">
		<g>
			<rect x="0.5" y="0.5" style="&st0;" width="1919" height="499"/>
			<path style="&st0;" d="M1919,1v498H1V1H1919 M1920,0H0v500h1920V0L1920,0z"/>
		</g>
	</g>
	<g id="Capa_1_00000030473847187328671720000007098665602714387112_">
	</g>
	<g id="Capa_2_00000065774643762669088320000008126840712418867640_">
	</g>
</g>
<g id="Capa_2">
	<circle style="&st0;" cx="1854.2" cy="418.1" r="49.5"/>
	<g>
		<path style="&st1;" d="M1855.2,459.1c0,0,17.8-14.1,6.9-29.6c-9.9-12.5-22.9-15.7-16-27.1c3.1-4.5,7.2-9.2,7.2-9.2
			s-35.9,7.7-14,29.6c1,1,12.6,12.5,16.7,19.2C1859.9,449.4,1855.2,459.1,1855.2,459.1z"/>
		<path style="&st2;" d="M1876.3,410.9"/>
		<path style="&st2;" d="M1848.3,399.1"/>
		<path style="&st2;" d="M1837.5,413.2"/>
		<path style="&st2;" d="M1844.9,404.7"/>
		<path style="&st2;" d="M1845.9,407.5"/>
		<path style="&st3;" d="M1860.6,422.5c0,0-5.4-6.6-2.6-15c1.1-3.3,4.7-7.4,8.6-10.7c14.4-12.5-1.8-19.7-1.8-19.7s2.7,4.2-0.5,10.2
			c-5.6,7.4-5.9,7-11.2,12.5C1841.6,411.9,1860.6,422.5,1860.6,422.5z"/>
	</g>
	<rect x="0.5" style="&st4;" width="1919.5" height="22"/>
	<g>
		<g>
			<path style="&st4;" d="M60.9,207.1v13.3h30.2v21.1H60.9v13.6h36.7v23.7H36v-95.1h61.7v23.5H60.9z"/>
			<path style="&st4;" d="M96.6,262.6l15.3-15c4,5.8,11.3,9.4,19.3,9.4c5.4,0,10.6-1.9,10.6-5.8c0-4.9-9.7-9.2-19.1-13.3
				c-12-5.2-22.4-13.1-22.4-27.4c0-16.5,15.6-28.2,33.7-28.2c14.5,0,25.8,6.8,29.6,16.2l-14.6,14c-2.8-5-10.1-7.2-14.7-7.2
				c-5.2,0-8.9,2.7-8.9,5.9c0,4.4,6.7,5.8,17,10.1c14.9,6.3,24.7,15.3,24.7,29.4c0,18.1-16.9,29.4-35.9,29.4
				C115.6,280,101.3,273.1,96.6,262.6z"/>
			<path style="&st4;" d="M168.5,183.6h35.9c19.6,0,35.9,14.8,35.9,33.3c0,18.4-16,33.8-35.9,33.8h-10.7v28h-25.3V183.6z M216,217.1
				c0-5.8-4.8-10.1-11.6-10.1h-10.7v20.5l10.7,0.1C211.2,227.5,216,222.9,216,217.1z"/>
			<path style="&st4;" d="M265.9,207.1v13.3h30.2v21.1h-30.2v13.6h36.7v23.7H241v-95.1h61.7v23.5H265.9z"/>
			<path style="&st4;" d="M302.4,231.2c0-28.1,22.8-49.8,52.4-49.8c12.3,0.2,25.4,5.5,35.2,14.4l-14.5,18.6
				c-5.8-5.3-13.6-8.8-20.6-8.8c-14.6,0-26.8,11.2-26.8,25.7c0,14.8,12.7,25.6,26.3,25.6c8,0,15.1-3.8,21.2-9.3l14.4,19.2
				c-9.1,8.3-21.2,14-35.6,14C327.5,280.9,302.4,261,302.4,231.2z"/>
			<path style="&st4;" d="M390.5,183.6h25.3v95.1h-25.3V183.6z"/>
			<path style="&st4;" d="M483.1,267.7h-35.5l-4.8,11.1h-27.6l44.2-96.3h12l44.3,96.3h-27.7L483.1,267.7z M475.1,249.2l-9.7-22.5
				l-9.8,22.5H475.1z"/>
			<path style="&st4;" d="M576.6,255v23.7h-61.7v-95.1h25.3V255H576.6z"/>
			<path style="&st4;" d="M602.1,207.1v13.3h30.2v21.1h-30.2v13.6h36.7v23.7h-61.7v-95.1h61.7v23.5H602.1z"/>
			<path style="&st4;" d="M637.7,262.6l15.3-15c4,5.8,11.3,9.4,19.3,9.4c5.4,0,10.6-1.9,10.6-5.8c0-4.9-9.7-9.2-19.1-13.3
				c-12-5.2-22.4-13.1-22.4-27.4c0-16.5,15.6-28.2,33.7-28.2c14.5,0,25.8,6.8,29.6,16.2l-14.6,14c-2.8-5-10.1-7.2-14.7-7.2
				c-5.2,0-8.9,2.7-8.9,5.9c0,4.4,6.7,5.8,17,10.1c14.9,6.3,24.7,15.3,24.7,29.4c0,18.1-16.9,29.4-35.9,29.4
				C656.7,280,642.5,273.1,637.7,262.6z"/>
		</g>
	</g>
	<rect x="0.5" y="478" style="&st4;" width="1919.5" height="22"/>
	<g>
		<path style="&st5;" d="M984.1,131.4h0.4c5.2,0,9.8,2.1,14,6.3c1.8,2.2,3,3.9,3.4,5c-2.4,1.3-3.7,1.9-3.8,1.9
			c-0.5-1-1.2-2.1-2.1-3.2c-3.4-3.8-7.3-5.8-11.7-5.8h-0.2c-4.6,0-8.6,2.1-12,6.2c-2.6,3.6-4,7.5-4,11.7v0.3c0,5,1.7,9.3,5.1,13.1
			c3.2,3.2,6.8,4.8,10.9,4.8c4.5,0,8.4-2,11.9-5.9c0.8-1.1,1.5-2.2,2-3.1l3.7,2c-0.5,1.2-1.7,3-3.7,5.3c-4.1,4-8.8,6.1-14,6.1
			c-5.6,0-10.5-2.3-14.8-7c-3.6-4.5-5.5-9.6-5.5-15.1v-0.3c0-6.1,2.1-11.5,6.4-16.1C974.5,133.5,979.1,131.4,984.1,131.4z"/>
		<path style="&st5;" d="M1019.7,134.2h4.2v0l-15.6,43.4h-4.3L1019.7,134.2L1019.7,134.2z"/>
		<path style="&st5;" d="M1029.8,131.4h4.1l0.1,0.1v28.5c0,4.8,1.7,8.3,5.1,10.5c1.5,0.8,3,1.2,4.4,1.2h4.2c3.1,0,5.6-1.4,7.6-4.3
			c1.3-2.1,2-4.7,2-7.9v-28.1l0.1-0.1h4.1l0.1,0.1v28.1c0,6.6-2.3,11.4-7,14.5c-2.2,1.3-4.4,1.9-6.7,1.9h-4.4
			c-3.4,0-6.5-1.3-9.2-3.9c-3-3.2-4.5-7.2-4.5-12L1029.8,131.4L1029.8,131.4z"/>
		<path style="&st5;" d="M1075.6,147.1c0.9,0,1.6,0.3,2.3,1c0.5,0.6,0.8,1.2,0.8,1.9v0.2c0,0.8-0.3,1.5-1,2.2
			c-0.6,0.5-1.3,0.8-2,0.8h0c-1,0-1.9-0.5-2.6-1.4c-0.3-0.5-0.5-1.1-0.5-1.5V150c0-0.8,0.3-1.5,1-2.2
			C1074.1,147.4,1074.8,147.1,1075.6,147.1z M1075.5,170L1075.5,170c0.9,0,1.7,0.4,2.3,1.1c0.5,0.6,0.7,1.2,0.7,1.9v0.2
			c0,0.9-0.4,1.6-1.1,2.3c-0.6,0.5-1.2,0.7-2,0.7c-0.8,0-1.5-0.3-2.1-0.9c-0.6-0.6-0.9-1.3-0.9-2.1v-0.2c0-0.8,0.3-1.5,1-2.1
			C1074.1,170.2,1074.8,170,1075.5,170z"/>
		<path style="&st4;" d="M938.8,214.2h6.4l0,0v4.5c2,0.2,3.7,0.7,5.3,1.3c2.1,0.8,4.1,2.1,6,3.8c1.1,1.1,1.8,1.9,2.1,2.3
			c0.8,1.1,1.4,1.9,1.6,2.4c-2.8,1.4-4.7,2.4-5.7,2.9l-0.6-1c-0.4-0.5-0.8-1-1.4-1.6c-2.7-2.6-5.9-3.9-9.5-3.9h-0.3
			c-3,0-5.6,0.7-7.9,2.2c-1.9,1.2-3.2,3-3.9,5.2c-0.3,0.9-0.4,1.8-0.4,2.7v0c0,2.1,0.7,3.8,2.2,4.9c1,0.8,2,1.4,3,1.8
			c2.6,1.2,6.9,2.5,13,3.7c1.6,0.4,3,0.9,4.1,1.4c1,0.5,2.1,1.1,3.2,1.9c0.5,0.4,1,0.9,1.7,1.6c1,1.1,1.6,2,2,2.7
			c1.4,2.3,2.1,4.9,2.1,7.7c0,4-1.3,7.6-3.9,10.8c-0.9,0.9-1.6,1.6-2.1,2.1c-1.1,0.9-2.1,1.5-2.9,1.9c-0.8,0.4-1.9,0.9-3.2,1.3
			c-0.9,0.3-2,0.6-3.6,0.9l-0.8,0.1v4.5l0,0h-6.4l0,0V278c-1.2-0.2-2.3-0.5-3.2-0.7c-1.5-0.5-2.8-1.1-3.9-1.7
			c-1-0.6-2.2-1.4-3.4-2.3c-1.1-1-2-1.9-2.6-2.7c-1.3-1.6-2.2-3-2.7-4c-0.3-0.6-0.5-1-0.5-1.1l5.8-2.7c0.5,1.2,1.2,2.4,2.1,3.6
			c1,1.2,1.9,2,2.5,2.5c1.2,0.9,2.2,1.5,3.1,1.8c2,0.9,4,1.3,6,1.3h0.4c3,0,5.7-0.8,8.3-2.5c0.5-0.3,1.1-0.8,1.8-1.5
			c0.9-1.1,1.4-1.9,1.7-2.6c0.6-1.4,1-2.9,1-4.3c0-2.9-1.2-5.2-3.6-7c-0.7-0.5-1.3-0.8-1.8-1.1c-0.7-0.3-1.5-0.6-2.4-0.9l-5.9-1.4
			c-3.8-0.9-6.8-2-9.2-3.1c-0.9-0.5-2-1.1-3.2-1.8c-0.6-0.5-1.3-1.1-2-1.8c-2.2-2.4-3.3-5.2-3.3-8.5v-0.6c0-2.6,0.7-5.2,2.2-7.8
			c0.4-0.8,1.1-1.6,2-2.7c1.1-1.1,1.9-1.8,2.4-2.1c0.9-0.6,1.8-1.2,2.8-1.7c0.6-0.3,1.4-0.6,2.5-1c1.6-0.5,2.6-0.7,2.9-0.7
			L938.8,214.2L938.8,214.2z"/>
		<path style="&st4;" d="M992.4,216.8h0.7c3.4,0,6.7,0.9,10,2.6c1.1,0.6,2.3,1.3,3.5,2.3c1.4,1.2,2.5,2.3,3.4,3.4
			c1.1,1.4,1.9,2.6,2.3,3.6c0.6,1,1.1,2.3,1.6,3.9c0.6,2.2,1,4.2,1,6.2v0.6c0,3.8-1.1,7.6-3.2,11.2l-6.6,11.4l-11.5,19.7l-0.5,0.7
			c-3.6-2.1-5.4-3.2-5.5-3.2l10.1-17.4l0.7-1.1v0h0c-1.9,0.5-3.8,0.7-5.7,0.7c-4.8,0-9.2-1.5-13.3-4.5c-0.7-0.5-1.4-1.2-2.3-2
			c-1.4-1.5-2.4-2.7-2.9-3.7c-0.7-1.1-1.3-2.2-1.7-3.2c-1.2-2.9-1.9-5.8-1.9-8.6v-0.8c0-3.2,0.8-6.5,2.4-9.8
			c0.6-1.1,1.4-2.3,2.3-3.6c0.5-0.6,1.1-1.3,1.8-2.1c1.4-1.3,2.4-2.2,3.1-2.6c1.1-0.8,2.3-1.4,3.4-2
			C986.6,217.5,989.5,216.8,992.4,216.8z M977.1,239.1v0.2c0,3.6,1.2,7,3.6,10c0.8,1,1.7,1.8,2.6,2.5c2.9,2.2,6.1,3.3,9.6,3.3
			c3.7,0,7.1-1.3,10.2-3.8c0.9-0.8,1.4-1.4,1.8-1.8c2.5-3.1,3.7-6.5,3.7-10.3v0c0-3.8-1.3-7.3-3.8-10.4c-0.8-0.9-1.5-1.6-2.1-2.1
			c-2.9-2.3-6.2-3.4-9.7-3.4h-0.1c-3.7,0-7.1,1.3-10.1,3.8c-1,0.9-1.6,1.6-1.9,2C978.3,232,977.1,235.4,977.1,239.1z"/>
		<path style="&st4;" d="M1041.9,216.9c6.2,0,11,2.5,14.5,7.5c1.1,1.6,2,3.4,2.6,5.4c0.7,2.1,1.1,4.2,1.1,6.4c0,3.2-0.7,6.1-2.2,8.7
			l-11.3,13.1l-12.1,13.9l-2,2.4h27.6v6.4h-35.7l0,0V274c0-0.1,0.2-0.2,0.5-0.5l11.5-13.3l10.9-12.6l5.5-6.4c0.7-1.5,1.1-3.2,1.1-5
			c0-3-0.9-5.8-2.7-8.4c-2.2-3-5.2-4.5-8.9-4.5h-0.4c-5.2,0-8.8,2.5-10.7,7.4c-0.3,0.9-0.6,2-0.9,3.5c-0.2,1-0.2,1.7-0.2,2.2h-6.4
			v-0.2c0-2,0.4-4.4,1.3-7.1c0.6-1.7,1.3-3.2,2.1-4.4c0.5-0.8,1.1-1.6,2-2.5C1032.2,218.7,1036.5,216.9,1041.9,216.9z"/>
		<path style="&st4;" d="M1095.1,217.1h0.4c6.3,0,12,2.6,17.1,7.9c5.8,6.6,8.7,14.5,8.7,23.5c0,9.1-2.9,16.9-8.7,23.6
			c-5.1,5.3-10.9,7.9-17.3,7.9c-7.2,0-13.4-3.2-18.7-9.6c-4.8-6.3-7.3-13.5-7.3-21.6v-0.6c0-8.2,2.5-15.5,7.5-21.9
			C1082.2,220.2,1088.3,217.1,1095.1,217.1z M1075.7,248.4v0.5c0,6.5,1.9,12.4,5.9,17.6c4,4.8,8.6,7.2,13.8,7.2
			c5.5,0,10.3-2.8,14.5-8.3c3.4-5.1,5.1-10.7,5.1-16.9c0-6.3-1.8-12-5.3-17.1c-4.1-5.4-8.9-8-14.4-8h0c-5.5,0-10.3,2.7-14.4,8.2
			C1077.4,236.7,1075.7,242.3,1075.7,248.4z"/>
	</g>
	<g>
		<path style="&st5;" d="M1284.5,133.6c2.8,0,5.3,0.9,7.6,2.8c0.7,0.6,1.1,1.1,1.3,1.4c0.6,0.8,1.1,1.5,1.3,2
			c0.9,1.7,1.3,3.4,1.3,5.2v0.1c0,2.7-0.9,5.2-2.7,7.4c-0.7,0.7-1.2,1.3-1.6,1.6c-0.2,0.2-0.4,0.3-0.4,0.3c0.4,0.2,1,0.7,1.7,1.3
			c0.6,0.6,1.1,1.1,1.4,1.6c1.8,2.4,2.7,4.9,2.7,7.8c0,3-1,5.7-2.9,8.1c-0.3,0.3-0.8,0.8-1.3,1.3c-0.8,0.7-1.5,1.2-2,1.5
			c-2.1,1.2-4.2,1.8-6.5,1.8h-0.4c-2,0-4-0.5-5.9-1.5c-0.7-0.4-1.4-0.9-2.2-1.5c-0.8-0.7-1.4-1.3-1.7-1.7c-0.5-0.6-0.8-1.1-1.1-1.6
			c-0.3-0.5-0.6-1.2-1-2c-0.5-1.5-0.8-2.9-0.8-4.2v-0.2l0,0h4.2l0,0v0c0,1.9,0.7,3.7,2,5.3c0.5,0.6,0.9,1,1.2,1.2
			c1.6,1.3,3.4,1.9,5.4,1.9h0c2,0,3.9-0.7,5.5-2c0.6-0.6,1.1-1,1.3-1.3c1.2-1.6,1.8-3.3,1.8-5.2c0-1.9-0.6-3.7-1.9-5.3
			c-0.5-0.6-1-1-1.3-1.3c-0.5-0.4-1-0.7-1.4-0.9c-1.3-0.6-2.6-0.9-3.8-0.9h-3.1l0,0v-4.2l0,0h3.8c0.7-0.1,1.3-0.2,1.9-0.4
			c0.7-0.2,1.3-0.5,1.9-0.9c0.3-0.2,0.7-0.5,1.2-1c0.6-0.7,0.9-1.3,1.1-1.7c0.5-1,0.7-2.1,0.7-3.2c0-1.8-0.6-3.4-1.9-4.9
			c-0.6-0.6-1-0.9-1.2-1c-1.3-0.9-2.6-1.3-4.1-1.3h-0.1c-1.6,0-3.1,0.6-4.5,1.7c-1.7,1.5-2.6,3.4-2.6,5.8v0.1l0,0h-4.2v-0.3
			c0-2.4,0.7-4.7,2.2-6.8c0.2-0.3,0.7-0.9,1.3-1.5c0.6-0.5,1.1-0.9,1.5-1.2C1280.1,134.2,1282.2,133.6,1284.5,133.6z"/>
		<path style="&st5;" d="M1316.2,133.8h4.2v0l-15.6,43.4h-4.3L1316.2,133.8L1316.2,133.8z"/>
		<path style="&st5;" d="M1326.4,131.1h4.1l0.1,0.1v28.5c0,4.8,1.7,8.3,5.1,10.5c1.5,0.8,3,1.2,4.4,1.2h4.2c3.1,0,5.6-1.4,7.6-4.3
			c1.3-2.1,2-4.7,2-7.9v-28.1l0.1-0.1h4.1l0.1,0.1v28.1c0,6.6-2.3,11.4-7,14.5c-2.2,1.3-4.4,1.9-6.7,1.9h-4.4
			c-3.4,0-6.5-1.3-9.2-3.9c-3-3.2-4.5-7.2-4.5-12L1326.4,131.1L1326.4,131.1z"/>
		<path style="&st5;" d="M1372.1,146.8c0.9,0,1.6,0.3,2.3,1c0.5,0.6,0.8,1.2,0.8,1.9v0.2c0,0.8-0.3,1.5-1,2.2
			c-0.6,0.5-1.3,0.8-2,0.8h0c-1,0-1.9-0.5-2.6-1.4c-0.3-0.5-0.5-1.1-0.5-1.5v-0.2c0-0.8,0.3-1.5,1-2.2
			C1370.7,147,1371.3,146.8,1372.1,146.8z M1372.1,169.6L1372.1,169.6c0.9,0,1.7,0.4,2.3,1.1c0.5,0.6,0.7,1.2,0.7,1.9v0.2
			c0,0.9-0.4,1.6-1.1,2.3c-0.6,0.5-1.2,0.7-2,0.7c-0.8,0-1.5-0.3-2.1-0.9c-0.6-0.6-0.9-1.3-0.9-2.1v-0.2c0-0.8,0.3-1.5,1-2.1
			C1370.6,169.9,1371.3,169.6,1372.1,169.6z"/>
		<path style="&st4;" d="M1221.5,213.9h6.4l0,0v4.5c2,0.2,3.7,0.7,5.3,1.3c2.1,0.8,4.1,2.1,6,3.8c1.1,1.1,1.8,1.9,2.1,2.3
			c0.8,1.1,1.4,1.9,1.6,2.4c-2.8,1.4-4.7,2.4-5.7,2.9l-0.6-1c-0.4-0.5-0.8-1-1.4-1.6c-2.7-2.6-5.9-3.9-9.5-3.9h-0.3
			c-3,0-5.6,0.7-7.9,2.2c-1.9,1.2-3.2,3-3.9,5.2c-0.3,0.9-0.4,1.8-0.4,2.7v0c0,2.1,0.7,3.8,2.2,4.9c1,0.8,2,1.4,3,1.8
			c2.6,1.2,6.9,2.5,13,3.7c1.6,0.4,3,0.9,4.1,1.4c1,0.5,2.1,1.1,3.2,1.9c0.5,0.4,1,0.9,1.7,1.6c1,1.1,1.6,2,2,2.7
			c1.4,2.3,2.1,4.9,2.1,7.7c0,4-1.3,7.6-3.9,10.8c-0.9,0.9-1.6,1.6-2.1,2.1c-1.1,0.9-2.1,1.5-2.9,1.9c-0.8,0.4-1.9,0.9-3.2,1.3
			c-0.9,0.3-2,0.6-3.6,0.9l-0.8,0.1v4.5l0,0h-6.4l0,0v-4.6c-1.2-0.2-2.3-0.5-3.2-0.7c-1.5-0.5-2.8-1.1-3.9-1.7
			c-1-0.6-2.2-1.4-3.4-2.3c-1.1-1-2-1.9-2.6-2.7c-1.3-1.6-2.2-3-2.7-4c-0.3-0.6-0.5-1-0.5-1.1l5.8-2.7c0.5,1.2,1.2,2.4,2.1,3.6
			c1,1.2,1.9,2,2.5,2.5c1.2,0.9,2.2,1.5,3.1,1.8c2,0.9,4,1.3,6,1.3h0.4c3,0,5.7-0.8,8.3-2.5c0.5-0.3,1.1-0.8,1.8-1.5
			c0.9-1.1,1.4-1.9,1.7-2.6c0.6-1.4,1-2.9,1-4.3c0-2.9-1.2-5.2-3.6-7c-0.7-0.5-1.3-0.8-1.8-1.1c-0.7-0.3-1.5-0.6-2.4-0.9l-5.9-1.4
			c-3.8-0.9-6.8-2-9.2-3.1c-0.9-0.5-2-1.1-3.2-1.8c-0.6-0.5-1.3-1.1-2-1.8c-2.2-2.4-3.3-5.2-3.3-8.5v-0.6c0-2.6,0.7-5.2,2.2-7.8
			c0.4-0.8,1.1-1.6,2-2.7c1.1-1.1,1.9-1.8,2.4-2.1c0.9-0.6,1.8-1.2,2.8-1.7c0.6-0.3,1.4-0.6,2.5-1c1.6-0.5,2.6-0.7,2.9-0.7
			L1221.5,213.9L1221.5,213.9z"/>
		<path style="&st4;" d="M1272,216.5c6.2,0,11,2.5,14.5,7.5c1.1,1.6,2,3.4,2.6,5.4c0.7,2.1,1.1,4.2,1.1,6.4c0,3.2-0.7,6.1-2.2,8.7
			l-11.3,13.1l-12.1,13.9l-2,2.4h27.6v6.4h-35.7l0,0v-6.7c0-0.1,0.2-0.2,0.5-0.5l11.5-13.3l10.9-12.6l5.5-6.4c0.7-1.5,1.1-3.2,1.1-5
			c0-3-0.9-5.8-2.7-8.4c-2.2-3-5.2-4.5-8.9-4.5h-0.4c-5.2,0-8.8,2.5-10.7,7.4c-0.3,0.9-0.6,2-0.9,3.5c-0.2,1-0.2,1.7-0.2,2.2h-6.4
			v-0.2c0-2,0.4-4.4,1.3-7.1c0.6-1.7,1.3-3.2,2.1-4.4c0.5-0.8,1.1-1.6,2-2.5C1262.3,218.3,1266.7,216.5,1272,216.5z"/>
		<path style="&st4;" d="M1297.2,217.7h38l0,0v6l-7.7,14.4l-10.5,19.8l-9.5,18l-2.7,5.2h0c-0.1,0-2-1-5.6-3l11.4-21.7l8.6-16.2
			c0,0,2.3-4.3,6.9-13c1-1.9,1.6-3,1.6-3.2h-30.6l0,0L1297.2,217.7L1297.2,217.7z"/>
		<path style="&st4;" d="M1361.7,216.5c4.2,0,8,1.4,11.3,4.3c1,0.9,1.7,1.6,2,2.1c0.9,1.2,1.6,2.2,2,3c1.3,2.5,1.9,5.1,1.9,7.9v0.2
			c0,4.1-1.4,7.8-4.1,11.2c-1,1.1-1.8,1.9-2.4,2.4c-0.4,0.3-0.6,0.4-0.6,0.5c0.6,0.4,1.4,1,2.6,2c0.9,0.9,1.7,1.7,2.1,2.3
			c2.7,3.5,4,7.4,4,11.7c0,4.4-1.4,8.5-4.3,12.2c-0.5,0.5-1.1,1.2-2,2c-1.2,1-2.2,1.8-3,2.2c-3.1,1.8-6.4,2.7-9.7,2.7h-0.6
			c-3,0-6-0.8-8.9-2.3c-1-0.6-2.1-1.3-3.3-2.3c-1.2-1.1-2-1.9-2.5-2.6c-0.7-0.9-1.2-1.7-1.6-2.4c-0.5-0.8-0.9-1.8-1.5-3.1
			c-0.8-2.2-1.1-4.3-1.1-6.3V264l0,0h6.3l0,0v0c0,2.9,1,5.6,2.9,8c0.8,0.9,1.4,1.5,1.9,1.8c2.4,1.9,5.1,2.8,8.1,2.8h0
			c3,0,5.8-1,8.3-3c1-0.9,1.6-1.5,2-2c1.8-2.4,2.7-5,2.7-7.8c0-2.9-1-5.6-2.9-8c-0.8-0.9-1.5-1.6-2-2c-0.8-0.6-1.5-1-2.1-1.4
			c-1.9-0.9-3.8-1.4-5.8-1.4h-4.7l0,0v-6.3l0,0h5.7c1.1-0.1,2-0.3,2.8-0.5c1-0.3,1.9-0.8,2.8-1.4c0.5-0.3,1.1-0.8,1.8-1.6
			c0.9-1.1,1.4-1.9,1.7-2.6c0.7-1.5,1.1-3.1,1.1-4.8c0-2.7-0.9-5.2-2.8-7.4c-0.9-0.9-1.5-1.4-1.8-1.6c-1.9-1.3-3.9-2-6.2-2h-0.1
			c-2.5,0-4.7,0.8-6.8,2.5c-2.6,2.3-3.9,5.2-3.9,8.6v0.1l0,0h-6.4v-0.5c0-3.7,1.1-7.1,3.3-10.2c0.4-0.5,1-1.3,2-2.3
			c0.9-0.8,1.6-1.4,2.2-1.8C1355.1,217.5,1358.3,216.5,1361.7,216.5z"/>
		<path style="&st4;" d="M1416.3,216.8h0.4c6.3,0,12,2.6,17.1,7.9c5.8,6.6,8.7,14.5,8.7,23.5c0,9.1-2.9,16.9-8.7,23.6
			c-5.1,5.3-10.9,7.9-17.3,7.9c-7.2,0-13.4-3.2-18.7-9.6c-4.8-6.3-7.3-13.5-7.3-21.6v-0.6c0-8.2,2.5-15.5,7.5-21.9
			C1403.4,219.9,1409.5,216.8,1416.3,216.8z M1396.9,248v0.5c0,6.5,1.9,12.4,5.8,17.6c4,4.8,8.6,7.2,13.8,7.2
			c5.5,0,10.3-2.8,14.5-8.3c3.4-5.1,5.1-10.7,5.1-16.9c0-6.3-1.8-12-5.3-17.1c-4.1-5.4-8.9-8-14.4-8h0c-5.5,0-10.3,2.7-14.4,8.2
			C1398.6,236.4,1396.9,241.9,1396.9,248z"/>
	</g>
	<g>
		<path style="&st5;" d="M1603.9,134l3.7,2.1l-7.5,12.9c1.2-0.3,2.5-0.5,3.7-0.5h0.2c2.9,0,5.6,0.8,8.1,2.5c0.6,0.4,1.2,0.9,2,1.6
			c0.7,0.7,1.2,1.3,1.6,1.8c0.6,0.8,1,1.5,1.3,2.1c1.1,2.2,1.6,4.4,1.6,6.7v0.4c0,2.5-0.6,4.9-1.9,7.2c-0.4,0.6-0.9,1.4-1.5,2.1
			c-0.3,0.3-0.7,0.9-1.4,1.5c-1.4,1.2-2.9,2.1-4.4,2.8c-1.7,0.7-3.6,1-5.5,1c-3.2,0-6.1-1-8.8-3c-0.4-0.3-1-0.9-1.7-1.6
			c-0.9-1-1.5-1.7-1.9-2.4c-0.6-1-1.1-1.9-1.4-2.9c-0.6-1.7-0.9-3.3-0.9-4.9v-0.5c0-2.2,0.5-4.3,1.6-6.5c0.3-0.5,1.2-2.2,3-5.1
			l7.9-13.5L1603.9,134z M1593.4,163.3v0.1c0,2.3,0.7,4.4,2.1,6.3c0.2,0.3,0.7,0.8,1.3,1.4c2.1,1.8,4.4,2.8,7,2.8
			c2.6,0,4.9-0.9,7-2.7c0.7-0.7,1.1-1.2,1.3-1.4c1.5-2,2.2-4.1,2.2-6.5c0-2.8-1-5.3-3-7.5c-0.6-0.6-1-1-1.4-1.2
			c-1.8-1.3-3.8-1.9-6-1.9c-2.6,0-4.9,0.9-6.9,2.7c-0.6,0.6-1,1-1.2,1.3C1594.2,158.7,1593.4,160.9,1593.4,163.3z"/>
		<path style="&st5;" d="M1637.1,134.1h4.2v0l-15.6,43.4h-4.3L1637.1,134.1L1637.1,134.1z"/>
		<path style="&st5;" d="M1647.3,131.4h4.1l0.1,0.1V160c0,4.8,1.7,8.3,5.1,10.5c1.5,0.8,3,1.2,4.4,1.2h4.2c3.1,0,5.6-1.4,7.6-4.3
			c1.3-2.1,2-4.7,2-7.9v-28.1l0.1-0.1h4.1l0.1,0.1v28.1c0,6.6-2.3,11.4-7,14.5c-2.2,1.3-4.4,1.9-6.7,1.9h-4.4
			c-3.4,0-6.5-1.3-9.2-3.9c-3-3.2-4.5-7.2-4.5-12L1647.3,131.4L1647.3,131.4z"/>
		<path style="&st5;" d="M1693.1,147.1c0.9,0,1.6,0.3,2.3,1c0.5,0.6,0.8,1.2,0.8,1.9v0.2c0,0.8-0.3,1.5-1,2.2
			c-0.6,0.5-1.3,0.8-2,0.8h0c-1,0-1.9-0.5-2.6-1.4c-0.3-0.5-0.5-1.1-0.5-1.5V150c0-0.8,0.3-1.5,1-2.2
			C1691.6,147.3,1692.3,147.1,1693.1,147.1z M1693,169.9L1693,169.9c0.9,0,1.7,0.4,2.3,1.1c0.5,0.6,0.7,1.2,0.7,1.9v0.2
			c0,0.9-0.4,1.6-1.1,2.3c-0.6,0.5-1.2,0.7-2,0.7c-0.8,0-1.5-0.3-2.1-0.9c-0.6-0.6-0.9-1.3-0.9-2.1v-0.2c0-0.8,0.3-1.5,1-2.1
			C1691.6,170.2,1692.3,169.9,1693,169.9z"/>
		<path style="&st4;" d="M1529.1,214.2h6.4l0,0v4.5c2,0.2,3.7,0.7,5.3,1.3c2.1,0.8,4.1,2.1,6,3.8c1.1,1.1,1.8,1.9,2.1,2.3
			c0.8,1.1,1.4,1.9,1.6,2.4c-2.8,1.4-4.7,2.4-5.7,2.9l-0.6-1c-0.4-0.5-0.8-1-1.4-1.6c-2.7-2.6-5.9-3.9-9.5-3.9h-0.3
			c-3,0-5.6,0.7-7.9,2.2c-1.9,1.2-3.2,3-3.9,5.2c-0.3,0.9-0.4,1.8-0.4,2.7v0c0,2.1,0.7,3.8,2.2,4.9c1,0.8,2,1.4,3,1.8
			c2.6,1.2,6.9,2.5,13,3.7c1.6,0.4,3,0.9,4.1,1.4c1,0.5,2.1,1.1,3.2,1.9c0.5,0.4,1,0.9,1.7,1.6c1,1.1,1.6,2,2,2.7
			c1.4,2.3,2.1,4.9,2.1,7.7c0,4-1.3,7.6-3.9,10.8c-0.9,0.9-1.6,1.6-2.1,2.1c-1.1,0.9-2.1,1.5-2.9,1.9c-0.8,0.4-1.9,0.9-3.2,1.3
			c-0.9,0.3-2,0.6-3.6,0.9l-0.8,0.1v4.5l0,0h-6.4l0,0V278c-1.2-0.2-2.3-0.5-3.2-0.7c-1.5-0.5-2.8-1.1-3.9-1.7
			c-1-0.6-2.2-1.4-3.4-2.3c-1.1-1-2-1.9-2.6-2.7c-1.3-1.6-2.2-3-2.7-4c-0.3-0.6-0.5-1-0.5-1.1l5.8-2.7c0.5,1.2,1.2,2.4,2.1,3.6
			c1,1.2,1.9,2,2.5,2.5c1.2,0.9,2.2,1.5,3.1,1.8c2,0.9,4,1.3,6,1.3h0.4c3,0,5.7-0.8,8.3-2.5c0.5-0.3,1.1-0.8,1.8-1.5
			c0.9-1.1,1.4-1.9,1.7-2.6c0.6-1.4,1-2.9,1-4.3c0-2.9-1.2-5.2-3.6-7c-0.7-0.5-1.3-0.8-1.8-1.1c-0.7-0.3-1.5-0.6-2.4-0.9l-5.9-1.4
			c-3.8-0.9-6.8-2-9.2-3.1c-0.9-0.5-2-1.1-3.2-1.8c-0.6-0.5-1.3-1.1-2-1.8c-2.2-2.4-3.3-5.2-3.3-8.5v-0.6c0-2.6,0.7-5.2,2.2-7.8
			c0.4-0.8,1.1-1.6,2-2.7c1.1-1.1,1.9-1.8,2.4-2.1c0.9-0.6,1.8-1.2,2.8-1.7c0.6-0.3,1.4-0.6,2.5-1c1.6-0.5,2.6-0.7,2.9-0.7
			L1529.1,214.2L1529.1,214.2z"/>
		<path style="&st4;" d="M1599.5,218L1599.5,218l0,6.4h-19.7l-0.5,2l-3.1,11.9h0c1.7-0.4,3.4-0.5,5.1-0.5c4.8,0,9.2,1.4,13.2,4.2
			c0.7,0.5,1.7,1.3,2.9,2.4c1.2,1.2,2.1,2.3,2.6,3.1c2.7,4,4.1,8.3,4.1,13.1c0,4.8-1.4,9.3-4.3,13.3c-0.5,0.8-1.4,1.7-2.4,2.8
			c-1.3,1.2-2.3,2.1-3.2,2.7c-1.5,1-2.8,1.7-3.9,2.1c-3,1.2-5.9,1.9-8.7,1.9h-0.9c-2.7,0-5.4-0.6-8.3-1.7c-1.2-0.5-2.5-1.2-3.8-2
			c-0.9-0.5-2-1.4-3.3-2.6c-1.3-1.3-2.1-2.3-2.5-2.9c-0.8-1-1.4-2-1.8-2.9c-0.4-0.7-0.6-1.2-0.7-1.4l5.8-2.6c0.5,1,1.1,2.1,1.8,3.1
			c0.4,0.5,1.1,1.2,1.9,2.1c1.2,1.1,2.2,1.9,3.2,2.4c2.6,1.5,5.3,2.2,8,2.2h0.3c3.4,0,6.6-1.1,9.6-3.2c0.5-0.4,1.2-1,2.2-2l0.9-1.1
			c0.7-1,1.3-1.8,1.6-2.6c1.3-2.5,1.9-5,1.9-7.6c0-4-1.3-7.6-4-10.8c-0.7-0.8-1.3-1.4-1.8-1.8c-3.2-2.6-6.7-3.9-10.6-3.9
			c-3.1,0-6.1,0.9-8.9,2.6l-5.8,3.3l4.6-18.1l3.6-13.8v0H1599.5z"/>
		<path style="&st4;" d="M1646.3,218L1646.3,218l0,45.4h5.1v6.4l0,0h-5v10.6l0,0h-6.3l0,0v-10.6h-29.7l9.8-17.3l11-19.4l7.2-12.8
			l1.3-2.3H1646.3z M1640,230.3l-9.1,16.1l-9.6,17h18.7V230.3z"/>
		<path style="&st4;" d="M1685.9,217.1h0.4c6.3,0,12,2.6,17.1,7.9c5.8,6.6,8.7,14.5,8.7,23.5c0,9.1-2.9,16.9-8.7,23.6
			c-5.1,5.3-10.9,7.9-17.3,7.9c-7.2,0-13.4-3.2-18.7-9.6c-4.8-6.3-7.3-13.5-7.3-21.6v-0.6c0-8.2,2.5-15.5,7.5-21.9
			C1673,220.2,1679.1,217.1,1685.9,217.1z M1666.5,248.3v0.5c0,6.5,1.9,12.4,5.8,17.6c4,4.8,8.6,7.2,13.8,7.2
			c5.5,0,10.3-2.8,14.5-8.3c3.4-5.1,5.1-10.7,5.1-16.9c0-6.3-1.8-12-5.3-17.1c-4.1-5.4-8.9-8-14.4-8h0c-5.5,0-10.3,2.7-14.4,8.2
			C1668.2,236.7,1666.5,242.2,1666.5,248.3z"/>
		<path style="&st4;" d="M1747.5,217.1h0.4c6.3,0,12,2.6,17.1,7.9c5.8,6.6,8.7,14.5,8.7,23.5c0,9.1-2.9,16.9-8.7,23.6
			c-5.1,5.3-10.9,7.9-17.3,7.9c-7.2,0-13.4-3.2-18.7-9.6c-4.8-6.3-7.3-13.5-7.3-21.6v-0.6c0-8.2,2.5-15.5,7.5-21.9
			C1734.6,220.2,1740.7,217.1,1747.5,217.1z M1728.1,248.3v0.5c0,6.5,1.9,12.4,5.8,17.6c4,4.8,8.6,7.2,13.8,7.2
			c5.5,0,10.3-2.8,14.5-8.3c3.4-5.1,5.1-10.7,5.1-16.9c0-6.3-1.8-12-5.3-17.1c-4.1-5.4-8.9-8-14.4-8h0c-5.5,0-10.3,2.7-14.4,8.2
			C1729.8,236.7,1728.1,242.2,1728.1,248.3z"/>
	</g>
	<g>
		<path style="&st6;" d="M1281.7,299.8h0.7l0.1,0.1v1.6l-0.1,0h-0.5c-2.2,0-4,2.1-5.5,6.2c-1.1,3.1-1.6,6.5-1.6,10.2
			c0,6,1,10.8,2.9,14.4c1,1.6,2,2.7,3.1,3.1c0.3,0.1,0.9,0.2,1.6,0.2h0.1l0.1,0.1v1.6l-0.1,0.1h-0.4c-3.5,0-6.1-3.1-7.9-9.4
			c-0.7-2.8-1-5.7-1-8.7v-1.5c0-5.6,1.1-10.3,3.3-14.2C1277.9,301.1,1279.7,299.8,1281.7,299.8z"/>
		<path style="&st6;" d="M1297.2,302.1v2.4c0.6,0,1.3,0.1,2.2,0.4c1.1,0.3,2.1,0.9,3,1.7c0.5,0.5,0.9,0.8,1,1
			c0.4,0.5,0.6,0.8,0.8,1.1c0.1,0.1,0.1,0.2,0.1,0.2l-1.6,0.7c-0.2-0.3-0.5-0.7-0.9-1.3c-1.4-1.5-3.1-2.2-5.1-2.2
			c-1.6,0-3,0.4-4.2,1.2c-0.2,0.1-0.5,0.4-0.9,0.8c-0.5,0.6-0.8,1.1-1,1.5c-0.3,0.7-0.4,1.3-0.4,2c0,1.3,0.5,2.3,1.5,3.1
			c0.5,0.4,1.3,0.8,2.5,1.3c1.2,0.4,2.9,0.9,5.1,1.4c0.8,0.2,1.4,0.4,1.9,0.7c0.4,0.2,0.8,0.4,1.2,0.8c0.5,0.4,0.9,0.8,1.2,1.2
			c0.9,1.2,1.3,2.5,1.3,4c0,1.5-0.4,2.9-1.3,4.2c-0.2,0.3-0.5,0.6-0.9,1l-0.3,0.3c-0.5,0.4-0.9,0.7-1.2,0.9c-0.4,0.2-1,0.5-1.6,0.7
			c-0.5,0.2-1.1,0.3-1.6,0.4c-0.2,0-0.5,0.1-0.9,0.1v2.4l0,0h-1.7l0,0v-2.4c0,0-0.1,0-0.4,0c-0.6-0.1-1.1-0.2-1.5-0.3
			c-0.5-0.1-0.9-0.3-1.4-0.6c-0.5-0.2-1-0.6-1.5-1c-0.2-0.2-0.6-0.5-1-0.9c-0.5-0.6-0.9-1.1-1.3-1.7c-0.2-0.4-0.4-0.8-0.6-1.1
			c0.9-0.4,1.4-0.7,1.6-0.7c0.2,0.4,0.4,0.9,0.8,1.4c0.2,0.3,0.5,0.7,0.9,1.1c0.5,0.5,0.9,0.8,1.2,1c1.3,0.8,2.7,1.2,4.2,1.2h0.1
			c1.5,0,2.8-0.4,4.1-1.2c0.3-0.2,0.6-0.4,1-0.8c0.3-0.4,0.6-0.8,0.8-1.1c0.5-0.9,0.8-1.8,0.8-2.8V324c0-1.1-0.4-2.1-1.1-3.1
			c-0.4-0.4-0.6-0.6-0.8-0.7c-0.4-0.3-0.7-0.5-1-0.6c-0.5-0.2-1.1-0.4-1.7-0.5c-2.6-0.6-4.5-1.1-5.7-1.7c-0.6-0.2-1.2-0.5-1.8-0.9
			c-1.1-0.7-1.8-1.6-2.2-2.6c-0.2-0.6-0.4-1.4-0.4-2.1c0-1.7,0.6-3.2,1.8-4.6c0.4-0.5,0.8-0.8,1-1c0.5-0.3,0.9-0.6,1.4-0.8
			c0.4-0.2,0.8-0.3,1.4-0.5c0.4-0.1,0.8-0.2,1.3-0.2l0.1,0v-2.4H1297.2z"/>
		<path style="&st6;" d="M1319,303.4h0.3c1.5,0,3,0.4,4.5,1.1c0.6,0.3,1.1,0.7,1.8,1.2c0.5,0.5,0.9,0.9,1.1,1.1c0.6,0.7,1,1.3,1.3,2
			c0.7,1.5,1.1,2.9,1.1,4.4v0.3c0,1.5-0.4,3-1.1,4.5c-0.2,0.3-1.8,3.2-5,8.6l-4.2,7.2c0,0-0.4-0.2-1.1-0.7c-0.2-0.1-0.4-0.2-0.4-0.2
			l3.7-6.3l2.4-4.2c-1.3,0.6-2.7,1-4.2,1c-2.3,0-4.4-0.8-6.3-2.3c-0.6-0.6-1.1-1-1.3-1.3c-0.5-0.6-0.8-1.1-1.1-1.6
			c-0.8-1.5-1.2-3-1.2-4.6v-0.3c0-1.8,0.5-3.6,1.6-5.3c1.2-1.9,3-3.3,5.2-4.1C1317,303.6,1318,303.4,1319,303.4z M1311,313.4
			L1311,313.4c0,1.7,0.5,3.3,1.4,4.7c0.2,0.3,0.5,0.7,1,1.2c0.6,0.5,1.1,0.9,1.4,1.1c1.3,0.8,2.8,1.2,4.3,1.2c1.6,0,3.2-0.5,4.6-1.4
			c0.3-0.2,0.7-0.5,1.2-1c0.5-0.6,0.9-1,1-1.3c0.3-0.5,0.6-1.1,0.9-1.8c0.3-0.9,0.5-1.8,0.5-2.7v-0.1c0-1.9-0.6-3.7-1.9-5.3
			c-0.5-0.6-0.9-1-1.2-1.2c-1.5-1.2-3.2-1.8-5.1-1.8h-0.1c-1.8,0-3.4,0.6-5,1.7c-0.2,0.2-0.6,0.5-1.1,1c-0.3,0.3-0.5,0.7-0.8,1
			C1311.4,310.2,1311,311.8,1311,313.4z"/>
		<path style="&st6;" d="M1334.3,304.1h5.5l0,0v29.1l0,0h-1.7l0,0v-27.4h-3.7l0,0L1334.3,304.1L1334.3,304.1z"/>
		<path style="&st6;" d="M1358.8,303.6c2.5,0,4.8,0.9,7,2.8c1.2,1.1,1.9,2.1,2.3,2.8c1.7,2.7,2.5,5.7,2.5,9c0,4.1-1.3,7.6-3.8,10.7
			c-2.4,2.6-5.1,3.9-8.1,3.9c-3.1,0-5.8-1.4-8.2-4.1c-2.4-3-3.6-6.5-3.6-10.4v-0.1c0-4.3,1.4-8,4.2-11.1
			C1353.3,304.7,1355.9,303.6,1358.8,303.6z M1348.6,318.2c0,3.4,1,6.4,3,9.1c1.1,1.3,2,2.1,2.7,2.4c1.4,0.9,2.9,1.3,4.3,1.3h0.3
			c2.2,0,4.3-1,6.2-2.9c1.2-1.3,2.1-2.7,2.7-4.3c0.7-1.9,1.1-3.8,1.1-5.7c0-3.8-1.2-7.1-3.7-9.9c-2-2-4.1-2.9-6.4-2.9
			c-2.8,0-5.2,1.3-7.3,3.9C1349.6,311.7,1348.6,314.7,1348.6,318.2z"/>
		<path style="&st6;" d="M1382.3,303.6c2.2,3.9,3.3,8.7,3.3,14.2v1.5c0,3-0.3,5.9-1,8.7c-1.8,6.2-4.5,9.4-7.9,9.4h-0.4l-0.1-0.1
			v-1.6l0.1-0.1h0.1c0.7,0,1.2-0.1,1.6-0.2c1.1-0.5,2.2-1.5,3.1-3.1c1.9-3.6,2.9-8.4,2.9-14.4c0-3.7-0.5-7.1-1.6-10.2
			c-1.5-4.1-3.4-6.2-5.5-6.2h-0.5l-0.1,0v-1.6l0.1-0.1h0.7C1378.9,299.8,1380.7,301.1,1382.3,303.6z"/>
	</g>
	<g>
		<path style="&st6;" d="M1588.3,299.7h0.7l0.1,0.1v1.6l-0.1,0h-0.5c-2.2,0-4,2.1-5.6,6.2c-1.1,3.1-1.6,6.5-1.6,10.2
			c0,6,1,10.8,2.9,14.4c1,1.6,2,2.7,3.1,3.1c0.3,0.1,0.9,0.2,1.6,0.2h0.1l0.1,0.1v1.6l-0.1,0.1h-0.4c-3.5,0-6.1-3.1-7.9-9.4
			c-0.7-2.8-1-5.7-1-8.7v-1.5c0-5.6,1.1-10.3,3.3-14.2C1584.6,300.9,1586.4,299.7,1588.3,299.7z"/>
		<path style="&st6;" d="M1603.9,302v2.4c0.6,0,1.3,0.1,2.2,0.4c1.1,0.3,2.1,0.9,3,1.7c0.5,0.5,0.9,0.8,1,1c0.4,0.5,0.6,0.8,0.8,1.1
			c0.1,0.1,0.1,0.2,0.1,0.2l-1.6,0.7c-0.2-0.3-0.5-0.7-0.9-1.3c-1.4-1.5-3.1-2.2-5.1-2.2c-1.6,0-3,0.4-4.2,1.2
			c-0.2,0.1-0.5,0.4-0.9,0.8c-0.5,0.6-0.8,1.1-1,1.5c-0.3,0.7-0.4,1.3-0.4,2c0,1.3,0.5,2.3,1.5,3.1c0.5,0.4,1.3,0.8,2.5,1.3
			c1.2,0.4,2.9,0.9,5.1,1.4c0.8,0.2,1.4,0.4,1.9,0.7c0.4,0.2,0.8,0.4,1.2,0.8c0.5,0.4,0.9,0.8,1.2,1.2c0.9,1.2,1.3,2.5,1.3,4
			s-0.4,2.9-1.3,4.2c-0.2,0.3-0.5,0.6-0.9,1l-0.3,0.3c-0.5,0.4-0.9,0.7-1.2,0.9c-0.4,0.2-1,0.5-1.6,0.7c-0.5,0.2-1.1,0.3-1.6,0.4
			c-0.2,0-0.5,0.1-0.9,0.1v2.4l0,0h-1.7l0,0v-2.4c0,0-0.1,0-0.4,0c-0.6-0.1-1.1-0.2-1.5-0.3c-0.5-0.1-0.9-0.3-1.4-0.6
			c-0.5-0.2-1-0.6-1.5-1c-0.2-0.2-0.6-0.5-1-0.9c-0.5-0.6-0.9-1.1-1.3-1.7c-0.2-0.4-0.4-0.8-0.6-1.1c0.9-0.4,1.4-0.7,1.6-0.7
			c0.2,0.4,0.4,0.9,0.8,1.4c0.2,0.3,0.5,0.7,0.9,1.1c0.5,0.5,0.9,0.8,1.2,1c1.3,0.8,2.7,1.2,4.2,1.2h0.1c1.5,0,2.8-0.4,4.1-1.2
			c0.3-0.2,0.6-0.4,1-0.8c0.3-0.4,0.6-0.8,0.8-1.1c0.5-0.9,0.8-1.8,0.8-2.8v-0.2c0-1.1-0.4-2.1-1.1-3.1c-0.4-0.4-0.6-0.6-0.8-0.7
			c-0.4-0.3-0.7-0.5-1-0.6c-0.5-0.2-1.1-0.4-1.7-0.5c-2.6-0.6-4.5-1.1-5.7-1.7c-0.6-0.2-1.2-0.5-1.8-0.9c-1.1-0.7-1.8-1.6-2.2-2.6
			c-0.2-0.6-0.4-1.4-0.4-2.1c0-1.7,0.6-3.2,1.8-4.6c0.4-0.5,0.8-0.8,1-1c0.5-0.3,0.9-0.6,1.4-0.8c0.4-0.2,0.8-0.3,1.4-0.5
			c0.4-0.1,0.8-0.2,1.3-0.2l0.1,0V302H1603.9z"/>
		<path style="&st6;" d="M1625.7,303.2h0.3c1.5,0,3,0.4,4.5,1.1c0.6,0.3,1.1,0.7,1.8,1.2c0.5,0.5,0.9,0.9,1.1,1.1
			c0.6,0.7,1,1.3,1.3,2c0.7,1.5,1.1,2.9,1.1,4.4v0.3c0,1.5-0.4,3-1.1,4.5c-0.2,0.3-1.8,3.2-5,8.6l-4.2,7.2c0,0-0.4-0.2-1.1-0.7
			c-0.2-0.1-0.4-0.2-0.4-0.2l3.7-6.3l2.4-4.2c-1.3,0.6-2.7,1-4.2,1c-2.3,0-4.4-0.8-6.3-2.3c-0.6-0.6-1.1-1-1.3-1.3
			c-0.5-0.6-0.8-1.1-1.1-1.6c-0.8-1.5-1.2-3-1.2-4.6v-0.3c0-1.8,0.5-3.6,1.6-5.3c1.2-1.9,3-3.3,5.2-4.1
			C1623.7,303.4,1624.7,303.2,1625.7,303.2z M1617.7,313.2L1617.7,313.2c0,1.7,0.5,3.3,1.4,4.7c0.2,0.3,0.5,0.7,1,1.2
			c0.6,0.5,1.1,0.9,1.4,1.1c1.3,0.8,2.8,1.2,4.3,1.2c1.6,0,3.2-0.5,4.6-1.4c0.3-0.2,0.7-0.5,1.2-1c0.5-0.6,0.9-1,1-1.3
			c0.3-0.5,0.6-1.1,0.9-1.8c0.3-0.9,0.5-1.8,0.5-2.7v-0.1c0-1.9-0.6-3.7-1.9-5.3c-0.5-0.6-0.9-1-1.2-1.2c-1.5-1.2-3.2-1.8-5.1-1.8
			h-0.1c-1.8,0-3.4,0.6-5,1.7c-0.2,0.2-0.6,0.5-1.1,1c-0.3,0.3-0.5,0.7-0.8,1C1618.1,310.1,1617.7,311.6,1617.7,313.2z"/>
		<path style="&st6;" d="M1651.9,303.4c2.5,0,4.8,0.9,7,2.8c1.2,1.1,1.9,2.1,2.3,2.8c1.7,2.7,2.5,5.7,2.5,9c0,4.1-1.3,7.6-3.8,10.7
			c-2.4,2.6-5.1,3.9-8.1,3.9c-3.1,0-5.8-1.4-8.2-4.1c-2.4-3-3.6-6.5-3.6-10.4v-0.1c0-4.3,1.4-8,4.2-11.1
			C1646.5,304.5,1649.1,303.4,1651.9,303.4z M1641.7,318c0,3.4,1,6.4,3,9.1c1.1,1.3,2,2.1,2.7,2.4c1.4,0.9,2.9,1.3,4.3,1.3h0.3
			c2.2,0,4.3-1,6.2-2.9c1.2-1.3,2.1-2.7,2.7-4.3c0.7-1.9,1.1-3.8,1.1-5.7c0-3.8-1.2-7.1-3.7-9.9c-2-2-4.1-2.9-6.4-2.9
			c-2.8,0-5.2,1.3-7.3,3.9C1642.7,311.5,1641.7,314.6,1641.7,318z"/>
		<path style="&st6;" d="M1680.3,303.4c2.5,0,4.8,0.9,7,2.8c1.2,1.1,1.9,2.1,2.3,2.8c1.7,2.7,2.5,5.7,2.5,9c0,4.1-1.3,7.6-3.8,10.7
			c-2.4,2.6-5.1,3.9-8.1,3.9c-3.1,0-5.8-1.4-8.2-4.1c-2.4-3-3.6-6.5-3.6-10.4v-0.1c0-4.3,1.4-8,4.2-11.1
			C1674.9,304.5,1677.4,303.4,1680.3,303.4z M1670.1,318c0,3.4,1,6.4,3,9.1c1.1,1.3,2,2.1,2.7,2.4c1.4,0.9,2.9,1.3,4.3,1.3h0.3
			c2.2,0,4.3-1,6.2-2.9c1.2-1.3,2.1-2.7,2.7-4.3c0.7-1.9,1.1-3.8,1.1-5.7c0-3.8-1.2-7.1-3.7-9.9c-2-2-4.1-2.9-6.4-2.9
			c-2.8,0-5.2,1.3-7.3,3.9C1671.1,311.5,1670.1,314.6,1670.1,318z"/>
		<path style="&st6;" d="M1703.9,303.4c2.2,3.9,3.3,8.7,3.3,14.2v1.5c0,3-0.3,5.9-1,8.7c-1.8,6.2-4.5,9.4-7.9,9.4h-0.4l-0.1-0.1
			v-1.6l0.1-0.1h0.1c0.7,0,1.2-0.1,1.6-0.2c1.1-0.5,2.2-1.5,3.1-3.1c1.9-3.6,2.9-8.4,2.9-14.4c0-3.7-0.5-7.1-1.6-10.2
			c-1.5-4.1-3.4-6.2-5.6-6.2h-0.5l-0.1,0v-1.6l0.1-0.1h0.7C1700.5,299.7,1702.3,300.9,1703.9,303.4z"/>
	</g>
</g>
</svg>
