<?xml version="1.0" encoding="utf-8"?>
<!-- Generator: Adobe Illustrator 26.0.0, SVG Export Plug-In . SVG Version: 6.00 Build 0)  -->
<!DOCTYPE svg PUBLIC "-//W3C//DTD SVG 1.1//EN" "http://www.w3.org/Graphics/SVG/1.1/DTD/svg11.dtd" [
	<!ENTITY st0 "fill:#141414;">
	<!ENTITY st1 "fill:#00F1B7;">
	<!ENTITY st2 "fill:#333333;">
	<!ENTITY st3 "fill:#FD0060;">
	<!ENTITY st4 "fill:#00CE00;">
	<!ENTITY st5 "enable-background:new    ;">
	<!ENTITY st6 "fill:#F4D3AB;">
	<!ENTITY st7 "fill:#684D1C;">
	<!ENTITY st8 "fill:#FFCE85;">
]>
<svg version="1.1" xmlns="http://www.w3.org/2000/svg" xmlns:xlink="http://www.w3.org/1999/xlink" x="0px" y="0px"
	 viewBox="0 0 1920 500" style="enable-background:new 0 0 1920 500;" xml:space="preserve">
<g id="Capa_1">
	<g id="Capa_3">
		<g>
			<rect x="0.5" y="0.5" style="&st0;" width="1919" height="499"/>
			<path style="&st0;" d="M1919,1v498H1V1H1919 M1920,0H0v500h1920V0L1920,0z"/>
		</g>
	</g>
	<g id="Capa_1_00000030473847187328671720000007098665602714387112_">
	</g>
	<g id="Capa_2_00000065774643762669088320000008126840712418867640_">
	</g>
</g>
<g id="Capa_2">
	<rect x="1" y="1" style="&st1;" width="1152.4" height="183.8"/>
	<g>
		<g>
			<path style="&st2;" d="M325.4,80.8c0-28.1,22.8-49.8,52.4-49.8c12.3,0.2,25.4,5.5,35.2,14.4L398.4,64c-5.8-5.3-13.6-8.8-20.6-8.8
				C363.2,55.2,351,66.4,351,81c0,14.8,12.7,25.6,26.3,25.6c8,0,15.1-3.8,21.2-9.3l14.4,19.2c-9.1,8.3-21.2,14-35.6,14
				C350.4,130.5,325.4,110.6,325.4,80.8z"/>
			<path style="&st2;" d="M405.3,80.9c0-28.6,22.7-50.2,52.2-50.2c29.6,0,52.2,21.7,52.2,50.2c0,28.3-22.7,49.9-52.3,49.9
				C427.9,130.8,405.3,109.2,405.3,80.9z M484.2,80.7c0-14.7-11.6-26-26.7-26s-26.7,11.3-26.7,26c0,14.6,11.6,25.9,26.7,25.9
				S484.2,95.4,484.2,80.7z"/>
			<path style="&st2;" d="M613.9,32.3v96h-25.3V90.6l-25.6,36.1h-0.2l-25.7-36.1v37.7H512v-96h10.1L563,88.3l40.8-55.9H613.9z"/>
			<path style="&st2;" d="M619.5,93.8V33.2h25.4v60.5c0,7.9,6.8,13.2,14,13.2c7.1,0,14.1-5.4,14.1-13.2V33.2h25.4v60.5
				c0,21.8-17.7,37.2-39.5,37.2S619.5,115.6,619.5,93.8z"/>
			<path style="&st2;" d="M786.2,33.1v96.2h-8l-48.9-47.4v46.5H704V32.3h8.1l48.7,47.2V33.1H786.2z"/>
			<path style="&st2;" d="M817.5,56.7V70h30.2V91h-30.2v13.6h36.7v23.7h-61.7V33.2h61.7v23.5H817.5z"/>
			<path style="&st2;" d="M853.1,112.2l15.3-15c4,5.8,11.3,9.4,19.3,9.4c5.4,0,10.6-1.9,10.6-5.8c0-4.9-9.7-9.2-19.1-13.3
				c-12-5.2-22.4-13.1-22.4-27.4c0-16.5,15.6-28.2,33.7-28.2c14.5,0,25.8,6.8,29.6,16.2l-14.6,14c-2.8-5-10.1-7.2-14.7-7.2
				c-5.2,0-8.9,2.7-8.9,5.9c0,4.4,6.7,5.8,17,10.1c14.9,6.3,24.7,15.3,24.7,29.4c0,18.1-16.9,29.4-35.9,29.4
				C872.1,129.6,857.9,122.7,853.1,112.2z"/>
		</g>
	</g>
	<rect x="1" y="162.5" style="&st3;" width="1108.6" height="197.2"/>
	<g>
		<g>
			<path style="&st2;" d="M261.7,222.9v13.3h30.2v21.1h-30.2v13.6h36.7v23.7h-61.7v-95.1h61.7v23.5H261.7z"/>
			<path style="&st2;" d="M297.3,278.4l15.3-15c4,5.8,11.3,9.4,19.3,9.4c5.4,0,10.6-1.9,10.6-5.8c0-4.9-9.7-9.2-19.1-13.3
				c-12-5.2-22.4-13.1-22.4-27.4c0-16.5,15.6-28.2,33.7-28.2c14.5,0,25.8,6.8,29.6,16.2l-14.6,14c-2.8-5-10.1-7.2-14.7-7.2
				c-5.2,0-8.9,2.7-8.9,5.9c0,4.4,6.7,5.8,17,10.1c14.9,6.3,24.7,15.3,24.7,29.4c0,18.1-16.9,29.4-35.9,29.4
				C316.3,295.8,302.1,288.9,297.3,278.4z"/>
			<path style="&st2;" d="M369.3,199.4h35.9c19.6,0,35.9,14.8,35.9,33.3c0,18.4-16,33.8-35.9,33.8h-10.7v28h-25.3V199.4z
				 M416.8,232.9c0-5.8-4.8-10.1-11.6-10.1h-10.7v20.5l10.7,0.1C412,243.3,416.8,238.7,416.8,232.9z"/>
			<path style="&st2;" d="M466.7,222.9v13.3h30.2v21.1h-30.2v13.6h36.7v23.7h-61.7v-95.1h61.7v23.5H466.7z"/>
			<path style="&st2;" d="M503.2,247c0-28.1,22.8-49.8,52.4-49.8c12.3,0.2,25.4,5.5,35.2,14.4l-14.5,18.6
				c-5.8-5.3-13.6-8.8-20.6-8.8c-14.6,0-26.8,11.2-26.8,25.7c0,14.8,12.7,25.6,26.3,25.6c8,0,15.1-3.8,21.2-9.3l14.4,19.2
				c-9.1,8.3-21.2,14-35.6,14C528.3,296.6,503.2,276.8,503.2,247z"/>
			<path style="&st2;" d="M591.3,199.4h25.3v95.1h-25.3V199.4z"/>
			<path style="&st2;" d="M683.9,283.4h-35.5l-4.8,11.1h-27.6l44.2-96.3h12l44.3,96.3h-27.7L683.9,283.4z M675.9,265l-9.7-22.5
				l-9.8,22.5H675.9z"/>
			<path style="&st2;" d="M777.3,270.8v23.7h-61.7v-95.1h25.3v71.4H777.3z"/>
			<path style="&st2;" d="M802.9,222.9v13.3h30.2v21.1h-30.2v13.6h36.7v23.7h-61.7v-95.1h61.7v23.5H802.9z"/>
			<path style="&st2;" d="M838.5,278.4l15.3-15c4,5.8,11.3,9.4,19.3,9.4c5.4,0,10.6-1.9,10.6-5.8c0-4.9-9.7-9.2-19.1-13.3
				c-12-5.2-22.4-13.1-22.4-27.4c0-16.5,15.6-28.2,33.7-28.2c14.5,0,25.8,6.8,29.6,16.2l-14.6,14c-2.8-5-10.1-7.2-14.7-7.2
				c-5.2,0-8.9,2.7-8.9,5.9c0,4.4,6.7,5.8,17,10.1c14.9,6.3,24.7,15.3,24.7,29.4c0,18.1-16.9,29.4-35.9,29.4
				C857.5,295.8,843.3,288.9,838.5,278.4z"/>
		</g>
	</g>
	<rect x="1" y="333.1" style="&st4;" width="1080" height="168"/>
	<g>
		<g>
			<path style="&st2;" d="M203.2,454.4l15.3-15c4,5.8,11.3,9.4,19.3,9.4c5.4,0,10.6-1.9,10.6-5.8c0-4.9-9.7-9.2-19.1-13.3
				c-12-5.2-22.4-13.1-22.4-27.4c0-16.5,15.6-28.2,33.7-28.2c14.5,0,25.8,6.8,29.6,16.2l-14.6,14c-2.8-5-10.1-7.2-14.7-7.2
				c-5.2,0-8.9,2.7-8.9,5.9c0,4.4,6.7,5.8,17,10.1c14.9,6.3,24.7,15.3,24.7,29.4c0,18.1-16.9,29.4-35.9,29.4
				C222.2,471.8,208,464.9,203.2,454.4z"/>
			<path style="&st2;" d="M340.3,399h-22.8v71.5h-25.3V399h-22.8v-23.6h70.9V399z"/>
			<path style="&st2;" d="M390,459.4h-35.5l-4.8,11.1h-27.6l44.2-96.3h12l44.3,96.3h-27.7L390,459.4z M382,440.9l-9.7-22.5
				l-9.8,22.5H382z"/>
			<path style="&st2;" d="M472.6,470.5l-25.4-41.3v41.3h-25.3l-0.1-95.1h36.1c20.5,0,35.2,13.9,35.2,30.9c0,11.9-7.1,21.8-16.5,26
				l25.5,38.2H472.6z M447.1,417.1l10.3,0.1c5.4,0.1,10.3-3.7,10.3-9.6c0-5.9-5-9.6-10.3-9.6h-10.3V417.1z"/>
			<path style="&st2;" d="M573.4,441.5c0,15-12.6,29-31.7,29h-40.6v-95.1h31.3c17.2,0,29.9,11.6,29.9,24.7c0,9.8-6.5,16.8-10.4,16.8
				C562,416.9,573.4,427.1,573.4,441.5z M531.6,397.3h-6.2v14.9h6c5.5,0,9.6-2.7,9.6-7.6C541.1,400,537.1,397.3,531.6,397.3z
				 M549.2,438.5c0-5.5-4-8.9-11.2-8.9l-12.6-0.1v18.1h12.5C543.7,447.5,549.2,444.7,549.2,438.5z"/>
			<path style="&st2;" d="M573.2,435.9v-60.5h25.4v60.5c0,7.9,6.8,13.2,14,13.2c7.1,0,14.1-5.4,14.1-13.2v-60.5h25.4v60.5
				c0,21.8-17.7,37.2-39.5,37.2C590.9,473.1,573.2,457.7,573.2,435.9z"/>
			<path style="&st2;" d="M653.5,422.9c0-28.1,22.8-49.8,52.4-49.8c12.3,0.2,25.4,5.5,35.2,14.4l-14.5,18.6
				c-5.8-5.3-13.6-8.8-20.6-8.8c-14.6,0-26.8,11.2-26.8,25.7c0,14.8,12.7,25.6,26.3,25.6c8,0,15.1-3.8,21.2-9.3l14.4,19.2
				c-9.1,8.3-21.2,14-35.6,14C678.6,472.6,653.5,452.8,653.5,422.9z"/>
			<path style="&st2;" d="M790.9,470.5l-24.1-36.2v36.2h-25.2v-95.1h25.2v35.5l22.1-35.5h29l-29.1,46.4l32.7,48.7H790.9z"/>
			<path style="&st2;" d="M815.5,454.4l15.3-15c4,5.8,11.3,9.4,19.3,9.4c5.4,0,10.6-1.9,10.6-5.8c0-4.9-9.7-9.2-19.1-13.3
				c-12-5.2-22.4-13.1-22.4-27.4c0-16.5,15.6-28.2,33.7-28.2c14.5,0,25.8,6.8,29.6,16.2l-14.6,14c-2.8-5-10.1-7.2-14.7-7.2
				c-5.2,0-8.9,2.7-8.9,5.9c0,4.4,6.7,5.8,17,10.1c14.9,6.3,24.7,15.3,24.7,29.4c0,18.1-16.9,29.4-35.9,29.4
				C834.5,471.8,820.3,464.9,815.5,454.4z"/>
		</g>
	</g>
	<g>
		<g id="Capa_2_00000087379806709456071240000006500817505353556653_">
			<circle style="&st0;" cx="1538.9" cy="389.6" r="95.1"/>
		</g>
		<g id="Capa_3_00000075128881402853852570000011027609665898508721_">
			<rect x="1443.8" y="294.5" style="&st0;" width="458.4" height="190.9"/>
			<g style="&st5;">
				<path style="&st6;" d="M1587.9,405.4l-12.8-16.8v16.8h-5.4v-34.7h5.4v16.6l11.9-16.6h6.3l-12.3,17l13.5,17.7H1587.9z"/>
				<path style="&st6;" d="M1620,400.2h-16.4l-2.4,5.3h-5.9l16.3-35.4h0.3l16.3,35.4h-5.9L1620,400.2z M1617.9,395.5l-6.1-13.5
					l-6.1,13.5H1617.9z"/>
				<path style="&st6;" d="M1632.1,370.8h11.6c6.7,0,12.2,5.1,12.2,11.4c0,6.2-5.5,11.2-12.2,11.2h-6.1v12h-5.4V370.8z
					 M1650.5,382.2c0-3.3-3-6-6.8-6h-6.1V388l6.1,0C1647.4,388,1650.5,385.4,1650.5,382.2z"/>
				<path style="&st6;" d="M1658.2,399.3l4.3-3.1c1.5,2.7,4.4,4.3,7.8,4.3c3.9,0,6.8-1.9,6.8-4.5c0-3.2-4.6-5.1-8.6-6.9
					c-4.1-1.8-8.6-3.9-8.6-9.4c0-5.7,4.9-9.6,11.2-9.6c4.9,0,8.6,2.4,10.1,6.2l-4,2.8c-1.1-2.3-3.5-3.7-6-3.7c-3.2,0-5.7,2-5.7,4.4
					c0,2.7,3.2,3.7,7.4,5.5c5.5,2.4,9.7,5.1,9.7,10.5c0,6.1-5.3,10.1-12.4,10.1C1664.5,406,1660.2,403.3,1658.2,399.3z"/>
				<path style="&st6;" d="M1686.9,392.3v-21.5h5.5v21.5c0,4.8,3.4,8.3,7.6,8.3s7.7-3.5,7.7-8.3v-21.5h5.5v21.5
					c0,8-5.7,13.8-13.1,13.8C1692.6,406.1,1686.9,400.2,1686.9,392.3z"/>
			</g>
			<g style="&st5;">
				<path style="&st7;" d="M1753.4,370v35.4h-5.4v-19.2l-11.5,18.6h0l-11.5-18.7v19.2h-5.4V370h0.4l16.6,25.2L1753,370H1753.4z"/>
				<path style="&st7;" d="M1781.9,400.2h-16.4l-2.4,5.3h-5.9l16.3-35.4h0.3l16.3,35.4h-5.9L1781.9,400.2z M1779.8,395.5l-6.1-13.5
					l-6.1,13.5H1779.8z"/>
				<path style="&st7;" d="M1821.8,370.7V406h-0.3l-22.2-23.2v22.6h-5.4v-35.3h0.3l22.1,23.1v-22.6H1821.8z"/>
				<path style="&st7;" d="M1828.5,370.8h5.4v34.7h-5.4V370.8z"/>
				<path style="&st7;" d="M1862.4,400.2H1846l-2.4,5.3h-5.9l16.3-35.4h0.3l16.3,35.4h-5.9L1862.4,400.2z M1860.3,395.5l-6.1-13.5
					l-6.1,13.5H1860.3z"/>
			</g>
		</g>
		<g id="Capa_1_00000022561220309573653360000009760002677804435374_">
			<path style="&st6;" d="M1540.8,468.5c0,0,34.2-27.2,13.2-56.8c-19-24.1-44-30.1-30.8-52.1c6-8.6,13.8-17.6,13.8-17.6
				s-69.1,14.7-26.9,56.8c2,2,24.2,24.1,32.1,36.9C1550,449.9,1540.8,468.5,1540.8,468.5z"/>
			<path style="&st8;" d="M1581.4,375.8"/>
			<path style="&st8;" d="M1527.5,353.1"/>
			<path style="&st8;" d="M1507,380.2"/>
			<path style="&st8;" d="M1521.1,363.9"/>
			<path style="&st8;" d="M1523,369.4"/>
			<path style="&st7;" d="M1551.3,398.1c0,0-10.4-12.7-5.1-28.7c2.1-6.4,9-14.2,16.6-20.6c27.7-24-3.4-37.9-3.4-37.9s5.2,8.1-1,19.6
				c-10.8,14.2-11.4,13.5-21.5,24C1514.8,377.9,1551.3,398.1,1551.3,398.1z"/>
		</g>
	</g>
</g>
</svg>
