<?xml version="1.0" encoding="utf-8"?>
<!-- Generator: Adobe Illustrator 26.0.0, SVG Export Plug-In . SVG Version: 6.00 Build 0)  -->
<!DOCTYPE svg PUBLIC "-//W3C//DTD SVG 1.1//EN" "http://www.w3.org/Graphics/SVG/1.1/DTD/svg11.dtd" [
	<!ENTITY st0 "fill:#141414;">
	<!ENTITY st1 "fill:#00CE00;">
	<!ENTITY st2 "fill:#F4D3AB;">
	<!ENTITY st3 "fill:#FFCE85;">
	<!ENTITY st4 "fill:#684D1C;">
	<!ENTITY st5 "fill:#008700;">
	<!ENTITY st6 "fill:#FFFFFF;">
]>
<svg version="1.1" xmlns="http://www.w3.org/2000/svg" xmlns:xlink="http://www.w3.org/1999/xlink" x="0px" y="0px"
	 viewBox="0 0 1920 500" style="enable-background:new 0 0 1920 500;" xml:space="preserve">
<g id="Capa_1">
	<g id="Capa_3">
		<g>
			<rect x="0.5" y="0.5" style="&st0;" width="1919" height="499"/>
			<path style="&st0;" d="M1919,1v498H1V1H1919 M1920,0H0v500h1920V0L1920,0z"/>
		</g>
	</g>
	<g id="Capa_1_00000030473847187328671720000007098665602714387112_">
	</g>
	<g id="Capa_2_00000065774643762669088320000008126840712418867640_">
	</g>
</g>
<g id="Capa_2">
	<rect x="1" y="484.6" style="&st1;" width="1918" height="15.4"/>
	<circle style="&st0;" cx="1854.2" cy="418.1" r="49.5"/>
	<g>
		<path style="&st2;" d="M1855.2,459.1c0,0,17.8-14.1,6.9-29.6c-9.9-12.5-22.9-15.7-16-27.1c3.1-4.5,7.2-9.2,7.2-9.2
			s-35.9,7.7-14,29.6c1,1,12.6,12.5,16.7,19.2C1859.9,449.4,1855.2,459.1,1855.2,459.1z"/>
		<path style="&st3;" d="M1876.3,410.9"/>
		<path style="&st3;" d="M1848.3,399.1"/>
		<path style="&st3;" d="M1837.5,413.2"/>
		<path style="&st3;" d="M1844.9,404.7"/>
		<path style="&st3;" d="M1845.9,407.5"/>
		<path style="&st4;" d="M1860.6,422.5c0,0-5.4-6.6-2.6-15c1.1-3.3,4.7-7.4,8.6-10.7c14.4-12.5-1.8-19.7-1.8-19.7s2.7,4.2-0.5,10.2
			c-5.6,7.4-5.9,7-11.2,12.5C1841.6,411.9,1860.6,422.5,1860.6,422.5z"/>
	</g>
	<rect style="&st1;" width="1920" height="15"/>
	<g>
		<g>
			<path style="&st1;" d="M30.3,233.9l15.3-15c4,5.8,11.3,9.4,19.3,9.4c5.4,0,10.6-1.9,10.6-5.8c0-4.9-9.7-9.2-19.1-13.3
				c-12-5.2-22.4-13.1-22.4-27.4c0-16.5,15.6-28.2,33.7-28.2c14.5,0,25.8,6.8,29.6,16.2l-14.6,14c-2.8-5-10.1-7.2-14.7-7.2
				c-5.2,0-8.9,2.7-8.9,5.9c0,4.4,6.7,5.8,17,10.1c14.9,6.3,24.7,15.3,24.7,29.4c0,18.1-16.9,29.4-35.9,29.4
				C49.3,251.3,35.1,244.4,30.3,233.9z"/>
			<path style="&st1;" d="M167.4,178.5h-22.8V250h-25.3v-71.5H96.5v-23.6h70.9V178.5z"/>
			<path style="&st1;" d="M217.1,238.9h-35.5l-4.8,11.1h-27.6l44.2-96.3h12l44.3,96.3h-27.7L217.1,238.9z M209.1,220.4l-9.7-22.5
				l-9.8,22.5H209.1z"/>
			<path style="&st1;" d="M299.7,250l-25.4-41.3V250H249l-0.1-95.1H285c20.5,0,35.2,13.9,35.2,30.9c0,11.9-7.1,21.8-16.5,26
				l25.5,38.2H299.7z M274.2,196.7l10.3,0.1c5.4,0.1,10.3-3.7,10.3-9.6c0-5.9-5-9.6-10.3-9.6h-10.3V196.7z"/>
			<path style="&st1;" d="M400.5,221c0,15-12.6,29-31.7,29h-40.6v-95.1h31.3c17.2,0,29.9,11.6,29.9,24.7c0,9.8-6.5,16.8-10.4,16.8
				C389.1,196.4,400.5,206.6,400.5,221z M358.7,176.8h-6.2v14.9h6c5.5,0,9.6-2.7,9.6-7.6C368.2,179.5,364.2,176.8,358.7,176.8z
				 M376.3,218c0-5.5-4-8.9-11.2-8.9l-12.6-0.1V227H365C370.8,227,376.3,224.2,376.3,218z"/>
			<path style="&st1;" d="M400.3,215.4v-60.5h25.4v60.5c0,7.9,6.8,13.2,14,13.2c7.1,0,14.1-5.4,14.1-13.2v-60.5h25.4v60.5
				c0,21.8-17.7,37.2-39.5,37.2C418,252.7,400.3,237.3,400.3,215.4z"/>
			<path style="&st1;" d="M480.6,202.4c0-28.1,22.8-49.8,52.4-49.8c12.3,0.2,25.4,5.5,35.2,14.4l-14.5,18.6
				c-5.8-5.3-13.6-8.8-20.6-8.8c-14.6,0-26.8,11.2-26.8,25.7c0,14.8,12.7,25.6,26.3,25.6c8,0,15.1-3.8,21.2-9.3l14.4,19.2
				c-9.1,8.3-21.2,14-35.6,14C505.7,252.1,480.6,232.3,480.6,202.4z"/>
			<path style="&st1;" d="M618,250l-24.1-36.2V250h-25.2v-95.1h25.2v35.5l22.1-35.5h29l-29.1,46.4l32.7,48.7H618z"/>
			<path style="&st1;" d="M642.6,233.9l15.3-15c4,5.8,11.3,9.4,19.3,9.4c5.4,0,10.6-1.9,10.6-5.8c0-4.9-9.7-9.2-19.1-13.3
				c-12-5.2-22.4-13.1-22.4-27.4c0-16.5,15.6-28.2,33.7-28.2c14.5,0,25.8,6.8,29.6,16.2l-14.6,14c-2.8-5-10.1-7.2-14.7-7.2
				c-5.2,0-8.9,2.7-8.9,5.9c0,4.4,6.7,5.8,17,10.1c14.9,6.3,24.7,15.3,24.7,29.4c0,18.1-16.9,29.4-35.9,29.4
				C661.6,251.3,647.4,244.4,642.6,233.9z"/>
		</g>
	</g>
	<g>
		<path style="&st5;" d="M949.3,121.2h0.4c5.2,0,9.8,2.1,14,6.3c1.8,2.2,3,3.9,3.4,5c-2.4,1.3-3.7,1.9-3.8,1.9
			c-0.5-1-1.2-2.1-2.1-3.2c-3.4-3.8-7.3-5.8-11.7-5.8h-0.2c-4.6,0-8.6,2.1-12,6.2c-2.6,3.6-4,7.5-4,11.7v0.3c0,5,1.7,9.3,5.1,13.1
			c3.2,3.2,6.8,4.8,10.9,4.8c4.5,0,8.4-2,11.9-5.9c0.8-1.1,1.5-2.2,2-3.1l3.7,2c-0.5,1.2-1.7,3-3.7,5.3c-4.1,4-8.8,6.1-14,6.1
			c-5.6,0-10.5-2.3-14.8-7c-3.6-4.5-5.5-9.6-5.5-15.1v-0.3c0-6.1,2.1-11.5,6.4-16.1C939.6,123.2,944.2,121.2,949.3,121.2z"/>
		<path style="&st5;" d="M984.8,124h4.2v0l-15.6,43.4h-4.3L984.8,124L984.8,124z"/>
		<path style="&st5;" d="M995,121.2h4.1l0.1,0.1v28.5c0,4.8,1.7,8.3,5.1,10.5c1.5,0.8,3,1.2,4.4,1.2h4.2c3.1,0,5.6-1.4,7.6-4.3
			c1.3-2.1,2-4.7,2-7.9v-28.1l0.1-0.1h4.1l0.1,0.1v28.1c0,6.6-2.3,11.4-7,14.5c-2.2,1.3-4.4,1.9-6.7,1.9h-4.4
			c-3.4,0-6.5-1.3-9.2-3.9c-3-3.2-4.5-7.2-4.5-12L995,121.2L995,121.2z"/>
		<path style="&st5;" d="M1040.7,136.9c0.9,0,1.6,0.3,2.3,1c0.5,0.6,0.8,1.2,0.8,1.9v0.2c0,0.8-0.3,1.5-1,2.2
			c-0.6,0.5-1.3,0.8-2,0.8h0c-1,0-1.9-0.5-2.6-1.4c-0.3-0.5-0.5-1.1-0.5-1.5v-0.2c0-0.8,0.3-1.5,1-2.2
			C1039.3,137.1,1040,136.9,1040.7,136.9z M1040.7,159.7L1040.7,159.7c0.9,0,1.7,0.4,2.3,1.1c0.5,0.6,0.7,1.2,0.7,1.9v0.2
			c0,0.9-0.4,1.6-1.1,2.3c-0.6,0.5-1.2,0.7-2,0.7c-0.8,0-1.5-0.3-2.1-0.9c-0.6-0.6-0.9-1.3-0.9-2.1v-0.2c0-0.8,0.3-1.5,1-2.1
			C1039.3,160,1039.9,159.7,1040.7,159.7z"/>
		<path style="&st1;" d="M906.8,204h6.4l0,0v4.5c2,0.2,3.7,0.7,5.3,1.3c2.1,0.8,4.1,2.1,6,3.8c1.1,1.1,1.8,1.9,2.1,2.3
			c0.8,1.1,1.4,1.9,1.6,2.4c-2.8,1.4-4.7,2.4-5.7,2.9l-0.6-1c-0.4-0.5-0.8-1-1.4-1.6c-2.7-2.6-5.9-3.9-9.5-3.9h-0.3
			c-3,0-5.6,0.7-7.9,2.2c-1.9,1.2-3.2,3-3.9,5.2c-0.3,0.9-0.4,1.8-0.4,2.7v0c0,2.1,0.7,3.8,2.2,4.9c1,0.8,2,1.4,3,1.8
			c2.6,1.2,6.9,2.5,13,3.7c1.6,0.4,3,0.9,4.1,1.4c1,0.5,2.1,1.1,3.2,1.9c0.5,0.4,1,0.9,1.7,1.6c1,1.1,1.6,2,2,2.7
			c1.4,2.3,2.1,4.9,2.1,7.7c0,4-1.3,7.6-3.9,10.8c-0.9,0.9-1.6,1.6-2.1,2.1c-1.1,0.9-2.1,1.5-2.9,1.9c-0.8,0.4-1.9,0.9-3.2,1.3
			c-0.9,0.3-2,0.6-3.6,0.9l-0.8,0.1v4.5l0,0h-6.4l0,0v-4.6c-1.2-0.2-2.3-0.5-3.2-0.7c-1.5-0.5-2.8-1.1-3.9-1.7
			c-1-0.6-2.2-1.4-3.4-2.3c-1.1-1-2-1.9-2.6-2.7c-1.3-1.6-2.2-3-2.7-4c-0.3-0.6-0.5-1-0.5-1.1l5.8-2.7c0.5,1.2,1.2,2.4,2.1,3.6
			c1,1.2,1.9,2,2.5,2.5c1.2,0.9,2.2,1.5,3.1,1.8c2,0.9,4,1.3,6,1.3h0.4c3,0,5.7-0.8,8.3-2.5c0.5-0.3,1.1-0.8,1.8-1.5
			c0.9-1.1,1.4-1.9,1.7-2.6c0.6-1.4,1-2.9,1-4.3c0-2.9-1.2-5.2-3.6-7c-0.7-0.5-1.3-0.8-1.8-1.1c-0.7-0.3-1.5-0.6-2.4-0.9l-5.9-1.4
			c-3.8-0.9-6.8-2-9.2-3.1c-0.9-0.5-2-1.1-3.2-1.8c-0.6-0.5-1.3-1.1-2-1.8c-2.2-2.4-3.3-5.2-3.3-8.5v-0.6c0-2.6,0.7-5.2,2.2-7.8
			c0.4-0.8,1.1-1.6,2-2.7c1.1-1.1,1.9-1.8,2.4-2.1c0.9-0.6,1.8-1.2,2.8-1.7c0.6-0.3,1.4-0.6,2.5-1c1.6-0.5,2.6-0.7,2.9-0.7
			L906.8,204L906.8,204z"/>
		<path style="&st1;" d="M959.1,206.5h0.2c3.4,0,6.5,1,9.5,3c0.6,0.4,1.4,1.1,2.4,2.1c1.2,1.2,1.9,2.3,2.3,3
			c1.6,2.7,2.4,5.6,2.4,8.6c0,4-1.3,7.6-3.8,10.8c-1,1.1-1.8,1.9-2.4,2.3l-0.1,0.2c0.7,0.4,1.6,1,2.7,1.9c1.1,1,2,1.9,2.7,2.7
			c3,3.7,4.4,7.8,4.4,12.3c0,4.8-1.6,9-4.8,12.8c-1.1,1.2-1.9,1.9-2.2,2.1c-1.3,1-2.4,1.8-3.3,2.3c-3.1,1.6-6.3,2.5-9.5,2.5h-0.7
			c-2.9,0-5.9-0.7-8.9-2.1c-1.1-0.5-2.2-1.3-3.4-2.1c-0.6-0.5-1.3-1.1-2-1.8c-1.4-1.6-2.4-2.9-3.1-4.2c-0.4-0.7-0.8-1.5-1.1-2.3
			c-0.9-2.3-1.4-4.6-1.4-6.8v-0.7c0-3.1,0.8-6.1,2.5-9.2c1.8-3.1,4.2-5.6,7.3-7.4c-0.5-0.3-1.2-1-2.1-2c-0.8-1-1.5-1.9-1.9-2.7
			c-1.6-2.7-2.3-5.5-2.3-8.5c0-4,1.3-7.6,3.9-10.8c1.2-1.2,1.9-2,2.4-2.3c0.7-0.6,1.4-1,2-1.3C953.3,207.3,956.1,206.5,959.1,206.5z
			 M945.4,253.4L945.4,253.4c0,3,1,5.7,2.9,8.1c0.8,0.9,1.5,1.7,2.2,2.2c2.6,2,5.5,3,8.6,3h0.2c3.4,0,6.4-1.1,9.2-3.4
			c0.9-0.9,1.5-1.5,1.7-1.8c1.9-2.4,2.8-5.1,2.8-8c0-3.2-1.2-6.2-3.5-8.8c-1-1-1.7-1.7-2.2-2c-2.5-1.7-5.1-2.6-8-2.6h0
			c-3.4,0-6.5,1.2-9.3,3.5c-1,1-1.6,1.7-1.8,2c-0.6,0.8-1.2,1.6-1.6,2.6C945.7,249.8,945.4,251.6,945.4,253.4z M948.8,223.3
			c0,2.8,1,5.2,3.1,7.4c2.1,2,4.5,3,7.3,3c2.9,0,5.5-1.1,7.6-3.3c1.9-2.1,2.8-4.4,2.8-6.9v-0.2c0-2.5-0.9-4.8-2.8-6.9
			c-2.2-2.2-4.7-3.3-7.6-3.3c-2.7,0-5.2,1-7.3,3C949.8,218.1,948.8,220.5,948.8,223.3z"/>
		<path style="&st1;" d="M986.4,207.8h38l0,0v6l-7.7,14.4l-10.5,19.8l-9.5,18l-2.7,5.2h0c-0.1,0-2-1-5.6-3l11.4-21.7l8.6-16.2
			c0,0,2.3-4.3,6.9-13c1-1.9,1.6-3,1.6-3.2h-30.6l0,0L986.4,207.8L986.4,207.8z"/>
		<path style="&st1;" d="M1057.4,206.9h0.4c6.3,0,12,2.6,17.1,7.9c5.8,6.6,8.7,14.5,8.7,23.5c0,9.1-2.9,16.9-8.7,23.6
			c-5.1,5.3-10.9,7.9-17.3,7.9c-7.2,0-13.4-3.2-18.7-9.6c-4.8-6.3-7.3-13.5-7.3-21.6v-0.6c0-8.2,2.5-15.5,7.5-21.9
			C1044.5,210,1050.6,206.9,1057.4,206.9z M1038,238.2v0.5c0,6.5,1.9,12.4,5.9,17.6c4,4.8,8.6,7.2,13.8,7.2c5.5,0,10.3-2.8,14.5-8.3
			c3.4-5.1,5.1-10.7,5.1-16.9c0-6.3-1.8-12-5.3-17.1c-4.1-5.4-8.9-8-14.4-8h0c-5.5,0-10.3,2.7-14.4,8.2
			C1039.7,226.5,1038,232.1,1038,238.2z"/>
	</g>
	<g>
		<path style="&st5;" d="M1249.6,123.4c2.8,0,5.3,0.9,7.6,2.8c0.7,0.6,1.1,1.1,1.3,1.4c0.6,0.8,1.1,1.5,1.3,2
			c0.9,1.7,1.3,3.4,1.3,5.2v0.1c0,2.7-0.9,5.2-2.7,7.4c-0.7,0.7-1.2,1.3-1.6,1.6c-0.2,0.2-0.4,0.3-0.4,0.3c0.4,0.2,1,0.7,1.7,1.3
			c0.6,0.6,1.1,1.1,1.4,1.6c1.8,2.4,2.7,4.9,2.7,7.8c0,3-1,5.7-2.9,8.1c-0.3,0.3-0.8,0.8-1.3,1.3c-0.8,0.7-1.5,1.2-2,1.5
			c-2.1,1.2-4.2,1.8-6.5,1.8h-0.4c-2,0-4-0.5-5.9-1.5c-0.7-0.4-1.4-0.9-2.2-1.5c-0.8-0.7-1.4-1.3-1.7-1.7c-0.5-0.6-0.8-1.1-1.1-1.6
			c-0.3-0.5-0.6-1.2-1-2c-0.5-1.5-0.8-2.9-0.8-4.2V155l0,0h4.2l0,0v0c0,1.9,0.7,3.7,2,5.3c0.5,0.6,0.9,1,1.2,1.2
			c1.6,1.3,3.4,1.9,5.4,1.9h0c2,0,3.9-0.7,5.5-2c0.6-0.6,1.1-1,1.3-1.3c1.2-1.6,1.8-3.3,1.8-5.2c0-1.9-0.6-3.7-1.9-5.3
			c-0.5-0.6-1-1-1.3-1.3c-0.5-0.4-1-0.7-1.4-0.9c-1.3-0.6-2.6-0.9-3.8-0.9h-3.1l0,0v-4.2l0,0h3.8c0.7-0.1,1.3-0.2,1.9-0.4
			c0.7-0.2,1.3-0.5,1.9-0.9c0.3-0.2,0.7-0.5,1.2-1c0.6-0.7,0.9-1.3,1.1-1.7c0.5-1,0.7-2.1,0.7-3.2c0-1.8-0.6-3.4-1.9-4.9
			c-0.6-0.6-1-0.9-1.2-1c-1.3-0.9-2.6-1.3-4.1-1.3h-0.1c-1.6,0-3.1,0.6-4.5,1.7c-1.7,1.5-2.6,3.4-2.6,5.8v0.1l0,0h-4.2v-0.3
			c0-2.4,0.7-4.7,2.2-6.8c0.2-0.3,0.7-0.9,1.3-1.5c0.6-0.5,1.1-0.9,1.5-1.2C1245.2,124,1247.3,123.4,1249.6,123.4z"/>
		<path style="&st5;" d="M1281.3,123.6h4.2v0l-15.6,43.4h-4.3L1281.3,123.6L1281.3,123.6z"/>
		<path style="&st5;" d="M1291.5,120.9h4.1l0.1,0.1v28.5c0,4.8,1.7,8.3,5.1,10.5c1.5,0.8,3,1.2,4.4,1.2h4.2c3.1,0,5.6-1.4,7.6-4.3
			c1.3-2.1,2-4.7,2-7.9V121l0.1-0.1h4.1l0.1,0.1v28.1c0,6.6-2.3,11.4-7,14.5c-2.2,1.3-4.4,1.9-6.7,1.9h-4.4c-3.4,0-6.5-1.3-9.2-3.9
			c-3-3.2-4.5-7.2-4.5-12L1291.5,120.9L1291.5,120.9z"/>
		<path style="&st5;" d="M1337.2,136.5c0.9,0,1.6,0.3,2.3,1c0.5,0.6,0.8,1.2,0.8,1.9v0.2c0,0.8-0.3,1.5-1,2.2
			c-0.6,0.5-1.3,0.8-2,0.8h0c-1,0-1.9-0.5-2.6-1.4c-0.3-0.5-0.5-1.1-0.5-1.5v-0.2c0-0.8,0.3-1.5,1-2.2
			C1335.8,136.8,1336.5,136.5,1337.2,136.5z M1337.2,159.4L1337.2,159.4c0.9,0,1.7,0.4,2.3,1.1c0.5,0.6,0.7,1.2,0.7,1.9v0.2
			c0,0.9-0.4,1.6-1.1,2.3c-0.6,0.5-1.2,0.7-2,0.7c-0.8,0-1.5-0.3-2.1-0.9c-0.6-0.6-0.9-1.3-0.9-2.1v-0.2c0-0.8,0.3-1.5,1-2.1
			C1335.8,159.6,1336.5,159.4,1337.2,159.4z"/>
		<path style="&st1;" d="M1181.2,203.7h6.4l0,0v4.5c2,0.2,3.7,0.7,5.3,1.3c2.1,0.8,4.1,2.1,6,3.8c1.1,1.1,1.8,1.9,2.1,2.3
			c0.8,1.1,1.4,1.9,1.6,2.4c-2.8,1.4-4.7,2.4-5.7,2.9l-0.6-1c-0.4-0.5-0.8-1-1.4-1.6c-2.7-2.6-5.9-3.9-9.5-3.9h-0.3
			c-3,0-5.6,0.7-7.9,2.2c-1.9,1.2-3.2,3-3.9,5.2c-0.3,0.9-0.4,1.8-0.4,2.7v0c0,2.1,0.7,3.8,2.2,4.9c1,0.8,2,1.4,3,1.8
			c2.6,1.2,6.9,2.5,13,3.7c1.6,0.4,3,0.9,4.1,1.4c1,0.5,2.1,1.1,3.2,1.9c0.5,0.4,1,0.9,1.7,1.6c1,1.1,1.6,2,2,2.7
			c1.4,2.3,2.1,4.9,2.1,7.7c0,4-1.3,7.6-3.9,10.8c-0.9,0.9-1.6,1.6-2.1,2.1c-1.1,0.9-2.1,1.5-2.9,1.9c-0.8,0.4-1.9,0.9-3.2,1.3
			c-0.9,0.3-2,0.6-3.6,0.9l-0.8,0.1v4.5l0,0h-6.4l0,0v-4.6c-1.2-0.2-2.3-0.5-3.2-0.7c-1.5-0.5-2.8-1.1-3.9-1.7
			c-1-0.6-2.2-1.4-3.4-2.3c-1.1-1-2-1.9-2.6-2.7c-1.3-1.6-2.2-3-2.7-4c-0.3-0.6-0.5-1-0.5-1.1l5.8-2.7c0.5,1.2,1.2,2.4,2.1,3.6
			c1,1.2,1.9,2,2.5,2.5c1.2,0.9,2.2,1.5,3.1,1.8c2,0.9,4,1.3,6,1.3h0.4c3,0,5.7-0.8,8.3-2.5c0.5-0.3,1.1-0.8,1.8-1.5
			c0.9-1.1,1.4-1.9,1.7-2.6c0.6-1.4,1-2.9,1-4.3c0-2.9-1.2-5.2-3.6-7c-0.7-0.5-1.3-0.8-1.8-1.1c-0.7-0.3-1.5-0.6-2.4-0.9l-5.9-1.4
			c-3.8-0.9-6.8-2-9.2-3.1c-0.9-0.5-2-1.1-3.2-1.8c-0.6-0.5-1.3-1.1-2-1.8c-2.2-2.4-3.3-5.2-3.3-8.5v-0.6c0-2.6,0.7-5.2,2.2-7.8
			c0.4-0.8,1.1-1.6,2-2.7c1.1-1.1,1.9-1.8,2.4-2.1c0.9-0.6,1.8-1.2,2.8-1.7c0.6-0.3,1.4-0.6,2.5-1c1.6-0.5,2.6-0.7,2.9-0.7
			L1181.2,203.7L1181.2,203.7z"/>
		<path style="&st1;" d="M1231.7,206.3c6.2,0,11,2.5,14.5,7.5c1.1,1.6,2,3.4,2.6,5.4c0.7,2.1,1.1,4.2,1.1,6.4c0,3.2-0.7,6.1-2.2,8.7
			l-11.3,13.1l-12.1,13.9l-2,2.4h27.6v6.4h-35.7l0,0v-6.7c0-0.1,0.2-0.2,0.5-0.5l11.5-13.3l10.9-12.6l5.5-6.4c0.7-1.5,1.1-3.2,1.1-5
			c0-3-0.9-5.8-2.7-8.4c-2.2-3-5.2-4.5-8.9-4.5h-0.4c-5.2,0-8.8,2.5-10.7,7.4c-0.3,0.9-0.6,2-0.9,3.5c-0.2,1-0.2,1.7-0.2,2.2h-6.4
			v-0.2c0-2,0.4-4.4,1.3-7.1c0.6-1.7,1.3-3.2,2.1-4.4c0.5-0.8,1.1-1.6,2-2.5C1222,208.1,1226.4,206.3,1231.7,206.3z"/>
		<path style="&st1;" d="M1297.2,207.5L1297.2,207.5l0,6.4h-19.7l-0.5,2l-3.1,11.9h0c1.7-0.4,3.4-0.5,5.1-0.5
			c4.8,0,9.2,1.4,13.2,4.2c0.7,0.5,1.7,1.3,2.9,2.4c1.2,1.2,2.1,2.3,2.6,3.1c2.7,4,4.1,8.3,4.1,13.1c0,4.8-1.4,9.3-4.3,13.3
			c-0.5,0.8-1.4,1.7-2.4,2.8c-1.3,1.2-2.3,2.1-3.2,2.7c-1.5,1-2.8,1.7-3.9,2.1c-3,1.2-5.8,1.9-8.7,1.9h-0.9c-2.7,0-5.4-0.6-8.3-1.7
			c-1.2-0.5-2.5-1.2-3.8-2c-0.9-0.5-2-1.4-3.3-2.6c-1.3-1.3-2.1-2.3-2.5-2.9c-0.8-1-1.4-2-1.8-2.9c-0.4-0.7-0.6-1.2-0.7-1.4l5.8-2.6
			c0.5,1,1.1,2.1,1.8,3.1c0.4,0.5,1.1,1.2,1.9,2.1c1.2,1.1,2.2,1.9,3.2,2.4c2.6,1.5,5.3,2.2,8,2.2h0.3c3.4,0,6.6-1.1,9.6-3.2
			c0.5-0.4,1.2-1,2.2-2l0.9-1.1c0.7-1,1.3-1.8,1.6-2.6c1.3-2.5,1.9-5,1.9-7.6c0-4-1.3-7.6-4-10.8c-0.7-0.8-1.3-1.4-1.8-1.8
			c-3.2-2.6-6.7-3.9-10.6-3.9c-3.1,0-6.1,0.9-8.9,2.6l-5.8,3.3l4.6-18.1l3.6-13.8v0H1297.2z"/>
		<path style="&st1;" d="M1331.5,206.2h0.2c3.4,0,6.5,1,9.5,3c0.6,0.4,1.4,1.1,2.4,2.1c1.2,1.2,1.9,2.3,2.3,3
			c1.6,2.7,2.4,5.6,2.4,8.6c0,4-1.3,7.6-3.8,10.8c-1,1.1-1.8,1.9-2.4,2.3l-0.1,0.2c0.7,0.4,1.6,1,2.7,1.9c1.1,1,2,1.9,2.7,2.7
			c3,3.7,4.4,7.8,4.4,12.3c0,4.8-1.6,9-4.8,12.8c-1.1,1.2-1.9,1.9-2.2,2.1c-1.3,1-2.4,1.8-3.3,2.3c-3.1,1.6-6.3,2.5-9.5,2.5h-0.7
			c-2.9,0-5.9-0.7-8.9-2.1c-1.1-0.5-2.2-1.3-3.4-2.1c-0.6-0.5-1.3-1.1-2-1.8c-1.4-1.6-2.4-2.9-3.1-4.2c-0.4-0.7-0.8-1.5-1.1-2.3
			c-0.9-2.3-1.4-4.6-1.4-6.8v-0.7c0-3.1,0.8-6.1,2.5-9.2c1.8-3.1,4.2-5.6,7.3-7.4c-0.5-0.3-1.2-1-2.1-2c-0.8-1-1.5-1.9-1.9-2.7
			c-1.6-2.7-2.3-5.5-2.3-8.5c0-4,1.3-7.6,3.9-10.8c1.2-1.2,1.9-2,2.4-2.3c0.7-0.6,1.4-1,2-1.3C1325.7,207,1328.5,206.2,1331.5,206.2
			z M1317.8,253L1317.8,253c0,3,1,5.7,2.9,8.1c0.8,0.9,1.5,1.7,2.2,2.2c2.6,2,5.5,3,8.6,3h0.2c3.4,0,6.4-1.1,9.2-3.4
			c0.9-0.9,1.5-1.5,1.7-1.8c1.9-2.4,2.8-5.1,2.8-8c0-3.2-1.2-6.2-3.5-8.8c-1-1-1.7-1.7-2.2-2c-2.5-1.7-5.1-2.6-8-2.6h0
			c-3.4,0-6.5,1.2-9.3,3.5c-1,1-1.6,1.7-1.8,2c-0.6,0.8-1.2,1.6-1.6,2.6C1318.1,249.5,1317.8,251.2,1317.8,253z M1321.2,223
			c0,2.8,1,5.2,3.1,7.4c2.1,2,4.5,3,7.3,3c2.9,0,5.5-1.1,7.6-3.3c1.9-2.1,2.8-4.4,2.8-6.9v-0.2c0-2.5-0.9-4.8-2.8-6.9
			c-2.2-2.2-4.7-3.3-7.6-3.3c-2.7,0-5.2,1-7.3,3C1322.2,217.7,1321.2,220.2,1321.2,223z"/>
		<path style="&st1;" d="M1386.9,206.5h0.4c6.3,0,12,2.6,17.1,7.9c5.8,6.6,8.7,14.5,8.7,23.5c0,9.1-2.9,16.9-8.7,23.6
			c-5.1,5.3-10.9,7.9-17.3,7.9c-7.2,0-13.4-3.2-18.7-9.6c-4.8-6.3-7.3-13.5-7.3-21.6v-0.6c0-8.2,2.5-15.5,7.5-21.9
			C1374,209.6,1380.1,206.5,1386.9,206.5z M1367.5,237.8v0.5c0,6.5,1.9,12.4,5.8,17.6c4,4.8,8.6,7.2,13.8,7.2
			c5.5,0,10.3-2.8,14.5-8.3c3.4-5.1,5.1-10.7,5.1-16.9c0-6.3-1.8-12-5.3-17.1c-4.1-5.4-8.9-8-14.4-8h0c-5.5,0-10.3,2.7-14.4,8.2
			C1369.2,226.1,1367.5,231.7,1367.5,237.8z"/>
	</g>
	<g>
		<path style="&st5;" d="M1569.1,123.8l3.7,2.1l-7.5,12.9c1.2-0.3,2.5-0.5,3.7-0.5h0.2c2.9,0,5.6,0.8,8.1,2.5c0.6,0.4,1.2,0.9,2,1.6
			c0.7,0.7,1.2,1.3,1.6,1.8c0.6,0.8,1,1.5,1.3,2.1c1.1,2.2,1.6,4.4,1.6,6.7v0.4c0,2.5-0.6,4.9-1.9,7.2c-0.4,0.6-0.9,1.4-1.5,2.1
			c-0.3,0.3-0.7,0.9-1.4,1.5c-1.4,1.2-2.9,2.1-4.4,2.8c-1.7,0.7-3.6,1-5.5,1c-3.2,0-6.1-1-8.8-3c-0.4-0.3-1-0.9-1.7-1.6
			c-0.9-1-1.5-1.7-1.9-2.4c-0.6-1-1.1-1.9-1.4-2.9c-0.6-1.7-0.9-3.3-0.9-4.9v-0.5c0-2.2,0.5-4.3,1.6-6.5c0.3-0.5,1.2-2.2,3-5.1
			l7.9-13.5L1569.1,123.8z M1558.6,153.1v0.1c0,2.3,0.7,4.4,2.1,6.3c0.2,0.3,0.7,0.8,1.3,1.4c2.1,1.8,4.4,2.8,7,2.8
			c2.6,0,4.9-0.9,7-2.7c0.7-0.7,1.1-1.2,1.3-1.4c1.5-2,2.2-4.1,2.2-6.5c0-2.8-1-5.3-3-7.5c-0.6-0.6-1-1-1.4-1.2
			c-1.8-1.3-3.8-1.9-6-1.9c-2.6,0-4.9,0.9-6.9,2.7c-0.6,0.6-1,1-1.2,1.3C1559.4,148.5,1558.6,150.7,1558.6,153.1z"/>
		<path style="&st5;" d="M1602.3,123.9h4.2v0l-15.6,43.4h-4.3L1602.3,123.9L1602.3,123.9z"/>
		<path style="&st5;" d="M1612.5,121.2h4.1l0.1,0.1v28.5c0,4.8,1.7,8.3,5.1,10.5c1.5,0.8,3,1.2,4.4,1.2h4.2c3.1,0,5.6-1.4,7.6-4.3
			c1.3-2.1,2-4.7,2-7.9v-28.1l0.1-0.1h4.1l0.1,0.1v28.1c0,6.6-2.3,11.4-7,14.5c-2.2,1.3-4.4,1.9-6.7,1.9h-4.4
			c-3.4,0-6.5-1.3-9.2-3.9c-3-3.2-4.5-7.2-4.5-12L1612.5,121.2L1612.5,121.2z"/>
		<path style="&st5;" d="M1658.2,136.8c0.9,0,1.6,0.3,2.3,1c0.5,0.6,0.8,1.2,0.8,1.9v0.2c0,0.8-0.3,1.5-1,2.2
			c-0.6,0.5-1.3,0.8-2,0.8h0c-1,0-1.9-0.5-2.6-1.4c-0.3-0.5-0.5-1.1-0.5-1.5v-0.2c0-0.8,0.3-1.5,1-2.2
			C1656.8,137.1,1657.4,136.8,1658.2,136.8z M1658.2,159.7L1658.2,159.7c0.9,0,1.7,0.4,2.3,1.1c0.5,0.6,0.7,1.2,0.7,1.9v0.2
			c0,0.9-0.4,1.6-1.1,2.3c-0.6,0.5-1.2,0.7-2,0.7c-0.8,0-1.5-0.3-2.1-0.9c-0.6-0.6-0.9-1.3-0.9-2.1v-0.2c0-0.8,0.3-1.5,1-2.1
			C1656.7,159.9,1657.4,159.7,1658.2,159.7z"/>
		<path style="&st1;" d="M1502.4,204h6.4l0,0v4.5c2,0.2,3.7,0.7,5.3,1.3c2.1,0.8,4.1,2.1,6,3.8c1.1,1.1,1.8,1.9,2.1,2.3
			c0.8,1.1,1.4,1.9,1.6,2.4c-2.8,1.4-4.7,2.4-5.7,2.9l-0.6-1c-0.4-0.5-0.8-1-1.4-1.6c-2.7-2.6-5.9-3.9-9.5-3.9h-0.3
			c-3,0-5.6,0.7-7.9,2.2c-1.9,1.2-3.2,3-3.9,5.2c-0.3,0.9-0.4,1.8-0.4,2.7v0c0,2.1,0.7,3.8,2.2,4.9c1,0.8,2,1.4,3,1.8
			c2.6,1.2,6.9,2.5,13,3.7c1.6,0.4,3,0.9,4.1,1.4c1,0.5,2.1,1.1,3.2,1.9c0.5,0.4,1,0.9,1.7,1.6c1,1.1,1.6,2,2,2.7
			c1.4,2.3,2.1,4.9,2.1,7.7c0,4-1.3,7.6-3.9,10.8c-0.9,0.9-1.6,1.6-2.1,2.1c-1.1,0.9-2.1,1.5-2.9,1.9c-0.8,0.4-1.9,0.9-3.2,1.3
			c-0.9,0.3-2,0.6-3.6,0.9l-0.8,0.1v4.5l0,0h-6.4l0,0v-4.6c-1.2-0.2-2.3-0.5-3.2-0.7c-1.5-0.5-2.8-1.1-3.9-1.7
			c-1-0.6-2.2-1.4-3.4-2.3c-1.1-1-2-1.9-2.6-2.7c-1.3-1.6-2.2-3-2.7-4c-0.3-0.6-0.5-1-0.5-1.1l5.8-2.7c0.5,1.2,1.2,2.4,2.1,3.6
			c1,1.2,1.9,2,2.5,2.5c1.2,0.9,2.2,1.5,3.1,1.8c2,0.9,4,1.3,6,1.3h0.4c3,0,5.7-0.8,8.3-2.5c0.5-0.3,1.1-0.8,1.8-1.5
			c0.9-1.1,1.4-1.9,1.7-2.6c0.6-1.4,1-2.9,1-4.3c0-2.9-1.2-5.2-3.6-7c-0.7-0.5-1.3-0.8-1.8-1.1c-0.7-0.3-1.5-0.6-2.4-0.9l-5.9-1.4
			c-3.8-0.9-6.8-2-9.2-3.1c-0.9-0.5-2-1.1-3.2-1.8c-0.6-0.5-1.3-1.1-2-1.8c-2.2-2.4-3.3-5.2-3.3-8.5v-0.6c0-2.6,0.7-5.2,2.2-7.8
			c0.4-0.8,1.1-1.6,2-2.7c1.1-1.1,1.9-1.8,2.4-2.1c0.9-0.6,1.8-1.2,2.8-1.7c0.6-0.3,1.4-0.6,2.5-1c1.6-0.5,2.6-0.7,2.9-0.7
			L1502.4,204L1502.4,204z"/>
		<path style="&st1;" d="M1572.8,207.8L1572.8,207.8l0,6.4h-19.7l-0.5,2l-3.1,11.9h0c1.7-0.4,3.4-0.5,5.1-0.5
			c4.8,0,9.2,1.4,13.2,4.2c0.7,0.5,1.7,1.3,2.9,2.4c1.2,1.2,2.1,2.3,2.6,3.1c2.7,4,4.1,8.3,4.1,13.1c0,4.8-1.4,9.3-4.3,13.3
			c-0.5,0.8-1.4,1.7-2.4,2.8c-1.3,1.2-2.3,2.1-3.2,2.7c-1.5,1-2.8,1.7-3.9,2.1c-3,1.2-5.9,1.9-8.7,1.9h-0.9c-2.7,0-5.4-0.6-8.3-1.7
			c-1.2-0.5-2.5-1.2-3.8-2c-0.9-0.5-2-1.4-3.3-2.6c-1.3-1.3-2.1-2.3-2.5-2.9c-0.8-1-1.4-2-1.8-2.9c-0.4-0.7-0.6-1.2-0.7-1.4l5.8-2.6
			c0.5,1,1.1,2.1,1.8,3.1c0.4,0.5,1.1,1.2,1.9,2.1c1.2,1.1,2.2,1.9,3.2,2.4c2.6,1.5,5.3,2.2,8,2.2h0.3c3.4,0,6.6-1.1,9.6-3.2
			c0.5-0.4,1.2-1,2.2-2l0.9-1.1c0.7-1,1.3-1.8,1.6-2.6c1.3-2.5,1.9-5,1.9-7.6c0-4-1.3-7.6-4-10.8c-0.7-0.8-1.3-1.4-1.8-1.8
			c-3.2-2.6-6.7-3.9-10.6-3.9c-3.1,0-6.1,0.9-8.9,2.6l-5.8,3.3l4.6-18.1l3.6-13.8v0H1572.8z"/>
		<path style="&st1;" d="M1589.3,208.1h13.1l0,0v62l0,0h-6.3l0,0v-55.7h-6.8l0,0L1589.3,208.1L1589.3,208.1z"/>
		<path style="&st1;" d="M1642.9,206.8h0.4c6.3,0,12,2.6,17.1,7.9c5.8,6.6,8.7,14.5,8.7,23.5c0,9.1-2.9,16.9-8.7,23.6
			c-5.1,5.3-10.9,7.9-17.3,7.9c-7.2,0-13.4-3.2-18.7-9.6c-4.8-6.3-7.3-13.5-7.3-21.6V238c0-8.2,2.5-15.5,7.5-21.9
			C1630,209.9,1636.1,206.8,1642.9,206.8z M1623.5,238.1v0.5c0,6.5,1.9,12.4,5.8,17.6c4,4.8,8.6,7.2,13.8,7.2
			c5.5,0,10.3-2.8,14.5-8.3c3.4-5.1,5.1-10.7,5.1-16.9c0-6.3-1.8-12-5.3-17.1c-4.1-5.4-8.9-8-14.4-8h0c-5.5,0-10.3,2.7-14.4,8.2
			C1625.2,226.4,1623.5,232,1623.5,238.1z"/>
		<path style="&st1;" d="M1704.5,206.8h0.4c6.3,0,12,2.6,17.1,7.9c5.8,6.6,8.7,14.5,8.7,23.5c0,9.1-2.9,16.9-8.7,23.6
			c-5.1,5.3-10.9,7.9-17.3,7.9c-7.2,0-13.4-3.2-18.7-9.6c-4.8-6.3-7.3-13.5-7.3-21.6V238c0-8.2,2.5-15.5,7.5-21.9
			C1691.6,209.9,1697.7,206.8,1704.5,206.8z M1685.1,238.1v0.5c0,6.5,1.9,12.4,5.8,17.6c4,4.8,8.6,7.2,13.8,7.2
			c5.5,0,10.3-2.8,14.5-8.3c3.4-5.1,5.1-10.7,5.1-16.9c0-6.3-1.8-12-5.3-17.1c-4.1-5.4-8.9-8-14.4-8h0c-5.5,0-10.3,2.7-14.4,8.2
			C1686.8,226.4,1685.1,232,1685.1,238.1z"/>
	</g>
	<g>
		<path style="&st6;" d="M1242.3,289.6h0.7l0.1,0.1v1.6l-0.1,0h-0.5c-2.2,0-4,2.1-5.6,6.2c-1.1,3.1-1.6,6.5-1.6,10.2
			c0,6,1,10.8,2.9,14.4c1,1.6,2,2.7,3.1,3.1c0.3,0.1,0.9,0.2,1.6,0.2h0.1l0.1,0.1v1.6l-0.1,0.1h-0.4c-3.5,0-6.1-3.1-7.9-9.4
			c-0.7-2.8-1-5.7-1-8.7v-1.5c0-5.6,1.1-10.3,3.3-14.2C1238.6,290.9,1240.4,289.6,1242.3,289.6z"/>
		<path style="&st6;" d="M1257.9,291.9v2.4c0.6,0,1.3,0.1,2.2,0.4c1.1,0.3,2.1,0.9,3,1.7c0.5,0.5,0.9,0.8,1,1
			c0.4,0.5,0.6,0.8,0.8,1.1c0.1,0.1,0.1,0.2,0.1,0.2l-1.6,0.7c-0.2-0.3-0.5-0.7-0.9-1.3c-1.4-1.5-3.1-2.2-5.1-2.2
			c-1.6,0-3,0.4-4.2,1.2c-0.2,0.1-0.5,0.4-0.9,0.8c-0.5,0.6-0.8,1.1-1,1.5c-0.3,0.7-0.4,1.3-0.4,2c0,1.3,0.5,2.3,1.5,3.1
			c0.5,0.4,1.3,0.8,2.5,1.3c1.2,0.4,2.9,0.9,5.1,1.4c0.8,0.2,1.4,0.4,1.9,0.7c0.4,0.2,0.8,0.4,1.2,0.8c0.5,0.4,0.9,0.8,1.2,1.2
			c0.9,1.2,1.3,2.5,1.3,4c0,1.5-0.4,2.9-1.3,4.2c-0.2,0.3-0.5,0.6-0.9,1l-0.3,0.3c-0.5,0.4-0.9,0.7-1.2,0.9c-0.4,0.2-1,0.5-1.6,0.7
			c-0.5,0.2-1.1,0.3-1.6,0.4c-0.2,0-0.5,0.1-0.9,0.1v2.4l0,0h-1.7l0,0v-2.4c0,0-0.1,0-0.4,0c-0.6-0.1-1.1-0.2-1.5-0.3
			c-0.5-0.1-0.9-0.3-1.4-0.6c-0.5-0.2-1-0.6-1.5-1c-0.2-0.2-0.6-0.5-1-0.9c-0.5-0.6-0.9-1.1-1.3-1.7c-0.2-0.4-0.4-0.8-0.6-1.1
			c0.9-0.4,1.4-0.7,1.6-0.7c0.2,0.4,0.4,0.9,0.8,1.4c0.2,0.3,0.5,0.7,0.9,1.1c0.5,0.5,0.9,0.8,1.2,1c1.3,0.8,2.7,1.2,4.2,1.2h0.1
			c1.5,0,2.8-0.4,4.1-1.2c0.3-0.2,0.6-0.4,1-0.8c0.3-0.4,0.6-0.8,0.8-1.1c0.5-0.9,0.8-1.8,0.8-2.8v-0.2c0-1.1-0.4-2.2-1.1-3.1
			c-0.4-0.4-0.6-0.6-0.8-0.7c-0.4-0.3-0.7-0.5-1-0.6c-0.5-0.2-1.1-0.4-1.7-0.5c-2.6-0.6-4.5-1.1-5.7-1.7c-0.6-0.2-1.2-0.5-1.8-0.9
			c-1.1-0.7-1.8-1.6-2.2-2.6c-0.2-0.6-0.4-1.4-0.4-2.1c0-1.7,0.6-3.2,1.8-4.6c0.4-0.5,0.8-0.8,1-1c0.5-0.3,0.9-0.6,1.4-0.8
			c0.4-0.2,0.8-0.3,1.4-0.5c0.4-0.1,0.8-0.2,1.3-0.2l0.1,0v-2.4H1257.9z"/>
		<path style="&st6;" d="M1279.1,293.2c1.8,0,3.5,0.6,5,1.9c0.5,0.5,0.8,0.9,1,1.1c0.9,1.3,1.4,2.8,1.4,4.3c0,1.7-0.6,3.2-1.7,4.6
			c-0.4,0.5-0.8,0.8-1,1c-0.3,0.3-0.7,0.5-1,0.7v0c0.4,0.2,0.8,0.4,1.3,0.7c0.4,0.2,0.8,0.5,1.3,1c0.5,0.5,0.9,1,1.1,1.3
			c1.1,1.5,1.6,3.2,1.6,5v0c0,1.9-0.6,3.6-1.7,5.1c-0.2,0.3-0.5,0.6-0.9,1c-0.5,0.5-0.9,0.8-1.4,1.1c-1.5,1-3.2,1.5-5,1.5
			c-2.1,0-4.1-0.7-5.8-2.1c-0.6-0.5-1-1-1.3-1.3c-0.4-0.6-0.8-1-0.9-1.4c-0.6-1.3-1-2.5-1-3.8v-0.2c0-1.3,0.3-2.6,1-3.9
			c0.2-0.5,0.6-0.9,1-1.4c0.5-0.6,0.9-1,1.3-1.3c0.6-0.4,1-0.7,1.4-0.9c0.2-0.1,0.4-0.2,0.7-0.3l-0.4-0.3c-0.3-0.2-0.7-0.5-1.2-1
			c-0.3-0.4-0.6-0.7-0.9-1.1c-0.8-1.2-1.2-2.6-1.2-4c0-1.8,0.6-3.4,1.8-4.8c0.4-0.4,0.6-0.7,0.9-0.9
			C1275.8,293.8,1277.3,293.2,1279.1,293.2z M1271.8,314.9L1271.8,314.9c0,1.8,0.6,3.3,1.8,4.7c0.5,0.5,0.8,0.8,0.9,0.9
			c1.4,1,2.9,1.5,4.5,1.5c1.8,0,3.4-0.6,4.8-1.7c0.4-0.4,0.7-0.7,1-1c1-1.3,1.5-2.7,1.5-4.3c0-1.6-0.6-3.1-1.7-4.5
			c-0.4-0.5-0.8-0.8-0.9-0.9c-1.4-1.1-3-1.6-4.7-1.6c-1.5,0-2.9,0.4-4.2,1.3c-0.3,0.2-0.7,0.5-1.1,1c-0.6,0.6-1,1.3-1.3,2
			C1272,313.1,1271.8,314,1271.8,314.9z M1273.4,300.6c0,1.5,0.6,2.8,1.7,4c1.2,1.1,2.5,1.6,4,1.6c1.3,0,2.6-0.5,3.6-1.4
			c0.4-0.3,0.7-0.6,0.8-0.8c0.8-1,1.2-2.2,1.2-3.4v-0.2c0-1.1-0.3-2.1-1-3.1c-0.1-0.2-0.4-0.5-0.7-0.8c-0.5-0.5-0.9-0.8-1.4-1
			c-0.8-0.4-1.6-0.6-2.4-0.6h-0.2c-1.2,0-2.3,0.4-3.3,1.2c-0.4,0.4-0.8,0.7-1.1,1.1C1273.8,298.2,1273.4,299.4,1273.4,300.6z"/>
		<path style="&st6;" d="M1302.6,293.3l1.5,0.9v0c0,0-0.3,0.5-0.8,1.5l-5.1,8.7l-0.2,0.3c1.4-0.6,2.7-1,4.2-1h0.1
			c1.7,0,3.3,0.4,4.8,1.3c0.5,0.3,1,0.6,1.5,1.1c0.6,0.5,0.9,0.9,1.1,1.2c0.5,0.7,0.9,1.2,1.1,1.6c0.8,1.5,1.2,3.1,1.2,4.7v0.3
			c0,1.5-0.4,3.1-1.2,4.6c-0.3,0.6-0.7,1.2-1.2,1.7c-0.5,0.6-1,1-1.3,1.3c-1.9,1.5-3.9,2.2-6.2,2.2h0c-2.4,0-4.5-0.8-6.4-2.4
			c-0.6-0.5-0.9-0.9-1.1-1.2c-0.4-0.5-0.7-0.9-0.9-1.2c-0.3-0.5-0.5-1-0.8-1.6c-0.5-1.2-0.7-2.4-0.7-3.5v-0.3c0-1.8,0.5-3.6,1.6-5.4
			l4.7-8.1L1302.6,293.3L1302.6,293.3z M1294.1,313.7L1294.1,313.7c0,2,0.6,3.7,1.9,5.3c0.5,0.6,0.9,1,1.2,1.2
			c1.5,1.2,3.2,1.7,5,1.7c2,0,3.8-0.7,5.4-2.1c0.5-0.5,0.8-0.8,1-1c0.4-0.5,0.7-1,0.9-1.3c0.6-1.2,0.9-2.5,0.9-3.8v-0.1
			c0-2-0.7-3.8-2-5.4c-0.5-0.5-0.8-0.9-1-1c-1.5-1.2-3.3-1.9-5.2-1.9c-1.9,0-3.6,0.6-5.2,1.9c-0.5,0.5-0.9,0.9-1.2,1.2
			C1294.7,310,1294.1,311.8,1294.1,313.7z"/>
		<path style="&st6;" d="M1328.4,293.3c2.5,0,4.8,0.9,7,2.8c1.2,1.1,1.9,2.1,2.3,2.8c1.7,2.7,2.5,5.7,2.5,9c0,4.1-1.3,7.6-3.8,10.7
			c-2.4,2.6-5.1,3.9-8.1,3.9c-3.1,0-5.8-1.4-8.2-4.1c-2.4-3-3.6-6.5-3.6-10.4v-0.1c0-4.3,1.4-8,4.2-11.1
			C1322.9,294.5,1325.5,293.3,1328.4,293.3z M1318.2,307.9c0,3.4,1,6.4,3,9.1c1.1,1.3,2,2.1,2.7,2.4c1.4,0.9,2.9,1.3,4.3,1.3h0.3
			c2.2,0,4.3-1,6.2-2.9c1.2-1.3,2.1-2.7,2.7-4.3c0.7-1.9,1.1-3.8,1.1-5.7c0-3.8-1.2-7.1-3.7-9.9c-2-2-4.1-2.9-6.4-2.9
			c-2.8,0-5.2,1.3-7.3,3.9C1319.1,301.5,1318.2,304.5,1318.2,307.9z"/>
		<path style="&st6;" d="M1351.9,293.4c2.2,3.9,3.3,8.7,3.3,14.2v1.5c0,3-0.3,5.9-1,8.7c-1.8,6.2-4.5,9.4-7.9,9.4h-0.4l-0.1-0.1
			v-1.6l0.1-0.1h0.1c0.7,0,1.2-0.1,1.6-0.2c1.1-0.5,2.2-1.5,3.1-3.1c1.9-3.6,2.9-8.4,2.9-14.4c0-3.7-0.5-7.1-1.6-10.2
			c-1.5-4.1-3.4-6.2-5.5-6.2h-0.5l-0.1,0v-1.6l0.1-0.1h0.7C1348.5,289.6,1350.3,290.9,1351.9,293.4z"/>
	</g>
	<g>
		<path style="&st6;" d="M1556.5,289.4h0.7l0.1,0.1v1.6l-0.1,0h-0.5c-2.2,0-4,2.1-5.6,6.2c-1.1,3.1-1.6,6.5-1.6,10.2
			c0,6,1,10.8,2.9,14.4c1,1.6,2,2.7,3.1,3.1c0.3,0.1,0.9,0.2,1.6,0.2h0.1l0.1,0.1v1.6l-0.1,0.1h-0.4c-3.5,0-6.1-3.1-7.9-9.4
			c-0.7-2.8-1-5.7-1-8.7v-1.5c0-5.6,1.1-10.3,3.3-14.2C1552.8,290.7,1554.6,289.4,1556.5,289.4z"/>
		<path style="&st6;" d="M1572,291.7v2.4c0.6,0,1.3,0.1,2.2,0.4c1.1,0.3,2.1,0.9,3,1.7c0.5,0.5,0.9,0.8,1,1c0.4,0.5,0.6,0.8,0.8,1.1
			c0.1,0.1,0.1,0.2,0.1,0.2l-1.6,0.7c-0.2-0.3-0.5-0.7-0.9-1.3c-1.4-1.5-3.1-2.2-5.1-2.2c-1.6,0-3,0.4-4.2,1.2
			c-0.2,0.1-0.5,0.4-0.9,0.8c-0.5,0.6-0.8,1.1-1,1.5c-0.3,0.7-0.4,1.3-0.4,2c0,1.3,0.5,2.3,1.5,3.1c0.5,0.4,1.3,0.8,2.5,1.3
			c1.2,0.4,2.9,0.9,5.1,1.4c0.8,0.2,1.4,0.4,1.9,0.7c0.4,0.2,0.8,0.4,1.2,0.8c0.5,0.4,0.9,0.8,1.2,1.2c0.9,1.2,1.3,2.5,1.3,4
			c0,1.5-0.4,2.9-1.3,4.2c-0.2,0.3-0.5,0.6-0.9,1l-0.3,0.3c-0.5,0.4-0.9,0.7-1.2,0.9c-0.4,0.2-1,0.5-1.6,0.7
			c-0.5,0.2-1.1,0.3-1.6,0.4c-0.2,0-0.5,0.1-0.9,0.1v2.4l0,0h-1.7l0,0v-2.4c0,0-0.1,0-0.4,0c-0.6-0.1-1.1-0.2-1.5-0.3
			c-0.5-0.1-0.9-0.3-1.4-0.6c-0.5-0.2-1-0.6-1.5-1c-0.2-0.2-0.6-0.5-1-0.9c-0.5-0.6-0.9-1.1-1.3-1.7c-0.2-0.4-0.4-0.8-0.6-1.1
			c0.9-0.4,1.4-0.7,1.6-0.7c0.2,0.4,0.4,0.9,0.8,1.4c0.2,0.3,0.5,0.7,0.9,1.1c0.5,0.5,0.9,0.8,1.2,1c1.3,0.8,2.7,1.2,4.2,1.2h0.1
			c1.5,0,2.8-0.4,4.1-1.2c0.3-0.2,0.6-0.4,1-0.8c0.3-0.4,0.6-0.8,0.8-1.1c0.5-0.9,0.8-1.8,0.8-2.8v-0.2c0-1.1-0.4-2.1-1.1-3.1
			c-0.4-0.4-0.6-0.6-0.8-0.7c-0.4-0.3-0.7-0.5-1-0.6c-0.5-0.2-1.1-0.4-1.7-0.5c-2.6-0.6-4.5-1.1-5.7-1.7c-0.6-0.2-1.2-0.5-1.8-0.9
			c-1.1-0.7-1.8-1.6-2.2-2.6c-0.2-0.6-0.4-1.4-0.4-2.1c0-1.7,0.6-3.2,1.8-4.6c0.4-0.5,0.8-0.8,1-1c0.5-0.3,0.9-0.6,1.4-0.8
			c0.4-0.2,0.8-0.3,1.4-0.5c0.4-0.1,0.8-0.2,1.3-0.2l0.1,0v-2.4H1572z"/>
		<path style="&st6;" d="M1593.2,293c1.9,0,3.5,0.6,5,1.9c0.5,0.5,0.8,0.9,1,1.1c0.9,1.3,1.4,2.8,1.4,4.3c0,1.7-0.6,3.2-1.7,4.6
			c-0.4,0.5-0.8,0.8-1,1c-0.3,0.3-0.7,0.5-1,0.7v0c0.4,0.2,0.8,0.4,1.3,0.7c0.4,0.2,0.8,0.5,1.3,1c0.5,0.5,0.9,1,1.1,1.3
			c1.1,1.5,1.6,3.2,1.6,5v0c0,1.9-0.6,3.6-1.7,5.1c-0.2,0.3-0.5,0.6-0.9,1c-0.5,0.5-0.9,0.8-1.4,1.1c-1.5,1-3.2,1.5-5,1.5
			c-2.1,0-4.1-0.7-5.8-2.1c-0.6-0.5-1-1-1.3-1.3c-0.4-0.6-0.8-1-0.9-1.4c-0.6-1.3-1-2.6-1-3.8v-0.2c0-1.3,0.3-2.6,1-3.9
			c0.2-0.5,0.6-0.9,1-1.4c0.5-0.6,0.9-1,1.3-1.3c0.6-0.4,1-0.7,1.4-0.9c0.2-0.1,0.4-0.2,0.7-0.3l-0.4-0.3c-0.3-0.2-0.7-0.5-1.2-1
			c-0.3-0.4-0.6-0.7-0.9-1.1c-0.8-1.2-1.2-2.6-1.2-4c0-1.8,0.6-3.4,1.8-4.8c0.4-0.4,0.6-0.7,0.9-0.9
			C1589.9,293.6,1591.5,293,1593.2,293z M1586,314.7L1586,314.7c0,1.8,0.6,3.3,1.8,4.7c0.5,0.5,0.8,0.8,0.9,0.9
			c1.4,1,2.9,1.5,4.5,1.5c1.8,0,3.4-0.6,4.8-1.7c0.4-0.4,0.7-0.7,1-1c1-1.3,1.5-2.7,1.5-4.3c0-1.6-0.6-3.1-1.7-4.5
			c-0.4-0.5-0.8-0.8-0.9-0.9c-1.4-1.1-3-1.6-4.7-1.6c-1.5,0-2.9,0.4-4.2,1.3c-0.3,0.2-0.7,0.5-1.1,1c-0.6,0.6-1,1.3-1.3,2
			C1586.2,312.9,1586,313.8,1586,314.7z M1587.6,300.4c0,1.5,0.6,2.8,1.7,4c1.2,1.1,2.5,1.6,4,1.6c1.3,0,2.6-0.5,3.6-1.4
			c0.4-0.3,0.7-0.6,0.8-0.8c0.8-1,1.2-2.2,1.2-3.4v-0.2c0-1.1-0.3-2.1-1-3.1c-0.1-0.2-0.4-0.5-0.7-0.8c-0.5-0.5-0.9-0.8-1.4-1
			c-0.8-0.4-1.6-0.6-2.4-0.6h-0.2c-1.2,0-2.3,0.4-3.3,1.2c-0.4,0.4-0.8,0.7-1.1,1.1C1588,298,1587.6,299.2,1587.6,300.4z"/>
		<path style="&st6;" d="M1623.8,293.6L1623.8,293.6l0,1.7l0,0h-9.5l-2.1,8.3h0c1.1-0.4,2.2-0.5,3.3-0.5c2.3,0,4.5,0.7,6.4,2.2
			c0.8,0.6,1.3,1.2,1.7,1.8c0.4,0.5,0.7,1,1,1.5c0.8,1.5,1.2,3.1,1.2,4.6v0.2c0,1.7-0.4,3.3-1.3,4.9c-0.3,0.5-0.7,1.1-1.2,1.7
			c-0.6,0.6-1,1-1.2,1.2c-0.4,0.3-0.8,0.6-1.2,0.9c-0.6,0.3-1.2,0.7-2,0.9c-1.1,0.4-2.2,0.5-3.1,0.5h-0.4c-1.3,0-2.7-0.3-4.1-0.9
			c-0.5-0.2-1-0.5-1.6-0.9c-0.4-0.3-0.8-0.6-1.3-1.1c-0.5-0.5-0.9-0.9-1.1-1.2c-0.4-0.5-0.7-1-1-1.6l-0.2-0.3l1.6-0.7
			c0.2,0.5,0.5,1,0.8,1.5c0.2,0.3,0.6,0.7,1,1.2c0.6,0.6,1.2,1,1.7,1.3c1.3,0.7,2.7,1.1,4.1,1.1h0.2c1.6,0,3.1-0.5,4.6-1.4
			c0.3-0.2,0.8-0.6,1.3-1c0.6-0.6,1-1.1,1.3-1.6c0.9-1.4,1.3-2.9,1.3-4.5c0-2-0.7-3.9-2.1-5.5c-0.4-0.5-0.8-0.8-1-1
			c-1.1-0.9-2.2-1.5-3.5-1.7c-0.7-0.2-1.3-0.2-2-0.2c-1.6,0-3.2,0.5-4.7,1.4l-1.3,0.7h0v0l2.3-8.8l1.2-4.5H1623.8z"/>
		<path style="&st6;" d="M1642.4,293.1c2.5,0,4.8,0.9,7,2.8c1.2,1.1,1.9,2.1,2.3,2.8c1.7,2.7,2.5,5.7,2.5,9c0,4.1-1.3,7.6-3.8,10.7
			c-2.4,2.6-5.1,3.9-8.1,3.9c-3.1,0-5.8-1.4-8.2-4.1c-2.4-3-3.6-6.5-3.6-10.4v-0.1c0-4.3,1.4-8,4.2-11.1
			C1637,294.3,1639.5,293.1,1642.4,293.1z M1632.2,307.7c0,3.4,1,6.4,3,9.1c1.1,1.3,2,2.1,2.7,2.4c1.4,0.9,2.9,1.3,4.3,1.3h0.3
			c2.2,0,4.3-1,6.2-2.9c1.2-1.3,2.1-2.7,2.7-4.3c0.7-1.9,1.1-3.8,1.1-5.7c0-3.8-1.2-7.1-3.7-9.9c-2-2-4.1-2.9-6.4-2.9
			c-2.8,0-5.2,1.3-7.3,3.9C1633.2,301.3,1632.2,304.3,1632.2,307.7z"/>
		<path style="&st6;" d="M1666,293.2c2.2,3.9,3.3,8.7,3.3,14.2v1.5c0,3-0.3,5.9-1,8.7c-1.8,6.2-4.5,9.4-7.9,9.4h-0.4l-0.1-0.1v-1.6
			l0.1-0.1h0.1c0.7,0,1.2-0.1,1.6-0.2c1.1-0.5,2.2-1.5,3.1-3.1c1.9-3.6,2.9-8.4,2.9-14.4c0-3.7-0.5-7.1-1.6-10.2
			c-1.5-4.1-3.4-6.2-5.6-6.2h-0.5l-0.1,0v-1.6l0.1-0.1h0.7C1662.6,289.4,1664.3,290.7,1666,293.2z"/>
	</g>
</g>
</svg>
