<?xml version="1.0" encoding="utf-8"?>
<!-- Generator: Adobe Illustrator 26.0.0, SVG Export Plug-In . SVG Version: 6.00 Build 0)  -->
<svg version="1.1" id="Capa_1" xmlns="http://www.w3.org/2000/svg" xmlns:xlink="http://www.w3.org/1999/xlink" x="0px" y="0px"
	 viewBox="0 0 2603 1084" style="enable-background:new 0 0 2603 1084;" xml:space="preserve">
<style type="text/css">
	.st0{fill:#141414;}
	.st1{enable-background:new    ;}
	.st2{fill:#F4D3AB;}
	.st3{fill:#684D1C;}
	.st4{fill:#FFCE85;}
</style>
<g id="Capa_2_00000040559712152457023230000015413125039897519015_">
	<circle class="st0" cx="540" cy="540" r="540"/>
</g>
<g id="Capa_3">
	<rect class="st0" width="2603" height="1084"/>
	<g class="st1">
		<path class="st2" d="M818.1,629.8l-72.8-95.2v95.2h-30.8V433h30.8v94.2L813,433h35.9L779,529.6l76.8,100.2H818.1z"/>
		<path class="st2" d="M1000.6,599.9h-93.1L894,629.8h-33.4L953.1,429h1.8l92.5,200.8H1014L1000.6,599.9z M988.6,573.4l-34.5-76.9
			l-34.7,76.9H988.6z"/>
		<path class="st2" d="M1069.3,433h65.8c38.1,0,69.2,29.2,69.2,64.9c0,35-31.1,63.6-69.2,63.6h-34.9v68.2h-30.9V433z M1173.5,497.7
			c0-18.8-17.2-34.1-38.3-34.1h-34.9v67.3l34.9,0.1C1156.2,531.1,1173.5,516.1,1173.5,497.7z"/>
		<path class="st2" d="M1217.5,595.2l24.4-17.5c8.8,15.4,25.1,24.2,44.1,24.2c22.1,0,38.8-10.6,38.8-25.6
			c0-18.2-25.9-29.2-48.8-39.1c-23.1-10.3-48.7-22.2-48.7-53.1c0-32.2,28-54.7,63.4-54.7c28.1,0,49.1,13.5,57.1,35.2l-22.9,15.9
			c-6.1-13.3-19.7-20.8-33.9-20.8c-18.1,0-32.5,11.2-32.5,25.1c0,15.4,18.2,20.9,42.1,31.1c31.1,13.7,55.3,28.7,55.3,59.7
			c0,34.9-30.3,57.4-70.2,57.4C1253.3,633.1,1228.8,617.9,1217.5,595.2z"/>
		<path class="st2" d="M1380.5,555.2V433h31v122.1c0,27.2,19.2,47.1,43.2,47.1s43.5-19.9,43.5-47.1V433h31.1v122.2
			c0,45.2-32.6,78.2-74.5,78.2S1380.5,600.4,1380.5,555.2z"/>
	</g>
	<g class="st1">
		<path class="st3" d="M1757.9,428.7v201H1727V520.6l-65.3,105.8h-0.2l-65.4-106v109.3h-30.9v-201h2.3l94.1,143.1l94-143.1H1757.9z"
			/>
		<path class="st3" d="M1919.7,599.9h-93.1l-13.4,29.9h-33.4l92.5-200.8h1.8l92.5,200.8h-33.4L1919.7,599.9z M1907.7,573.4
			l-34.5-76.9l-34.7,76.9H1907.7z"/>
		<path class="st3" d="M2146.6,432.5v200.7h-1.5l-125.9-131.5V630h-30.9V429.6h1.6l125.6,131.2V432.5H2146.6z"/>
		<path class="st3" d="M2184.4,433h30.9v196.8h-30.9V433z"/>
		<path class="st3" d="M2377.1,599.9h-93.1l-13.4,29.9h-33.4l92.5-200.8h1.8l92.5,200.8h-33.4L2377.1,599.9z M2365.1,573.4
			l-34.5-76.9l-34.7,76.9H2365.1z"/>
	</g>
</g>
<g id="Capa_1_00000165217204045813877620000015207104409627310510_">
	<path class="st2" d="M550.9,987.9c0,0,194.4-154.3,74.9-322.6c-108-136.8-249.6-170.9-174.8-295.7c34-48.7,78.2-99.9,78.2-99.9
		s-392.1,83.5-153,322.6c11.3,11.3,137.4,136.6,182.4,209.3C602.8,882.3,550.9,987.9,550.9,987.9z"/>
	<path class="st4" d="M781.3,461.7"/>
	<path class="st4" d="M475.4,332.9"/>
	<path class="st4" d="M358.5,486.6"/>
	<path class="st4" d="M438.7,393.8"/>
	<path class="st4" d="M449.4,425.1"/>
	<path class="st3" d="M610.4,588.5c0,0-59.3-71.8-28.8-163.2c12.1-36.3,51-80.6,94.1-117.1C833.2,171.8,656.5,93,656.5,93
		s29.6,46.1-5.8,111.4c-61.4,80.6-64.9,76.9-121.9,136.4C403.1,473.2,610.4,588.5,610.4,588.5z"/>
</g>
</svg>
